<svg xmlns="http://www.w3.org/2000/svg" xmlns:xlink="http://www.w3.org/1999/xlink" width="113.594" height="164.514" class="typst-doc" viewBox="0 0 85.196 123.386"><path fill="#fff" d="M0 0v123.386h85.196V0Z" class="typst-shape"/><g class="typst-group"><path fill="none" d="M67.909 58.008h12.287v7.37H67.909z" class="typst-shape"/><g class="typst-group"><g class="typst-group"><g class="typst-text" transform="matrix(1 0 0 -1 67.909 65.246)"><use xlink:href="#a"/><use xlink:href="#b" x="5.115"/></g></g></g><path fill="none" stroke="#000" stroke-width=".4" d="M45.172 118.386v-41.67m0-71.716v41.67" class="typst-shape"/><path stroke="#000" d="m45.172 23.567-1.7 4.535h3.401z" class="typst-shape"/><path fill="none" d="M53.958 20.72h8.793v10.23h-8.793z" class="typst-shape"/><g class="typst-group"><g class="typst-group"><use xlink:href="#c" class="typst-text" transform="matrix(1 0 0 -1 53.958 28.233)"/><use xlink:href="#d" class="typst-text" transform="matrix(1 0 0 -1 57.753 30.95)"/></g></g><path fill="none" d="M5 56.578h11.29v10.23H5z" class="typst-shape"/><g class="typst-group"><g class="typst-group"><use xlink:href="#e" class="typst-text" transform="matrix(1 0 0 -1 5 64.09)"/><use xlink:href="#d" class="typst-text" transform="matrix(1 0 0 -1 11.292 66.808)"/></g></g><path fill="none" stroke="#000" stroke-width=".55" d="M27.314 88.055c-2.826-8.592-5.67-17.304-5.67-26.362 0-6.817 1.61-13.437 3.612-19.957" class="typst-shape"/><path stroke="#000" stroke-width=".55" d="m27.074 36.076-3.758 4.748 4.048 1.3z" class="typst-shape"/><path fill="#fff" stroke="#000" stroke-width=".8" d="M30.149 61.693c0 8.29 6.733 15.024 15.023 15.024s15.024-6.734 15.024-15.024-6.734-15.024-15.024-15.024S30.15 53.403 30.15 61.693Z" class="typst-shape"/><path fill="none" stroke="#000" stroke-width=".8" d="M45.172 76.717V46.669" class="typst-shape"/></g><defs><symbol id="a" overflow="visible"><path d="M3.509 2.079c0-1.045-.55-1.815-1.21-1.815-.418 0-.561.275-.726.495-.143.187-.33.352-.561.352-.209 0-.418-.187-.418-.407 0-.451.935-.825 1.562-.825 1.364 0 2.332 1.012 2.332 2.398 0 1.067-.737 2.024-1.969 2.024-.473 0-.88-.099-1.078-.176l.22 1.837c.407-.044.759-.099 1.287-.099.33 0 .704.022 1.155.066l.176.748-.077.044C3.575 6.655 2.981 6.6 2.398 6.6c-.407 0-.803.022-1.188.055L.836 3.487c.583.22 1.001.264 1.397.264.715 0 1.276-.473 1.276-1.672"/></symbol><symbol id="b" overflow="visible"><path d="M4.928 6.754c.814-.055.814-.352.583-.946L3.773 1.397h-.044l-1.76 4.477c-.253.66-.187.803.561.88.066.066.066.297 0 .363-.44-.011-.935-.022-1.331-.022s-.781.011-1.144.022C-.011 7.051 0 6.82.066 6.754c.605-.055.693-.242.99-1.001L3.223.121c.066-.176.143-.253.253-.253.121 0 .198.099.264.253l2.277 5.61c.209.517.385.946 1.078 1.023.066.066.066.297 0 .363-.33-.011-.715-.022-.968-.022s-.748.011-1.199.022c-.066-.066-.066-.297 0-.363"/></symbol><symbol id="c" overflow="visible"><path d="M3.124 6.831c0 .297-.143.44-.44.44-.308 0-.616-.308-.616-.616 0-.297.154-.44.451-.44.308 0 .605.308.605.616m-.275-5.313C2.607.649 2.255.209 1.804.209c-.143 0-.22.099-.22.308 0 .187.319 1.133.968 2.849q.132.38.132.594c0 .539-.374.935-.913.935-.473 0-.847-.275-1.122-.836q-.33-.677-.33-.891c0-.099.055-.143.176-.143.143 0 .165.066.209.22.253.88.594 1.32 1.034 1.32.143 0 .22-.099.22-.308 0-.154-.033-.33-.11-.539-.253-.693-.517-1.43-.737-2.013C.946 1.265.858.968.858.814c0-.539.396-.935.924-.935q.71 0 1.122.825c.209.429.319.726.319.891 0 .099-.055.154-.176.154-.033 0-.198-.099-.198-.231"/></symbol><symbol id="d" overflow="visible"><path d="M2.333 5.113c-.331-.324-.824-.485-1.494-.485v-.34c.455 0 .816.07 1.094.201V.655q.002-.148-.031-.193-.058-.129-.693-.13H.893V0l1.37.03L3.644 0v.331h-.317q-.633.002-.7.131a.5.5 0 0 0-.023.192v4.212c0 .208-.031.247-.27.247"/></symbol><symbol id="e" overflow="visible"><path d="M5.973 1.584c0 .099-.055.154-.176.154-.099 0-.154-.077-.187-.231-.055-.209-.11-.418-.187-.627C5.28.429 5.082.198 4.84.198q-.297 0-.297.462c0 .187.077.561.22 1.111l.297 1.166c.099.396.187.671.253 1.012l.066.297a.7.7 0 0 1 .033.165q0 .33-.363.33c-.242 0-.396-.132-.462-.407l-.814-3.256A1.5 1.5 0 0 0 3.63.836C3.454.55 3.025.198 2.585.198c-.418 0-.627.286-.627.847 0 .451.198 1.177.583 2.189.121.33.187.561.187.693 0 .55-.385.935-.935.935q-.742 0-1.155-.825c-.209-.429-.319-.726-.319-.88 0-.099.055-.154.176-.154.143 0 .165.066.209.22q.38 1.32 1.056 1.32c.154 0 .231-.11.231-.319 0-.165-.066-.396-.187-.715-.418-1.111-.627-1.881-.627-2.288 0-.847.528-1.342 1.375-1.342.473 0 .902.22 1.265.671.154-.451.484-.671.99-.671.759 0 .99.891 1.166 1.705"/></symbol></defs></svg>