<svg xmlns="http://www.w3.org/2000/svg" xmlns:xlink="http://www.w3.org/1999/xlink" width="126.719" height="94.77" class="typst-doc" viewBox="0 0 95.039 71.078"><path fill="#fff" d="M0 0v71.078h95.04V0Z" class="typst-shape"/><g class="typst-group"><path fill="none" d="M23.213 18.323h48.613v47.755H23.213z" class="typst-shape"/><g class="typst-group"><g class="typst-group"><use xlink:href="#a" class="typst-text" transform="matrix(1 0 0 -1 43.213 45.836)"/></g></g><path fill="none" stroke="#000" stroke-width=".5" d="M5 11.661h22.535m39.969 0h22.535" class="typst-shape"/><path fill="#fff" stroke="#000" stroke-width=".8" d="M27.535 5v13.323h39.969V5z" class="typst-shape"/><path fill="none" stroke="#000" stroke-width=".8" d="M37.528 18.323V5m9.992 13.323V5m9.992 13.323V5" class="typst-shape"/></g><defs><symbol id="a" overflow="visible"><path d="M8.129 5.841c0 .561-.286.99-.847 1.298-.451.253-.99.374-1.595.374H2.585c-.253 0-.363-.011-.363-.264 0-.077.033-.132.099-.143.11-.011.198-.022.253-.022.33-.011.517-.033.572-.044s.088-.044.088-.099a1 1 0 0 0-.044-.198L1.738.902C1.683.66 1.573.506 1.408.451 1.331.429 1.133.418.792.418.55.418.451.407.451.165q0-.181.198-.165l1.364.033L3.399 0c.176-.011.264.088.264.253 0 .11-.121.165-.352.165-.44 0-.66.055-.66.154 0 0 .011.022.033.176l.704 2.849h1.265c.759 0 1.144-.319 1.144-.946 0-.099-.055-.341-.154-.737-.121-.462-.176-.77-.176-.935 0-.836.649-1.221 1.485-1.221.308 0 .605.143.902.418s.451.572.451.88c0 .11-.055.165-.176.165-.077 0-.143-.055-.176-.176-.121-.341-.275-.594-.451-.737s-.341-.22-.506-.22c-.253 0-.385.209-.385.616 0 .264.033.671.11 1.232.033.231.044.396.044.517 0 .583-.308 1.012-.924 1.276 1.034.253 2.288.99 2.288 2.112m-1.43.935q.33-.214.33-.726c0-.22-.044-.473-.143-.77q-.445-1.353-2.244-1.353H3.476l.693 2.783q.082.346.264.363c.055.011.275.011.66.011.715 0 1.133-.022 1.606-.308"/></symbol></defs></svg>