<svg class="typst-doc" viewBox="0 0 43.00000000000001 41.21320343559643" width="43.00000000000001pt" height="41.21320343559643pt" xmlns="http://www.w3.org/2000/svg" xmlns:xlink="http://www.w3.org/1999/xlink" xmlns:h5="http://www.w3.org/1999/xhtml">
    <path class="typst-shape" fill="none" fill-rule="nonzero" d="M 0 0 L 0 41.213203 L 43 41.213203 L 43 0 Z "/>
    <g>
        <g transform="translate(3 3)">
            <g class="typst-group">
                <g>
                    <g transform="translate(6.999999999999999 17.606601717798213)">
                        <path class="typst-shape" fill="none" stroke="currentColor" stroke-width="0.6" stroke-linecap="butt" stroke-linejoin="miter" stroke-miterlimit="4" d="M 9 0 L 0 0 "/>
                    </g>
                    <g transform="translate(0 17.606601717798213)">
                        <path class="typst-shape" fill="none" stroke="currentColor" stroke-width="0.6" stroke-linecap="butt" stroke-linejoin="miter" stroke-miterlimit="4" d="M 0 0 L 7 0 "/>
                    </g>
                    <g transform="translate(32.60660171779821 28.21320343559643)">
                        <path class="typst-shape" fill="none" stroke="currentColor" stroke-width="0.6" stroke-linecap="butt" stroke-linejoin="miter" stroke-miterlimit="4" d="M 0 7 L 0 0 "/>
                    </g>
                    <g transform="translate(32.60660171779821 0)">
                        <path class="typst-shape" fill="none" stroke="currentColor" stroke-width="0.6" stroke-linecap="butt" stroke-linejoin="miter" stroke-miterlimit="4" d="M 0 0 L 0 7 "/>
                    </g>
                    <g transform="translate(15.999999999999996 9.106601717798213)">
                        <path class="typst-shape" fill="none" stroke="currentColor" stroke-width="1" stroke-linecap="butt" stroke-linejoin="miter" stroke-miterlimit="4" d="M 0 17 L 0 0 "/>
                    </g>
                    <g transform="translate(15.999999999999996 20.606601717798213)">
                        <path class="typst-shape" fill="none" stroke="currentColor" stroke-width="0.6" stroke-linecap="butt" stroke-linejoin="miter" stroke-miterlimit="4" d="M 0 0 L 16.606602 7.6066017 "/>
                    </g>
                    <g transform="translate(15.999999999999996 7.000000000000002)">
                        <path class="typst-shape" fill="none" stroke="currentColor" stroke-width="0.6" stroke-linecap="butt" stroke-linejoin="miter" stroke-miterlimit="4" d="M 0 7.6066017 L 16.606602 0 "/>
                    </g>
                    <g transform="translate(21.533301113700794 21.919242393703726)">
                        <path class="typst-shape" fill="currentColor" fill-rule="nonzero" stroke="currentColor" stroke-width="1" stroke-linecap="butt" stroke-linejoin="miter" stroke-miterlimit="4" d="M 4.831725 3.4350271 L 1.4165499 0 L 0 3.0925875 L 4.831725 3.4350271 Z "/>
                    </g>
                    <g transform="translate(6.999999999999999 2.606601717798214)">
                        <path class="typst-shape" fill="none" stroke="currentColor" stroke-width="1" stroke-linecap="butt" stroke-linejoin="miter" stroke-miterlimit="4" d="M 15 0 C 6.72324 0 0 6.72324 0 15 C 0 23.27676 6.72324 30 15 30 C 23.27676 30 30 23.27676 30 15 C 30 6.72324 23.27676 0 15 0 Z "/>
                    </g>
                </g>
            </g>
        </g>
    </g>
</svg>
