<svg class="typst-doc" viewBox="0 0 130.86614173228347 19.333333333333332" width="130.86614173228347pt" height="19.333333333333332pt" xmlns="http://www.w3.org/2000/svg" xmlns:xlink="http://www.w3.org/1999/xlink" xmlns:h5="http://www.w3.org/1999/xhtml">
    <path class="typst-shape" fill="white" fill-rule="nonzero" d="M 0 0 L 0 19.333334 L 130.86613 19.333334 L 130.86613 0 Z "/>
    <g>
        <g transform="translate(3 3)">
            <g class="typst-group">
                <g>
                    <g transform="translate(0 6.666666666666666)">
                        <path class="typst-shape" fill="none" stroke="currentColor" stroke-width="0.6" stroke-linecap="butt" stroke-linejoin="miter" stroke-miterlimit="4" d="M 0 0 L 7 0 "/>
                    </g>
                    <g transform="translate(47 6.666666666666666)">
                        <path class="typst-shape" fill="none" stroke="currentColor" stroke-width="0.6" stroke-linecap="butt" stroke-linejoin="miter" stroke-miterlimit="4" d="M 7 0 L 0 0 "/>
                    </g>
                    <g transform="translate(6.999999999999999 0)">
                        <path class="typst-shape" fill="none" stroke="currentColor" stroke-width="1" stroke-linecap="butt" stroke-linejoin="miter" stroke-miterlimit="4" d="M 0 6.6666665 L 3.3333333 0 L 10 13.333333 L 16.666666 0 L 23.333334 13.333333 L 30 0 L 36.666668 13.333333 L 40 6.6666665 "/>
                    </g>
                    <g transform="translate(70.86614173228347 6.666666666666666)">
                        <path class="typst-shape" fill="none" stroke="currentColor" stroke-width="0.6" stroke-linecap="butt" stroke-linejoin="miter" stroke-miterlimit="4" d="M 0 0 L 7 0 "/>
                    </g>
                    <g transform="translate(117.86614173228347 6.666666666666666)">
                        <path class="typst-shape" fill="none" stroke="currentColor" stroke-width="0.6" stroke-linecap="butt" stroke-linejoin="miter" stroke-miterlimit="4" d="M 7 0 L 0 0 "/>
                    </g>
                    <g transform="translate(77.86614173228347 0)">
                        <path class="typst-shape" fill="none" stroke="currentColor" stroke-width="1" stroke-linecap="butt" stroke-linejoin="miter" stroke-miterlimit="4" d="M 0 0 L 0 13.333333 L 40 13.333333 L 40 0 L 0 0 Z "/>
                    </g>
                </g>
            </g>
        </g>
    </g>
</svg>
