<svg xmlns="http://www.w3.org/2000/svg" xmlns:xlink="http://www.w3.org/1999/xlink" width="224.105" height="224.105" class="typst-doc" viewBox="0 0 168.079 168.079"><path fill="#fff" d="M0 0v168.079h168.079V0Z" class="typst-shape"/><g class="typst-group"><path fill="none" stroke="#e6e6e6" stroke-width=".5" d="M27.346 169.079V-1M55.693 169.079V-1M84.04 169.079V-1M112.386 169.079V-1M140.732 169.079V-1M-1 140.732h170.079M-1 112.386h170.079M-1 84.04h170.079M-1 55.693h170.079M-1 27.346h170.079M-1 169.079h170.079V-1H-1z" class="typst-shape"/><path fill="#fff" stroke="#000" stroke-width=".8" d="M59.945 74.118h36.85l11.339 9.921-11.339 9.922h-36.85z" class="typst-shape"/><path fill="none" d="M61.556 73.365h36.462v21.348H61.556z" class="typst-shape"/><g class="typst-group"><g class="typst-group"><g class="typst-text" transform="matrix(1 0 0 -1 68.556 87.603)"><use xlink:href="#a"/><use xlink:href="#b" x="7.645"/><use xlink:href="#c" x="15.356"/></g></g></g><path fill="none" stroke="#000" stroke-width=".5" d="M-1 84.04h60.945M108.134 84.04h60.945" class="typst-shape"/></g><defs><symbol id="a" overflow="visible"><path d="m1.705.869.605 1.595c.055.143.121.187.385.187h2.321L5.654.792C5.786.418 5.368.374 4.84.341c-.066-.066-.066-.297 0-.363C5.247-.011 5.852 0 6.281 0c.451 0 .869-.011 1.254-.022.066.066.066.297 0 .363-.429.044-.803.077-.99.605L4.279 7.238c-.165-.099-.462-.22-.605-.22L1.177 1.122C.891.44.561.374.077.341.011.275.011.044.077-.022.363-.011.726 0 1.056 0c.451 0 1.001-.011 1.408-.022.066.066.066.297 0 .363-.418.033-.935.077-.759.528m1.188 2.244c-.242 0-.319.033-.275.143L3.74 6.105h.066L4.84 3.113Z"/></symbol><symbol id="b" overflow="visible"><path d="M1.628 7.095c-.396 0-.979.011-1.419.022-.066-.066-.066-.297 0-.363.77-.033.957-.088.957-1.001V1.342C1.166.429.979.374.209.341.143.275.143.044.209-.022.638-.011 1.221 0 1.639 0c.407 0 .869-.022 2.002-.022 1.551 0 3.597.704 3.597 3.41 0 2.046-1.683 3.729-3.795 3.729-.781 0-1.386-.022-1.815-.022M2.101.924v5.28c0 .385.385.539.924.539 2.376 0 3.157-1.925 3.157-3.619C6.182.902 4.851.352 3.3.352c-1.078 0-1.199.22-1.199.572"/></symbol><symbol id="c" overflow="visible"><path d="M3.927-.11c1.067 0 2.046.506 2.794 1.485-.055.099-.132.165-.253.165C5.687.682 4.939.341 3.916.341c-1.485 0-2.508 1.672-2.508 3.278 0 .946.253 1.738.649 2.233.55.671 1.188.979 1.76.979 1.518 0 2.123-.902 2.409-1.848.132-.044.242-.011.363.055-.055.572-.132 1.1-.242 1.705-.561.055-1.056.495-2.409.495-.935 0-1.716-.341-2.365-.935C.847 5.632.407 4.554.407 3.41c0-1.914 1.155-3.52 3.52-3.52"/></symbol></defs></svg>