<svg xmlns="http://www.w3.org/2000/svg" xmlns:xlink="http://www.w3.org/1999/xlink" width="224.105" height="224.105" class="typst-doc" viewBox="0 0 168.079 168.079"><path fill="#fff" d="M0 0v168.079h168.079V0Z" class="typst-shape"/><g class="typst-group"><path fill="none" stroke="#e6e6e6" stroke-width=".5" d="M27.346 169.079V-1M55.693 169.079V-1M84.04 169.079V-1M112.386 169.079V-1M140.732 169.079V-1M-1 140.732h170.079M-1 112.386h170.079M-1 84.04h170.079M-1 55.693h170.079M-1 27.346h170.079M-1 169.079h170.079V-1H-1z" class="typst-shape"/><path fill="none" stroke="#000" stroke-width=".5" d="M-1 84.04h71.15M97.93 84.04h71.149" class="typst-shape"/><path fill="#fff" stroke="#000" stroke-width=".8" d="M84.04 70.15c-7.665 0-13.89 6.225-13.89 13.89 0 7.664 6.225 13.89 13.89 13.89 7.664 0 13.89-6.226 13.89-13.89s-6.226-13.89-13.89-13.89Z" class="typst-shape"/><path fill="none" d="M78.574 74.99h10.93v9.05h-10.93z" class="typst-shape"/><g class="typst-group"><g class="typst-group"><use xlink:href="#a" class="typst-text" transform="matrix(1 0 0 -1 79.425 83.079)"/></g></g><path fill="none" d="M75.354 84.04h17.37v10.37h-17.37z" class="typst-shape"/><g class="typst-group"><g class="typst-group"><g class="typst-group"><path fill="none" stroke="#000" stroke-width=".55" d="M79.04 87.724h10M79.04 90.724h2.333M82.873 90.724h2.333M89.04 90.724h-2.334" class="typst-shape"/></g></g></g></g><defs><symbol id="a" overflow="visible"><path d="M7.293 1.276c.055-.891.011-.902-.704-.935-.066-.066-.066-.297 0-.363.407.011.847.022 1.177.022s.836-.011 1.199-.022c.066.066.066.297 0 .363-.748.033-.781.077-.847.99l-.33 4.631c-.044.594.011.748.759.792.066.066.066.297 0 .363l-1.441-.022-2.332-5.577c-.044-.11-.077-.154-.099-.154s-.055.055-.088.143L2.332 7.095l-1.595.022c-.066-.066-.066-.297 0-.363.759-.044.825-.066.748-.891l-.44-4.532C.979.671.847.396.22.341.154.275.154.044.22-.022.55-.011.902 0 1.166 0S1.87-.011 2.2-.022c.066.066.066.297 0 .363-.726.055-.781.396-.726 1.012l.418 4.411h.022L4.191.055c.033-.077.099-.165.165-.165s.11.077.154.165l2.475 5.819h.022Z"/></symbol></defs></svg>