<svg xmlns="http://www.w3.org/2000/svg" width="226.772" height="226.772" class="typst-doc" viewBox="0 0 170.079 170.079"><path fill="#fff" d="M0 0v170.079h170.079V0Z" class="typst-shape"/><g class="typst-group"><path fill="none" stroke="#e6e6e6" stroke-width=".5" d="M28.346 170.079V0M56.693 170.079V0M85.04 170.079V0M113.386 170.079V0M141.732 170.079V0M0 141.732h170.079M0 113.386h170.079M0 85.04h170.079M0 56.693h170.079M0 28.346h170.079M0 170.079h170.079V0H0z" class="typst-shape"/><path fill="none" stroke="#000" stroke-width=".5" d="M0 85.04h70.016M100.063 85.04h70.016" class="typst-shape"/><path fill="#fff" stroke="#000" stroke-width=".8" d="M85.04 70.016c-8.29 0-15.024 6.734-15.024 15.023s6.734 15.024 15.023 15.024 15.024-6.734 15.024-15.024-6.734-15.023-15.024-15.023Z" class="typst-shape"/><path fill="none" stroke="#000" stroke-width=".8" d="M85.04 100.063V70.016" class="typst-shape"/></g></svg>