<svg xmlns="http://www.w3.org/2000/svg" width="224.105" height="224.105" class="typst-doc" viewBox="0 0 168.079 168.079"><path fill="#fff" d="M0 0v168.079h168.079V0Z" class="typst-shape"/><g class="typst-group"><path fill="none" stroke="#e6e6e6" stroke-width=".5" d="M27.346 169.079V-1M55.693 169.079V-1M84.04 169.079V-1M112.386 169.079V-1M140.732 169.079V-1M-1 140.732h170.079M-1 112.386h170.079M-1 84.04h170.079M-1 55.693h170.079M-1 27.346h170.079M-1 169.079h170.079V-1H-1z" class="typst-shape"/><path fill="none" stroke="#000" stroke-width=".5" d="M-1 84.04h65.055M104.024 84.04h65.055" class="typst-shape"/><path fill="#fff" stroke="#000" stroke-width=".8" d="M64.055 77.378v13.323h39.969V77.378z" class="typst-shape"/><path fill="none" stroke="#000" d="m72.568 100.422 18.874-26.955" class="typst-shape"/><path stroke="#000" d="m94.694 68.823-1.51 5.863-3.483-2.439z" class="typst-shape"/></g></svg>