<svg xmlns="http://www.w3.org/2000/svg" width="226.772" height="226.772" class="typst-doc" viewBox="0 0 170.079 170.079"><path fill="#fff" d="M0 0v170.079h170.079V0Z" class="typst-shape"/><g class="typst-group"><path fill="none" stroke="#e6e6e6" stroke-width=".5" d="M28.346 170.079V0m28.347 170.079V0M85.04 170.079V0m28.346 170.079V0m28.346 170.079V0M0 141.732h170.079M0 113.386h170.079M0 85.04h170.079M0 56.693h170.079M0 28.346h170.079M0 170.079h170.079V0H0z" class="typst-shape"/><path fill="none" stroke="#000" stroke-width=".5" d="M0 85.04h72.567m24.945 0h72.567" class="typst-shape"/><path fill="#fff" stroke="#000" stroke-width=".8" d="M72.567 79.843v10.393h24.945V79.843z" class="typst-shape"/><path fill="none" stroke="#000" stroke-width=".5" d="M72.567 85.04h24.945" class="typst-shape"/><path stroke="#000" stroke-width=".8" d="M72.567 79.843v10.393h6.236V79.843z" class="typst-shape"/></g></svg>