<svg class="typst-doc" viewBox="0 0 170.07874015748033 170.07874015748033" width="170.07874015748033pt" height="170.07874015748033pt" xmlns="http://www.w3.org/2000/svg" xmlns:xlink="http://www.w3.org/1999/xlink" xmlns:h5="http://www.w3.org/1999/xhtml">
    <path class="typst-shape" fill="#ffffff" fill-rule="nonzero" d="M 0 0 L 0 170.07874 L 170.07874 170.07874 L 170.07874 0 Z "/>
    <g>
        <g transform="translate(0 0)">
            <g class="typst-group">
                <g>
                    <g transform="translate(28.346456692913385 0)">
                        <path class="typst-shape" fill="none" stroke="#e6e6e6" stroke-width="0.5" stroke-linecap="butt" stroke-linejoin="miter" stroke-miterlimit="4" d="M 0 170.07874 L 0 0 "/>
                    </g>
                    <g transform="translate(56.69291338582677 0)">
                        <path class="typst-shape" fill="none" stroke="#e6e6e6" stroke-width="0.5" stroke-linecap="butt" stroke-linejoin="miter" stroke-miterlimit="4" d="M 0 170.07874 L 0 0 "/>
                    </g>
                    <g transform="translate(85.03937007874016 0)">
                        <path class="typst-shape" fill="none" stroke="#e6e6e6" stroke-width="0.5" stroke-linecap="butt" stroke-linejoin="miter" stroke-miterlimit="4" d="M 0 170.07874 L 0 0 "/>
                    </g>
                    <g transform="translate(113.38582677165354 0)">
                        <path class="typst-shape" fill="none" stroke="#e6e6e6" stroke-width="0.5" stroke-linecap="butt" stroke-linejoin="miter" stroke-miterlimit="4" d="M 0 170.07874 L 0 0 "/>
                    </g>
                    <g transform="translate(141.73228346456693 0)">
                        <path class="typst-shape" fill="none" stroke="#e6e6e6" stroke-width="0.5" stroke-linecap="butt" stroke-linejoin="miter" stroke-miterlimit="4" d="M 0 170.07874 L 0 0 "/>
                    </g>
                    <g transform="translate(0 141.73228346456693)">
                        <path class="typst-shape" fill="none" stroke="#e6e6e6" stroke-width="0.5" stroke-linecap="butt" stroke-linejoin="miter" stroke-miterlimit="4" d="M 0 0 L 170.07874 0 "/>
                    </g>
                    <g transform="translate(0 113.38582677165354)">
                        <path class="typst-shape" fill="none" stroke="#e6e6e6" stroke-width="0.5" stroke-linecap="butt" stroke-linejoin="miter" stroke-miterlimit="4" d="M 0 0 L 170.07874 0 "/>
                    </g>
                    <g transform="translate(0 85.03937007874016)">
                        <path class="typst-shape" fill="none" stroke="#e6e6e6" stroke-width="0.5" stroke-linecap="butt" stroke-linejoin="miter" stroke-miterlimit="4" d="M 0 0 L 170.07874 0 "/>
                    </g>
                    <g transform="translate(0 56.69291338582677)">
                        <path class="typst-shape" fill="none" stroke="#e6e6e6" stroke-width="0.5" stroke-linecap="butt" stroke-linejoin="miter" stroke-miterlimit="4" d="M 0 0 L 170.07874 0 "/>
                    </g>
                    <g transform="translate(0 28.346456692913385)">
                        <path class="typst-shape" fill="none" stroke="#e6e6e6" stroke-width="0.5" stroke-linecap="butt" stroke-linejoin="miter" stroke-miterlimit="4" d="M 0 0 L 170.07874 0 "/>
                    </g>
                    <g transform="translate(0 0)">
                        <path class="typst-shape" fill="none" stroke="#e6e6e6" stroke-width="0.5" stroke-linecap="butt" stroke-linejoin="miter" stroke-miterlimit="4" d="M 0 170.07874 L 170.07874 170.07874 L 170.07874 0 L 0 0 L 0 170.07874 Z "/>
                    </g>
                    <g transform="translate(0 85.03937007874016)">
                        <path class="typst-shape" fill="none" stroke="#000000" stroke-width="0.5" stroke-linecap="butt" stroke-linejoin="miter" stroke-miterlimit="4" d="M 0 0 L 68.74016 0 "/>
                    </g>
                    <g transform="translate(101.33858267716535 85.03937007874016)">
                        <path class="typst-shape" fill="none" stroke="#000000" stroke-width="0.5" stroke-linecap="butt" stroke-linejoin="miter" stroke-miterlimit="4" d="M 0 0 L 68.74016 0 "/>
                    </g>
                    <g transform="translate(68.74015748031496 75.11811023622047)">
                        <path class="typst-shape" fill="none" stroke="#000000" stroke-width="0.8" stroke-linecap="butt" stroke-linejoin="miter" stroke-miterlimit="4" d="M 9.92126 0 C 4.4468675 0 0 4.4468675 0 9.92126 C 0 15.395652 4.4468675 19.84252 9.92126 19.84252 C 15.395652 19.84252 19.84252 15.395652 19.84252 9.92126 C 19.84252 4.4468675 15.395652 0 9.92126 0 Z "/>
                    </g>
                    <g transform="translate(81.49606299212599 75.11811023622047)">
                        <path class="typst-shape" fill="none" stroke="#000000" stroke-width="0.8" stroke-linecap="butt" stroke-linejoin="miter" stroke-miterlimit="4" d="M 9.92126 0 C 4.4468675 0 0 4.4468675 0 9.92126 C 0 15.395652 4.4468675 19.84252 9.92126 19.84252 C 15.395652 19.84252 19.84252 15.395652 19.84252 9.92126 C 19.84252 4.4468675 15.395652 0 9.92126 0 Z "/>
                    </g>
                </g>
            </g>
        </g>
    </g>
</svg>
