<svg xmlns="http://www.w3.org/2000/svg" xmlns:xlink="http://www.w3.org/1999/xlink" width="224.105" height="224.105" class="typst-doc" viewBox="0 0 168.079 168.079"><path fill="#fff" d="M0 0v168.079h168.079V0Z" class="typst-shape"/><g class="typst-group"><path fill="none" stroke="#e6e6e6" stroke-width=".5" d="M27.346 169.079V-1M55.693 169.079V-1M84.04 169.079V-1M112.386 169.079V-1M140.732 169.079V-1M-1 140.732h170.079M-1 112.386h170.079M-1 84.04h170.079M-1 55.693h170.079M-1 27.346h170.079M-1 169.079h170.079V-1H-1z" class="typst-shape"/><path fill="none" stroke="#000" stroke-width=".5" d="M55.693 72.7H-86.04M55.693 84.04H-86.04M55.693 95.378H-86.04M112.386 72.7h141.732M112.386 84.04h141.732" class="typst-shape"/><path fill="#fff" stroke="#000" stroke-width=".8" d="M55.693 61.362v45.355h56.693V61.362z" class="typst-shape"/><path fill="none" d="M55.693 63.401h16.453v18.6H55.693z" class="typst-shape"/><g class="typst-group"><g class="typst-group"><use xlink:href="#a" class="typst-text" transform="matrix(1 0 0 -1 61.362 76.309)"/></g></g><path fill="none" d="M55.693 74.74h16.453V93.34H55.693z" class="typst-shape"/><g class="typst-group"><g class="typst-group"><use xlink:href="#b" class="typst-text" transform="matrix(1 0 0 -1 61.362 87.647)"/></g></g><path fill="none" d="M55.693 86.035h16.453v18.686H55.693z" class="typst-shape"/><g class="typst-group"><g class="typst-group"><use xlink:href="#c" class="typst-text" transform="matrix(1 0 0 -1 61.362 98.942)"/></g></g><path fill="none" d="M95.932 63.401h16.454v18.6H95.932z" class="typst-shape"/><g class="typst-group"><g class="typst-group"><use xlink:href="#d" class="typst-text" transform="matrix(1 0 0 -1 101.602 76.309)"/></g></g><path fill="none" d="M95.932 74.69h16.454v18.698H95.932z" class="typst-shape"/><g class="typst-group"><g class="typst-group"><use xlink:href="#e" class="typst-text" transform="matrix(1 0 0 -1 101.602 87.598)"/></g></g></g><defs><symbol id="a" overflow="visible"><path d="M3.168 1.342v3.817c0 .66.011 1.331.033 1.474 0 .055-.022.055-.066.055-.605-.374-1.188-.649-2.156-1.1.022-.121.066-.231.165-.297.506.209.748.275.957.275.187 0 .22-.264.22-.638V1.342c0-.913-.297-.968-1.067-1.001-.066-.066-.066-.297 0-.363.539.011.935.022 1.529.022.528 0 .792-.011 1.342-.022.066.066.066.297 0 .363-.77.033-.957.088-.957 1.001"/></symbol><symbol id="b" overflow="visible"><path d="M.671 5.148c0-.231.209-.429.44-.429.187 0 .517.198.517.44 0 .088-.022.154-.044.231s-.088.176-.088.264c0 .275.286.671 1.089.671.396 0 .957-.275.957-1.331 0-.704-.253-1.276-.902-1.936l-.814-.803C.748 1.155.572.627.572-.022c0 0 .561.022.913.022H3.41c.352 0 .858-.022.858-.022.143.583.253 1.408.264 1.738-.066.055-.209.077-.319.055C4.026.99 3.839.715 3.443.715H1.485c0 .528.759 1.276.814 1.331L3.41 3.113c.627.605 1.1 1.089 1.1 1.925 0 1.188-.968 1.672-1.859 1.672-1.221 0-1.98-.902-1.98-1.562"/></symbol><symbol id="c" overflow="visible"><path d="M2.365 6.325c.473 0 .913-.286.913-.99 0-.55-.638-1.397-1.727-1.551l.055-.352c.187.022.385.022.528.022.627 0 1.441-.176 1.441-1.419 0-1.463-.979-1.76-1.364-1.76-.561 0-.66.253-.792.451-.11.154-.253.286-.473.286-.231 0-.462-.209-.462-.385 0-.44.924-.737 1.584-.737 1.309 0 2.475.847 2.475 2.299 0 1.199-.902 1.628-1.551 1.738l-.011.022c.902.429 1.155.88 1.155 1.463 0 .33-.077.594-.341.869-.242.242-.627.429-1.199.429C.979 6.71.517 5.654.517 5.291c0-.154.11-.374.374-.374.385 0 .429.363.429.572 0 .704.759.836 1.045.836"/></symbol><symbol id="d" overflow="visible"><path d="M4.73 2.409h-.913v3.212c0 .55 0 .979.022 1.067l-.022.022h-.352c-.077 0-.132-.066-.176-.121C2.596 5.742 1.32 3.927.308 2.354c.033-.165.099-.462.429-.462h2.244V.88c0-.506-.418-.506-.891-.539-.066-.066-.066-.297 0-.363.352.011.792.022 1.298.022.429 0 .847-.011 1.199-.022.066.066.066.297 0 .363-.539.044-.77.022-.77.539v1.012h.759c.154 0 .319.209.319.341 0 .11-.044.176-.165.176M2.981 5.577V2.409H.88c.561.902 1.342 2.134 2.101 3.168"/></symbol><symbol id="e" overflow="visible"><path d="M3.509 2.079c0-1.045-.55-1.815-1.21-1.815-.418 0-.561.275-.726.495-.143.187-.33.352-.561.352-.209 0-.418-.187-.418-.407 0-.451.935-.825 1.562-.825 1.364 0 2.332 1.012 2.332 2.398 0 1.067-.737 2.024-1.969 2.024-.473 0-.88-.099-1.078-.176l.22 1.837c.407-.044.759-.099 1.287-.099.33 0 .704.022 1.155.066l.176.748-.077.044C3.575 6.655 2.981 6.6 2.398 6.6c-.407 0-.803.022-1.188.055L.836 3.487c.583.22 1.001.264 1.397.264.715 0 1.276-.473 1.276-1.672"/></symbol></defs></svg>