<svg xmlns="http://www.w3.org/2000/svg" width="226.772" height="226.772" class="typst-doc" viewBox="0 0 170.079 170.079"><path fill="#fff" d="M0 0v170.079h170.079V0Z" class="typst-shape"/><g class="typst-group"><path fill="none" stroke="#e6e6e6" stroke-width=".5" d="M28.346 170.079V0M56.693 170.079V0M85.04 170.079V0M113.386 170.079V0M141.732 170.079V0M0 141.732h170.079M0 113.386h170.079M0 85.04h170.079M0 56.693h170.079M0 28.346h170.079M0 170.079h170.079V0H0z" class="typst-shape"/><path fill="none" stroke="#000" stroke-width=".5" d="M59.528 97.795H-82.205M59.528 72.283H-82.205M110.551 85.04h141.732" class="typst-shape"/><path fill="#fff" stroke="#000" stroke-width=".8" d="M59.528 60.236v49.607h51.023V60.236z" class="typst-shape"/><path fill="none" stroke="#000" stroke-width=".55" d="M63.496 72.283h7.937M63.496 97.795h7.937M67.465 101.764v-7.937" class="typst-shape"/></g></svg>