<svg xmlns="http://www.w3.org/2000/svg" width="224.105" height="224.105" class="typst-doc" viewBox="0 0 168.079 168.079"><path fill="#fff" d="M0 0v168.079h168.079V0Z" class="typst-shape"/><g class="typst-group"><path fill="none" stroke="#e6e6e6" stroke-width=".5" d="M27.346 169.079V-1M55.693 169.079V-1M84.04 169.079V-1M112.386 169.079V-1M140.732 169.079V-1M-1 140.732h170.079M-1 112.386h170.079M-1 84.04h170.079M-1 55.693h170.079M-1 27.346h170.079M-1 169.079h170.079V-1H-1z" class="typst-shape"/><path fill="none" stroke="#000" stroke-width=".5" d="M58.528 96.795H-83.205M58.528 71.283H-83.205M109.551 84.04h141.732" class="typst-shape"/><path fill="#fff" stroke="#000" stroke-width=".8" d="M58.528 59.236v49.607h51.023V59.236z" class="typst-shape"/><path fill="none" stroke="#000" stroke-width=".55" d="M62.496 71.283h7.937M62.496 96.795h7.937M66.465 100.764v-7.937" class="typst-shape"/></g></svg>