<svg xmlns="http://www.w3.org/2000/svg" width="226.772" height="226.772" class="typst-doc" viewBox="0 0 170.079 170.079"><path fill="#fff" d="M0 0v170.079h170.079V0Z" class="typst-shape"/><g class="typst-group"><path fill="none" stroke="#e6e6e6" stroke-width=".5" d="M28.346 170.079V0M56.693 170.079V0M85.04 170.079V0M113.386 170.079V0M141.732 170.079V0M0 141.732h170.079M0 113.386h170.079M0 85.04h170.079M0 56.693h170.079M0 28.346h170.079M0 170.079h170.079V0H0z" class="typst-shape"/><path fill="none" stroke="#000" stroke-width=".5" d="M85.04 70.925V-70.807M65.826 85.04H-75.906M85.04 99.154v141.732" class="typst-shape"/><path fill="none" stroke="#000" stroke-width=".8" d="M65.826 93.543V76.535" class="typst-shape"/><path fill="none" stroke="#000" stroke-width=".5" d="m65.826 88.44 19.213 10.714" class="typst-shape"/><path stroke="#000" stroke-width=".5" d="m77.908 95.178-5.987-.904 2.071-3.714z" class="typst-shape"/><path fill="none" stroke="#000" stroke-width=".5" d="M85.04 99.154ZM65.826 81.638l19.213-10.713" class="typst-shape"/></g></svg>