<svg xmlns="http://www.w3.org/2000/svg" width="226.772" height="226.772" class="typst-doc" viewBox="0 0 170.079 170.079"><path fill="#fff" d="M0 0v170.079h170.079V0Z" class="typst-shape"/><g class="typst-group"><path fill="none" stroke="#e6e6e6" stroke-width=".5" d="M28.346 170.079V0M56.693 170.079V0M85.04 170.079V0M113.386 170.079V0M141.732 170.079V0M0 141.732h170.079M0 113.386h170.079M0 85.04h170.079M0 56.693h170.079M0 28.346h170.079M0 170.079h170.079V0H0z" class="typst-shape"/><path fill="none" stroke="#000" stroke-width=".5" d="M85.04 100.134V-41.598M85.04 69.945v141.732M85.04 85.04H-56.694" class="typst-shape"/><path fill="none" stroke="#000" stroke-width=".8" d="M62.504 104.173v-9.638M62.504 89.858V80.22M62.504 75.543v-9.637" class="typst-shape"/><path fill="none" stroke="#000" stroke-width=".5" d="M85.04 85.04v15.094M85.04 69.945H62.503M85.04 100.134H62.503M62.504 85.04h22.535" class="typst-shape"/><path stroke="#000" stroke-width=".8" d="m76.606 85.04-5.669-2.127v4.252z" class="typst-shape"/><path fill="none" stroke="#000" stroke-width=".5" d="M56.87 69.945v30.189h-5.634" class="typst-shape"/></g></svg>