<svg xmlns="http://www.w3.org/2000/svg" xmlns:xlink="http://www.w3.org/1999/xlink" width="226.772" height="226.772" class="typst-doc" viewBox="0 0 170.079 170.079"><path fill="#fff" d="M0 0v170.079h170.079V0Z" class="typst-shape"/><g class="typst-group"><path fill="none" stroke="#e6e6e6" stroke-width=".5" d="M28.346 170.079V0M56.693 170.079V0M85.04 170.079V0M113.386 170.079V0M141.732 170.079V0M0 141.732h170.079M0 113.386h170.079M0 85.04h170.079M0 56.693h170.079M0 28.346h170.079M0 170.079h170.079V0H0z" class="typst-shape"/><path fill="none" stroke="#000" stroke-width=".5" d="M85.04 100.134V-41.598M85.04 69.945v141.732M85.04 85.04H-56.694" class="typst-shape"/><path fill="none" stroke="#000" stroke-width=".8" d="M62.504 104.173v-9.638M62.504 89.858V80.22M62.504 75.543v-9.637" class="typst-shape"/><path fill="none" stroke="#000" stroke-width=".5" d="M85.04 85.04v15.094M85.04 69.945H62.503M85.04 100.134H62.503M62.504 85.04h22.535" class="typst-shape"/><path stroke="#000" stroke-width=".8" d="m76.606 85.04-5.669-2.127v4.252z" class="typst-shape"/><path fill="none" stroke="#000" stroke-width=".5" d="M56.87 69.945v30.189h-5.634" class="typst-shape"/><path fill="none" stroke="#ff4136" stroke-width=".2" d="M85.04 69.245a.7.7 0 1 0 0 1.4.7.7 0 0 0 0-1.4Z" class="typst-shape"/><path fill="none" d="m84.52 64.328 3.046 1.759-2.007 3.475-3.046-1.759z" class="typst-shape"/><g class="typst-group"><g class="typst-group"><g class="typst-group"><use xlink:href="#a" fill="#ff4136" class="typst-text" transform="rotate(210 50.98 22.461)scale(-1 1)"/></g></g></g><path fill="none" stroke="#ff4136" stroke-width=".2" d="M85.04 99.434a.7.7 0 1 0 0 1.4.7.7 0 0 0 0-1.4Z" class="typst-shape"/><path fill="none" d="m84.668 94.608 2.745 1.585-2.002 3.467-2.745-1.585z" class="typst-shape"/><g class="typst-group"><g class="typst-group"><g class="typst-group"><use xlink:href="#b" fill="#ff4136" class="typst-text" transform="rotate(210 55.11 37.581)scale(-1 1)"/></g></g></g><path fill="none" stroke="#ff4136" stroke-width=".2" d="M85.04 84.34a.7.7 0 1 0 0 1.4.7.7 0 0 0 0-1.4Z" class="typst-shape"/><path fill="none" d="m84.618 79.485 2.844 1.642-2.002 3.467-2.844-1.642z" class="typst-shape"/><g class="typst-group"><g class="typst-group"><g class="typst-group"><use xlink:href="#c" fill="#ff4136" class="typst-text" transform="rotate(210 53.06 30.027)scale(-1 1)"/></g></g></g><path fill="none" stroke="#ff4136" stroke-width=".2" d="M62.504 84.34a.7.7 0 1 0 0 1.4.7.7 0 0 0 0-1.4Z" class="typst-shape"/><path fill="none" d="m62.16 79.134 3.031 1.75-2.344 4.06-3.03-1.75z" class="typst-shape"/><g class="typst-group"><g class="typst-group"><g class="typst-group"><use xlink:href="#d" fill="#ff4136" class="typst-text" transform="rotate(210 41.784 32.86)scale(-1 1)"/></g></g></g><path fill="none" stroke="#ff4136" stroke-width=".2" d="M73.772 84.34a.7.7 0 1 0 0 1.4.7.7 0 0 0 0-1.4Z" class="typst-shape"/><path fill="none" d="m70.591 77.892 8.363 4.828-2.002 3.467-8.363-4.828z" class="typst-shape"/><g class="typst-group"><g class="typst-group"><g class="typst-group"><g fill="#ff4136" class="typst-text" transform="rotate(210 45.833 31.11)scale(-1 1)"><use xlink:href="#c"/><use xlink:href="#e" x="1.284"/><use xlink:href="#f" x="2.625"/><use xlink:href="#g" x="4.251"/><use xlink:href="#e" x="5.199"/><use xlink:href="#h" x="6.54"/></g></g></g></g><path fill="none" stroke="#ff4136" stroke-width=".2" d="M85.04 84.34a.7.7 0 1 0 0 1.4.7.7 0 0 0 0-1.4Z" class="typst-shape"/><path fill="none" d="m83.083 78.598 5.915 3.415-2.002 3.468-5.915-3.415z" class="typst-shape"/><g class="typst-group"><g class="typst-group"><g class="typst-group"><g fill="#ff4136" class="typst-text" transform="rotate(210 52.173 29.789)scale(-1 1)"><use xlink:href="#e"/><use xlink:href="#i" x="1.341"/><use xlink:href="#b" x="2.712"/><use xlink:href="#g" x="3.882"/></g></g></g></g><path fill="none" stroke="#ff4136" stroke-width=".2" d="M85.04 69.245a.7.7 0 1 0 0 1.4.7.7 0 0 0 0-1.4Z" class="typst-shape"/><path fill="none" d="m79.692 61.546 12.696 7.33-2.002 3.468-12.696-7.33z" class="typst-shape"/><g class="typst-group"><g class="typst-group"><g class="typst-group"><g fill="#ff4136" class="typst-text" transform="rotate(30 -81.05 179.86)scale(1 -1)"><use xlink:href="#f"/><use xlink:href="#j" x="1.626"/><use xlink:href="#h" x="3.138"/><use xlink:href="#g" x="4.254"/><use xlink:href="#k" x="5.202"/><use xlink:href="#l" x="6.816"/><use xlink:href="#e" x="7.83"/><use xlink:href="#i" x="9.171"/><use xlink:href="#b" x="10.542"/><use xlink:href="#g" x="11.712"/></g></g></g></g><path fill="none" stroke="#ff4136" stroke-width=".2" d="M73.772 69.245a.7.7 0 1 0 0 1.4.7.7 0 0 0 0-1.4Z" class="typst-shape"/><path fill="none" d="m70.955 63.007 7.635 4.408-2.002 3.468-7.635-4.408z" class="typst-shape"/><g class="typst-group"><g class="typst-group"><g class="typst-group"><g fill="#ff4136" class="typst-text" transform="rotate(210 44.02 23.618)scale(-1 1)"><use xlink:href="#f"/><use xlink:href="#j" x="1.626"/><use xlink:href="#h" x="3.138"/><use xlink:href="#g" x="4.254"/><use xlink:href="#k" x="5.202"/></g></g></g></g><path fill="none" stroke="#ff4136" stroke-width=".2" d="M62.504 69.245a.7.7 0 1 0 0 1.4.7.7 0 0 0 0-1.4Z" class="typst-shape"/><path fill="none" d="m56.792 61.332 13.429 7.753-2.005 3.473-13.429-7.753z" class="typst-shape"/><g class="typst-group"><g class="typst-group"><g class="typst-group"><g fill="#ff4136" class="typst-text" transform="rotate(30 -92.1 137.02)scale(1 -1)"><use xlink:href="#f"/><use xlink:href="#j" x="1.626"/><use xlink:href="#h" x="3.138"/><use xlink:href="#g" x="4.254"/><use xlink:href="#k" x="5.202"/><use xlink:href="#l" x="6.816"/><use xlink:href="#m" x="7.83"/><use xlink:href="#e" x="10.047"/><use xlink:href="#b" x="11.388"/><use xlink:href="#g" x="12.558"/></g></g></g></g><path fill="none" stroke="#ff4136" stroke-width=".2" d="M62.504 84.34a.7.7 0 1 0 0 1.4.7.7 0 0 0 0-1.4Z" class="typst-shape"/><path fill="none" d="m60.183 78.384 6.647 3.838-2.005 3.473-6.647-3.838z" class="typst-shape"/><g class="typst-group"><g class="typst-group"><g class="typst-group"><g fill="#ff4136" class="typst-text" transform="rotate(210 40.694 32.75)scale(-1 1)"><use xlink:href="#m"/><use xlink:href="#e" x="2.217"/><use xlink:href="#b" x="3.558"/><use xlink:href="#g" x="4.728"/></g></g></g></g><path fill="none" stroke="#ff4136" stroke-width=".2" d="M62.504 99.434a.7.7 0 1 0 0 1.4.7.7 0 0 0 0-1.4Z" class="typst-shape"/><path fill="none" d="m56.784 91.514 13.447 7.764-2.007 3.475-13.447-7.763z" class="typst-shape"/><g class="typst-group"><g class="typst-group"><g class="typst-group"><g fill="#ff4136" class="typst-text" transform="rotate(210 40.754 39.77)scale(-1 1)"><use xlink:href="#b"/><use xlink:href="#j" x="1.17"/><use xlink:href="#n" x="2.682"/><use xlink:href="#g" x="4.275"/><use xlink:href="#k" x="5.223"/><use xlink:href="#l" x="6.837"/><use xlink:href="#m" x="7.851"/><use xlink:href="#e" x="10.068"/><use xlink:href="#b" x="11.409"/><use xlink:href="#g" x="12.579"/></g></g></g></g><path fill="none" stroke="#ff4136" stroke-width=".2" d="M73.772 99.434a.7.7 0 1 0 0 1.4.7.7 0 0 0 0-1.4Z" class="typst-shape"/><path fill="none" d="m70.948 93.187 7.653 4.418-2.006 3.476-7.653-4.419z" class="typst-shape"/><g class="typst-group"><g class="typst-group"><g class="typst-group"><g fill="#ff4136" class="typst-text" transform="rotate(210 48.06 38.71)scale(-1 1)"><use xlink:href="#b"/><use xlink:href="#j" x="1.17"/><use xlink:href="#n" x="2.682"/><use xlink:href="#g" x="4.275"/><use xlink:href="#k" x="5.223"/></g></g></g></g><path fill="none" stroke="#ff4136" stroke-width=".2" d="M85.04 99.434a.7.7 0 1 0 0 1.4.7.7 0 0 0 0-1.4Z" class="typst-shape"/><path fill="none" d="m79.686 91.726 12.714 7.34-2.007 3.476-12.714-7.34z" class="typst-shape"/><g class="typst-group"><g class="typst-group"><g class="typst-group"><g fill="#ff4136" class="typst-text" transform="rotate(210 52.233 36.808)scale(-1 1)"><use xlink:href="#b"/><use xlink:href="#j" x="1.17"/><use xlink:href="#n" x="2.682"/><use xlink:href="#g" x="4.275"/><use xlink:href="#k" x="5.223"/><use xlink:href="#l" x="6.837"/><use xlink:href="#e" x="7.851"/><use xlink:href="#i" x="9.192"/><use xlink:href="#b" x="10.563"/><use xlink:href="#g" x="11.733"/></g></g></g></g></g><defs><symbol id="a" overflow="visible"><path d="M1.002.15c.015.012.042.018.045-.003.009-.072.033-.177.033-.177a.08.08 0 0 1 .057 0c.066.054.171.099.354.12.018.018.018.063 0 .081-.192.015-.219.072-.219.219v1.359c0 .195.012.315.012.315q0 .03-.039.03c-.075-.03-.3-.072-.42-.081-.006-.024 0-.072.018-.09H.87c.132-.009.165-.009.165-.246v-.384c0-.021-.006-.027-.027-.027-.012 0-.135.051-.234.051a.6.6 0 0 1-.45-.18.72.72 0 0 1-.207-.528c0-.369.186-.639.51-.639.117 0 .228.06.375.18m.033.222c0-.057-.006-.081-.048-.117Q.819.111.705.111c-.162 0-.33.177-.33.552 0 .216.042.336.087.399.093.141.219.15.279.15a.3.3 0 0 0 .243-.108c.042-.048.051-.069.051-.162Z"/></symbol><symbol id="b" overflow="visible"><path d="M.144.414C.156.267.165.126.165 0c.03.006.06.009.075.009Q.27.01.3.003A1 1 0 0 1 .573-.03c.168 0 .477.081.477.378 0 .204-.147.324-.351.399-.18.069-.3.114-.3.279 0 .123.108.192.21.192.066 0 .24-.024.279-.279C.906.921.966.924.984.942c.009.108.015.219.018.318-.093.015-.237.057-.393.057-.222 0-.423-.144-.423-.336 0-.219.099-.312.33-.408C.765.471.822.408.822.279c0-.147-.144-.21-.255-.21C.45.069.384.108.354.141.288.21.255.342.237.417.219.435.162.432.144.414"/></symbol><symbol id="c" overflow="visible"><path d="M1.194.273c-.012.027-.036.039-.063.042a.46.46 0 0 0-.36-.198C.552.117.369.339.369.69c0 .33.144.528.342.528.177 0 .201-.105.213-.21C.933.927.975.9 1.038.9s.147.039.147.132c0 .165-.171.285-.459.285-.297 0-.615-.267-.615-.693 0-.387.216-.654.594-.654.18 0 .339.057.489.303"/></symbol><symbol id="d" overflow="visible"><path d="M1.332 1.161c.057 0 .111.054.111.114 0 .063-.057.111-.138.111a.43.43 0 0 1-.3-.153.54.54 0 0 1-.312.084c-.267 0-.513-.18-.513-.456C.18.699.252.606.336.525A.43.43 0 0 1 .204.222c0-.108.06-.192.138-.231C.18-.105.096-.243.096-.372c0-.261.246-.342.477-.342.405 0 .843.195.843.519 0 .096-.045.171-.132.243C1.167.144.957.147.846.147.792.147.717.141.645.132L.555.126C.468.126.363.168.363.297c0 .06.018.123.054.174A.5.5 0 0 1 .69.408c.264 0 .507.165.507.459a.4.4 0 0 1-.129.312c.021.03.081.072.12.072.021 0 .042-.009.06-.036.012-.024.051-.054.084-.054M.396-.03a.5.5 0 0 1 .12-.015c.093 0 .177.009.219.009.15 0 .276-.003.363-.051.117-.066.153-.108.153-.186 0-.216-.318-.33-.588-.33-.108 0-.36.087-.36.291 0 .102.006.177.093.282m.561.867C.957.558.816.501.705.501.453.501.426.714.426.906c0 .21.075.318.24.318.189 0 .291-.138.291-.387"/></symbol><symbol id="e" overflow="visible"><path d="M1.158.279A.45.45 0 0 0 .786.117C.678.117.552.18.459.333a.8.8 0 0 0-.096.411l.798-.006q.055 0 .057.051c0 .252-.09.522-.507.522-.261 0-.6-.249-.6-.705 0-.168.042-.33.141-.444C.354.042.495-.03.711-.03c.228 0 .39.105.51.261-.009.03-.027.045-.063.048M.372.846c.057.339.267.366.339.366.114 0 .249-.063.249-.315C.96.87.948.855.915.855Z"/></symbol><symbol id="f" overflow="visible"><path d="M.552 1.074c-.018-.021-.036-.027-.036 0a1 1 0 0 1-.024.228c-.006.015-.012.024-.036.024a1.3 1.3 0 0 0-.369-.087.2.2 0 0 1 .006-.084c.162-.015.195-.03.195-.204V.366C.288.12.258.108.078.093.06.075.06.012.078-.006a10 10 0 0 0 .63 0c.018.018.018.081 0 .099C.555.108.525.12.525.366v.492c0 .063.027.099.051.126.114.111.249.177.366.177.06 0 .123-.039.159-.108a.5.5 0 0 0 .036-.231V.366c0-.246-.03-.258-.186-.273C.936.075.936.012.951-.006a9 9 0 0 0 .624 0c.015.018.015.081 0 .099-.168.015-.201.027-.201.273v.447c0 .165-.012.309-.081.402-.051.066-.144.102-.249.102-.147 0-.315-.039-.492-.243"/></symbol><symbol id="g" overflow="visible"><path d="M.129 1.287c-.042 0-.054-.036-.054-.06v-.039c0-.015.003-.018.015-.018h.177V.267C.267.054.36-.03.498-.03s.288.066.405.198Q.894.214.849.219A.4.4 0 0 0 .603.135c-.081 0-.099.09-.099.276v.759h.312c.03 0 .072.012.072.039v.06q0 .018-.024.018h-.36v.117c0 .195.012.315.012.315q0 .027-.024.027a.2.2 0 0 1-.066-.027.4.4 0 0 0-.102-.042c-.036-.012-.066-.021-.066-.042 0-.036.009-.015.009-.348Z"/></symbol><symbol id="h" overflow="visible"><path d="M.528 1.074c-.006.12-.009.198-.024.228-.006.015-.012.024-.036.024a1.3 1.3 0 0 0-.369-.087.2.2 0 0 1 .006-.084C.267 1.14.3 1.125.3.951V.366C.3.117.264.105.078.093.06.075.06.012.078-.006a12 12 0 0 0 .705 0c.018.018.018.081 0 .099C.573.108.537.117.537.366v.417a.37.37 0 0 0 .072.201c.033.048.102.147.138.147a.09.09 0 0 0 .078-.039c.021-.03.057-.069.108-.069.072 0 .141.075.141.15 0 .057-.054.144-.18.144-.141 0-.264-.132-.333-.249-.018-.033-.033-.009-.033.006"/></symbol><symbol id="i" overflow="visible"><path d="M.879.144C.897.051.93-.03 1.08-.03c.114 0 .222.051.285.111-.006.036-.018.063-.051.081a.2.2 0 0 0-.111-.048c-.087 0-.09.117-.09.255V.81c0 .426-.234.507-.453.507-.246 0-.495-.162-.495-.333q0-.108.105-.108c.087 0 .141.063.141.102a.14.14 0 0 1-.009.054.2.2 0 0 0-.006.06c0 .093.126.126.24.126.102 0 .243-.051.243-.39C.879.807.87.795.861.792L.603.729C.315.657.108.498.108.294c0-.246.168-.324.378-.324.105 0 .195.024.327.126l.06.048Zm0 .555V.303C.879.264.861.243.837.225.759.162.657.093.573.093a.21.21 0 0 0-.216.213c0 .135.063.273.285.33Z"/></symbol><symbol id="j" overflow="visible"><path d="M.123.615c0-.306.204-.645.63-.645.192 0 .339.069.441.168a.7.7 0 0 1 .195.504c0 .312-.171.675-.63.675a.6.6 0 0 1-.471-.21.76.76 0 0 1-.165-.492m.591.597c.258 0 .417-.234.417-.666C1.131.168.936.075.795.075.483.075.381.453.381.684c0 .261.063.528.333.528"/></symbol><symbol id="k" overflow="visible"><path d="M.501.858c0 .063.027.099.051.126a.6.6 0 0 0 .384.177c.06 0 .123-.039.159-.108a.5.5 0 0 0 .036-.231V.366c0-.246-.03-.258-.186-.273C.93.075.93.012.945-.006q.126.005.306.006c.12 0 .219-.003.318-.006.015.018.015.081 0 .099-.168.015-.201.027-.201.273v.447c0 .165-.012.312-.081.402-.051.066-.144.102-.249.102-.147 0-.327-.039-.51-.243q0-.003-.006-.006c-.009-.012-.024-.03-.024.006l.003.675c0 .195.012.315.012.315q0 .03-.039.03c-.075-.03-.3-.072-.42-.081-.006-.024 0-.072.018-.09h.027c.132-.009.165-.009.165-.246V.366C.264.117.228.105.054.093.036.075.036.012.054-.006q.15.005.33.006.171 0 .297-.006c.018.018.018.081 0 .099-.153.012-.18.024-.18.273Z"/></symbol><symbol id="l" overflow="visible"><path d="M.813.669c.039 0 .081.084.081.12 0 .03-.012.06-.042.06H.195C.159.849.12.78.12.726c0-.03.018-.057.045-.057Z"/></symbol><symbol id="m" overflow="visible"><path d="M.609 1.194c.018.018.018.081 0 .099a6.494 6.494 0 0 0-.576 0c-.018-.018-.018-.081 0-.099.141-.015.174-.045.237-.201L.663.024q.027-.061.072-.06c.027 0 .051.018.072.066l.303.738.309-.744q.027-.061.072-.06c.027 0 .051.018.069.063l.393.951c.048.123.099.207.252.216.018.018.018.081 0 .099a4 4 0 0 0-.216-.006c-.09 0-.216.003-.306.006-.018-.018-.018-.081 0-.099.225-.012.195-.099.153-.204L1.584.366c-.03-.075-.042-.075-.066-.012l-.258.657c-.057.141-.051.171.108.183.018.018.018.081 0 .099-.09-.003-.21-.006-.3-.006-.075 0-.174.003-.264.006-.018-.018-.018-.081 0-.099.141-.012.177-.099.231-.234l.018-.048-.21-.531C.804.282.798.279.759.375l-.24.618c-.057.144-.054.192.09.201"/></symbol><symbol id="n" overflow="visible"><path d="M.651-.03c.117 0 .258.06.405.18.015.012.042.018.045-.003a2 2 0 0 1 .033-.177.08.08 0 0 1 .057 0c.066.054.171.099.354.12.018.018.018.063 0 .081-.192.015-.219.072-.219.219v.576c0 .09.012.309.012.309 0 .009-.009.018-.024.018a1 1 0 0 0-.105-.006c-.096 0-.204.003-.306.006-.018-.018-.018-.081 0-.099.147-.009.186-.045.186-.243V.372c0-.057-.006-.081-.048-.117C.93.159.816.111.741.111c-.09 0-.24.042-.24.309v.546c0 .09.012.309.012.309 0 .009-.009.018-.024.018a1 1 0 0 0-.105-.006c-.096 0-.204.003-.306.006-.018-.018-.018-.081 0-.099.144-.012.186-.045.186-.24V.378c0-.207.09-.408.387-.408"/></symbol></defs></svg>