<svg xmlns="http://www.w3.org/2000/svg" width="224.105" height="224.105" class="typst-doc" viewBox="0 0 168.079 168.079"><path fill="#fff" d="M0 0v168.079h168.079V0Z" class="typst-shape"/><g class="typst-group"><path fill="none" stroke="#e6e6e6" stroke-width=".5" d="M27.346 169.079V-1M55.693 169.079V-1M84.04 169.079V-1M112.386 169.079V-1M140.732 169.079V-1M-1 140.732h170.079M-1 112.386h170.079M-1 84.04h170.079M-1 55.693h170.079M-1 27.346h170.079M-1 169.079h170.079V-1H-1z" class="typst-shape"/><path fill="none" stroke="#000" stroke-width=".5" d="M84.04 68.945V-72.787M84.04 99.134v141.732M84.04 84.04H-57.694" class="typst-shape"/><path fill="none" stroke="#000" stroke-width=".8" d="M61.504 103.173v-9.638M61.504 88.858V79.22M61.504 74.543v-9.637" class="typst-shape"/><path fill="none" stroke="#000" stroke-width=".5" d="M84.04 84.04v15.094M84.04 68.945H61.503M84.04 99.134H61.503M61.504 84.04h22.535" class="typst-shape"/><path stroke="#000" stroke-width=".8" d="m69.937 84.04 5.67-2.127v4.252z" class="typst-shape"/><path fill="none" stroke="#000" stroke-width=".5" d="M55.87 68.945v30.189h-5.634" class="typst-shape"/></g></svg>