<svg xmlns="http://www.w3.org/2000/svg" xmlns:xlink="http://www.w3.org/1999/xlink" width="226.772" height="226.772" class="typst-doc" viewBox="0 0 170.079 170.079"><path fill="#fff" d="M0 0v170.079h170.079V0Z" class="typst-shape"/><g class="typst-group"><path fill="none" stroke="#e6e6e6" stroke-width=".5" d="M28.346 170.079V0M56.693 170.079V0M85.04 170.079V0M113.386 170.079V0M141.732 170.079V0M0 141.732h170.079M0 113.386h170.079M0 85.04h170.079M0 56.693h170.079M0 28.346h170.079M0 170.079h170.079V0H0z" class="typst-shape"/><path fill="none" stroke="#000" stroke-width=".5" d="M0 85.04h71.717M98.362 85.04h71.717" class="typst-shape"/><path fill="#fff" stroke="#000" stroke-width=".8" d="M85.04 71.717c-7.352 0-13.323 5.971-13.323 13.322 0 7.352 5.971 13.323 13.322 13.323 7.352 0 13.323-5.971 13.323-13.323 0-7.351-5.971-13.322-13.323-13.322Z" class="typst-shape"/><path fill="none" d="M81.453 81.354h7.172v7.37h-7.172z" class="typst-shape"/><g class="typst-group"><g class="typst-group"><use xlink:href="#a" class="typst-text" transform="matrix(1 0 0 -1 81.453 88.592)"/></g></g></g><defs><symbol id="a" overflow="visible"><path d="M4.928 6.754c.814-.055.814-.352.583-.946L3.773 1.397h-.044l-1.76 4.477c-.253.66-.187.803.561.88.066.066.066.297 0 .363-.44-.011-.935-.022-1.331-.022s-.781.011-1.144.022C-.011 7.051 0 6.82.066 6.754c.605-.055.693-.242.99-1.001L3.223.121c.066-.176.143-.253.253-.253.121 0 .198.099.264.253l2.277 5.61c.209.517.385.946 1.078 1.023.066.066.066.297 0 .363-.33-.011-.715-.022-.968-.022s-.748.011-1.199.022c-.066-.066-.066-.297 0-.363"/></symbol></defs></svg>