<svg xmlns="http://www.w3.org/2000/svg" xmlns:xlink="http://www.w3.org/1999/xlink" width="224.105" height="224.105" class="typst-doc" viewBox="0 0 168.079 168.079"><path fill="#fff" d="M0 0v168.079h168.079V0Z" class="typst-shape"/><g class="typst-group"><path fill="none" stroke="#e6e6e6" stroke-width=".5" d="M27.346 169.079V-1M55.693 169.079V-1M84.04 169.079V-1M112.386 169.079V-1M140.732 169.079V-1M-1 140.732h170.079M-1 112.386h170.079M-1 84.04h170.079M-1 55.693h170.079M-1 27.346h170.079M-1 169.079h170.079V-1H-1z" class="typst-shape"/><path fill="none" stroke="#000" stroke-width=".5" d="M-1 84.04h71.717M97.362 84.04h71.717" class="typst-shape"/><path fill="#fff" stroke="#000" stroke-width=".8" d="M84.04 70.717c-7.352 0-13.323 5.971-13.323 13.322 0 7.352 5.971 13.323 13.322 13.323 7.352 0 13.323-5.971 13.323-13.323 0-7.351-5.971-13.322-13.323-13.322Z" class="typst-shape"/><path fill="none" d="M80.217 80.41h7.645v7.26h-7.645z" class="typst-shape"/><g class="typst-group"><g class="typst-group"><use xlink:href="#a" class="typst-text" transform="matrix(1 0 0 -1 80.217 87.647)"/></g></g></g><defs><symbol id="a" overflow="visible"><path d="m1.705.869.605 1.595c.055.143.121.187.385.187h2.321L5.654.792C5.786.418 5.368.374 4.84.341c-.066-.066-.066-.297 0-.363C5.247-.011 5.852 0 6.281 0c.451 0 .869-.011 1.254-.022.066.066.066.297 0 .363-.429.044-.803.077-.99.605L4.279 7.238c-.165-.099-.462-.22-.605-.22L1.177 1.122C.891.44.561.374.077.341.011.275.011.044.077-.022.363-.011.726 0 1.056 0c.451 0 1.001-.011 1.408-.022.066.066.066.297 0 .363-.418.033-.935.077-.759.528m1.188 2.244c-.242 0-.319.033-.275.143L3.74 6.105h.066L4.84 3.113Z"/></symbol></defs></svg>