<svg xmlns="http://www.w3.org/2000/svg" xmlns:xlink="http://www.w3.org/1999/xlink" width="226.772" height="226.772" class="typst-doc" viewBox="0 0 170.079 170.079"><path fill="#fff" d="M0 0v170.079h170.079V0Z" class="typst-shape"/><g class="typst-group"><path fill="none" stroke="#e6e6e6" stroke-width=".5" d="M28.346 170.079V0M56.693 170.079V0M85.04 170.079V0M113.386 170.079V0M141.732 170.079V0M0 141.732h170.079M0 113.386h170.079M0 85.04h170.079M0 56.693h170.079M0 28.346h170.079M0 170.079h170.079V0H0z" class="typst-shape"/><path fill="none" stroke="#000" stroke-width=".5" d="M0 85.04h71.717M98.362 85.04h71.717" class="typst-shape"/><path fill="#fff" stroke="#000" stroke-width=".8" d="M85.04 71.717c-7.352 0-13.323 5.971-13.323 13.322 0 7.352 5.971 13.323 13.322 13.323 7.352 0 13.323-5.971 13.323-13.323 0-7.351-5.971-13.322-13.323-13.322Z" class="typst-shape"/><path fill="none" d="M81.068 81.283h7.942v7.513h-7.942z" class="typst-shape"/><g class="typst-group"><g class="typst-group"><use xlink:href="#a" class="typst-text" transform="matrix(1 0 0 -1 81.068 88.796)"/></g></g></g><defs><symbol id="a" overflow="visible"><path d="M2.937.275c0 .528-.198 1.342-.583 2.431-.363.979-.539 1.738-.539 2.288 0 1.342.836 2.431 2.145 2.431s2.156-1.089 2.156-2.431c0-.539-.209-1.386-.616-2.519-.341-.968-.506-1.705-.506-2.2 0-.264.044-.275.319-.275h1.771l.374 1.848h-.363a7 7 0 0 0-.198-.825c-.044-.121-.143-.187-.286-.22-.033-.011-.165-.011-.396-.011h-.814q.165.627.957 1.782.957 1.435.957 2.409c0 .825-.363 1.507-1.078 2.046-.649.484-1.408.726-2.266.726q-1.303 0-2.277-.726C.979 6.501.616 5.819.616 4.983q0-.957.957-2.409c.418-.616.781-1.155.957-1.782h-.814c-.374 0-.594.055-.649.154-.11.352-.187.649-.231.902H.473L.847 0h1.782c.253 0 .308.022.308.275"/></symbol></defs></svg>