<svg xmlns="http://www.w3.org/2000/svg" xmlns:xlink="http://www.w3.org/1999/xlink" width="224.105" height="224.105" class="typst-doc" viewBox="0 0 168.079 168.079"><path fill="#fff" d="M0 0v168.079h168.079V0Z" class="typst-shape"/><g class="typst-group"><path fill="none" stroke="#e6e6e6" stroke-width=".5" d="M27.346 169.079V-1M55.693 169.079V-1M84.04 169.079V-1M112.386 169.079V-1M140.732 169.079V-1M-1 140.732h170.079M-1 112.386h170.079M-1 84.04h170.079M-1 55.693h170.079M-1 27.346h170.079M-1 169.079h170.079V-1H-1z" class="typst-shape"/><path fill="none" stroke="#000" stroke-width=".5" d="M-1 84.04h71.717M97.362 84.04h71.717" class="typst-shape"/><path fill="#fff" stroke="#000" stroke-width=".8" d="M84.04 70.717c-7.352 0-13.323 5.971-13.323 13.322 0 7.352 5.971 13.323 13.322 13.323 7.352 0 13.323-5.971 13.323-13.323 0-7.351-5.971-13.322-13.323-13.322Z" class="typst-shape"/><path fill="none" d="M80.068 80.283h7.942v7.513h-7.942z" class="typst-shape"/><g class="typst-group"><g class="typst-group"><use xlink:href="#a" class="typst-text" transform="matrix(1 0 0 -1 80.068 87.796)"/></g></g></g><defs><symbol id="a" overflow="visible"><path d="M2.937.275c0 .528-.198 1.342-.583 2.431-.363.979-.539 1.738-.539 2.288 0 1.342.836 2.431 2.145 2.431s2.156-1.089 2.156-2.431c0-.539-.209-1.386-.616-2.519-.341-.968-.506-1.705-.506-2.2 0-.264.044-.275.319-.275h1.771l.374 1.848h-.363a7 7 0 0 0-.198-.825c-.044-.121-.143-.187-.286-.22-.033-.011-.165-.011-.396-.011h-.814q.165.627.957 1.782.957 1.435.957 2.409c0 .825-.363 1.507-1.078 2.046-.649.484-1.408.726-2.266.726q-1.303 0-2.277-.726C.979 6.501.616 5.819.616 4.983q0-.957.957-2.409c.418-.616.781-1.155.957-1.782h-.814c-.374 0-.594.055-.649.154-.11.352-.187.649-.231.902H.473L.847 0h1.782c.253 0 .308.022.308.275"/></symbol></defs></svg>