<svg xmlns="http://www.w3.org/2000/svg" xmlns:xlink="http://www.w3.org/1999/xlink" width="224.105" height="224.105" class="typst-doc" viewBox="0 0 168.079 168.079"><path fill="#fff" d="M0 0v168.079h168.079V0Z" class="typst-shape"/><g class="typst-group"><path fill="none" stroke="#e6e6e6" stroke-width=".5" d="M27.346 169.079V-1M55.693 169.079V-1M84.04 169.079V-1M112.386 169.079V-1M140.732 169.079V-1M-1 140.732h170.079M-1 112.386h170.079M-1 84.04h170.079M-1 55.693h170.079M-1 27.346h170.079M-1 169.079h170.079V-1H-1z" class="typst-shape"/><path fill="none" stroke="#000" stroke-width=".5" d="M-1 84.04h71.717M97.362 84.04h71.717" class="typst-shape"/><path fill="#fff" stroke="#000" stroke-width=".8" d="M84.04 70.717c-7.352 0-13.323 5.971-13.323 13.322 0 7.352 5.971 13.323 13.322 13.323 7.352 0 13.323-5.971 13.323-13.323 0-7.351-5.971-13.322-13.323-13.322Z" class="typst-shape"/><path fill="none" d="M78.809 80.354h10.46v7.37H78.81z" class="typst-shape"/><g class="typst-group"><g class="typst-group"><use xlink:href="#a" class="typst-text" transform="matrix(1 0 0 -1 78.809 87.592)"/></g></g></g><defs><symbol id="a" overflow="visible"><path d="M8.91 6.215 7.194 1.441l-.033.011-1.518 4.642c-.187.594.198.627.572.66.066.066.066.297 0 .363a58 58 0 0 0-1.375-.022c-.363 0-.748.011-1.1.022-.066-.066-.066-.297 0-.363.583-.033.825-.374.924-.66l.253-.726a1.1 1.1 0 0 0 .077-.341c0-.11-.011-.198-.099-.385L3.476 1.419l-.055.011-1.606 4.862c-.132.385.165.44.55.462.066.066.066.297 0 .363a45 45 0 0 0-1.276-.022c-.385 0-.704.011-1.023.022C0 7.051 0 6.82.066 6.754c.495-.033.572-.044.781-.638L2.915.165c.055-.176.121-.297.242-.297.143 0 .209.11.286.297L5.082 3.85c.099.22.132.275.187.275.044 0 .088-.121.154-.308L6.688.165c.066-.187.121-.297.253-.297.121 0 .198.121.253.286l2.211 5.929c.143.385.341.638.946.671.066.066.066.297 0 .363a30 30 0 0 0-.957-.022c-.286 0-.77.011-1.21.022-.066-.066-.066-.297 0-.363.451-.033.891-.066.726-.539"/></symbol></defs></svg>