<svg xmlns="http://www.w3.org/2000/svg" width="224.105" height="224.105" class="typst-doc" viewBox="0 0 168.079 168.079"><path fill="#fff" d="M0 0v168.079h168.079V0Z" class="typst-shape"/><g fill="none" class="typst-group"><path stroke="#e6e6e6" stroke-width=".5" d="M27.346 169.079V-1M55.693 169.079V-1M84.04 169.079V-1M112.386 169.079V-1M140.732 169.079V-1M-1 140.732h170.079M-1 112.386h170.079M-1 84.04h170.079M-1 55.693h170.079M-1 27.346h170.079M-1 169.079h170.079V-1H-1z" class="typst-shape"/><path stroke="#000" stroke-width=".5" d="M-1 84.04h73.7M95.378 84.04h73.7" class="typst-shape"/><path stroke="#000" stroke-width=".8" d="m95.378 84.039-22.677-9.626M72.701 74.413l-2.61-1.107" class="typst-shape"/><path stroke="#000" stroke-dasharray="6.5 3" stroke-width=".8" d="M84.04 79.227v-15.03" class="typst-shape"/><path stroke="#000" stroke-width=".8" d="M79.362 68.732v-4.535h9.355v4.535M84.04 64.197v-3.402M84.039 51.44a4.68 4.68 0 0 0-4.677 4.678 4.68 4.68 0 0 0 4.677 4.677 4.68 4.68 0 0 0 4.678-4.677 4.68 4.68 0 0 0-4.678-4.677ZM87.347 52.81l-6.615 6.615M87.347 59.425l-6.615-6.614" class="typst-shape"/></g></svg>