<svg xmlns="http://www.w3.org/2000/svg" width="224.105" height="224.105" class="typst-doc" viewBox="0 0 168.079 168.079"><path fill="#fff" d="M0 0v168.079h168.079V0Z" class="typst-shape"/><g class="typst-group"><path fill="none" stroke="#e6e6e6" stroke-width=".5" d="M27.346 169.079V-1M55.693 169.079V-1M84.04 169.079V-1M112.386 169.079V-1M140.732 169.079V-1M-1 140.732h170.079M-1 112.386h170.079M-1 84.04h170.079M-1 55.693h170.079M-1 27.346h170.079M-1 169.079h170.079V-1H-1z" class="typst-shape"/><path fill="none" stroke="#000" stroke-width=".5" d="M69.016 84.04H-72.717M99.063 84.04h141.732M84.04 69.016V-72.717" class="typst-shape"/><path fill="#fff" stroke="#000" stroke-width=".8" d="M84.039 69.016c-8.29 0-15.023 6.734-15.023 15.023s6.734 15.024 15.023 15.024 15.024-6.734 15.024-15.024-6.734-15.023-15.024-15.023Z" class="typst-shape"/><path fill="none" stroke="#000" stroke-width=".8" d="M91.963 90.01c3.297-4.376 2.423-10.597-1.953-13.894s-10.597-2.423-13.894 1.953a9.9 9.9 0 0 0-1.717 8.315" class="typst-shape"/><path stroke="#000" stroke-width=".8" d="m77.498 90.977-4.68-3.841 3.68-2.13z" class="typst-shape"/></g></svg>