<svg xmlns="http://www.w3.org/2000/svg" xmlns:xlink="http://www.w3.org/1999/xlink" width="224.105" height="224.105" class="typst-doc" viewBox="0 0 168.079 168.079"><path fill="#fff" d="M0 0v168.079h168.079V0Z" class="typst-shape"/><g class="typst-group"><path fill="none" stroke="#e6e6e6" stroke-width=".5" d="M27.346 169.079V-1M55.693 169.079V-1M84.04 169.079V-1M112.386 169.079V-1M140.732 169.079V-1M-1 140.732h170.079M-1 112.386h170.079M-1 84.04h170.079M-1 55.693h170.079M-1 27.346h170.079M-1 169.079h170.079V-1H-1z" class="typst-shape"/><path fill="none" stroke="#000" stroke-width=".5" d="M99.63 84.04h141.732M68.449 77.661H-73.283M68.449 90.417H-73.283" class="typst-shape"/><path fill="#fff" stroke="#000" stroke-width=".8" d="M68.449 69.866v28.347h31.18V69.866z" class="typst-shape"/><path fill="none" d="M79.76 72.7h8.558v7.756H79.76z" class="typst-shape"/><g class="typst-group"><g class="typst-group"><use xlink:href="#a" class="typst-text" transform="matrix(1 0 0 -1 79.76 80.214)"/></g></g></g><defs><symbol id="a" overflow="visible"><path d="M1.782 6.083c0-.715.143-1.452.429-2.2l-.968-1.034C.946 2.53.759 2.31.693 2.211a1.4 1.4 0 0 1-.231-.781C.462.924.671.517 1.1.198c.385-.297.847-.44 1.375-.44.693 0 1.353.275 1.969.814.627-.539 1.265-.814 1.914-.814.935 0 1.562.715 1.573 1.639h-.352C7.568.99 7.436.682 7.194.484a1.25 1.25 0 0 0-.792-.297q-.66 0-1.452.924c.341.396.814 1.111 1.419 2.156.209.352.407.616.605.803s.539.275 1.023.275v.429l-1.1-.033c-.418-.011-.869 0-1.364.033v-.429c.517 0 .77-.143.77-.429l-.066-.198c-.561-.979-1.067-1.76-1.518-2.321-.528.638-1.386 1.925-1.749 2.827.253.286.462.517.605.704.473.583.715 1.089.715 1.496 0 .297-.066.605-.187.902-.143.363-.418.55-.803.55-.902 0-1.518-.858-1.518-1.793m1.54 1.463c.22 0 .374-.11.462-.352s.143-.495.143-.759c0-.451-.363-1.067-1.078-1.859a5.7 5.7 0 0 0-.297 1.76c0 .605.231 1.21.77 1.21m-.968-3.993C2.871 2.464 3.476 1.551 4.169.836 3.674.407 3.135.187 2.563.187a.87.87 0 0 0-.66.286c-.297.319-.451.759-.451 1.309q0 .577.231.99c.121.198.341.462.671.781"/></symbol></defs></svg>