<svg xmlns="http://www.w3.org/2000/svg" xmlns:xlink="http://www.w3.org/1999/xlink" width="224.105" height="224.105" class="typst-doc" viewBox="0 0 168.079 168.079"><path fill="#fff" d="M0 0v168.079h168.079V0Z" class="typst-shape"/><g class="typst-group"><path fill="none" stroke="#e6e6e6" stroke-width=".5" d="M27.346 169.079V-1M55.693 169.079V-1M84.04 169.079V-1M112.386 169.079V-1M140.732 169.079V-1M-1 140.732h170.079M-1 112.386h170.079M-1 84.04h170.079M-1 55.693h170.079M-1 27.346h170.079M-1 169.079h170.079V-1H-1z" class="typst-shape"/><path fill="none" stroke="#000" stroke-width=".5" d="M99.63 84.04h141.732M68.449 77.661H-73.283M68.449 90.417H-73.283" class="typst-shape"/><path fill="#fff" stroke="#000" stroke-width=".8" d="M68.449 69.866v28.347h31.18V69.866z" class="typst-shape"/><path fill="none" d="M75.483 72.7h17.113v8.823H75.483z" class="typst-shape"/><g class="typst-group"><g class="typst-group"><use xlink:href="#a" class="typst-text" transform="matrix(1 0 0 -1 75.483 80.214)"/><use xlink:href="#b" class="typst-text" transform="matrix(1 0 0 -1 87.096 80.214)"/></g></g></g><defs><symbol id="a" overflow="visible"><path d="M7.524 3.41c.11.055.165.132.165.253a.28.28 0 0 1-.165.264L1.21 6.919a.4.4 0 0 1-.121.022c-.176 0-.264-.088-.264-.275 0-.099.055-.176.154-.22l5.874-2.783L.979.88C.88.836.825.759.825.66c0-.187.088-.275.264-.275.044 0 .088.011.121.033ZM7.458-.792H1.1c-.176 0-.264-.088-.264-.253q0-.264.264-.264h6.358q.264 0 .264.264c0 .132-.121.253-.264.253"/></symbol><symbol id="b" overflow="visible"><path d="M2.959 7.326q-.677-.693-1.98-.693v-.429c.572 0 1.045.088 1.408.264V.902c0-.198-.044-.33-.143-.385S1.87.429 1.43.429h-.385V0q.413.033 1.782.033 1.37 0 1.782-.033v.429h-.385c-.451 0-.726.033-.814.088s-.143.187-.143.385v6.094c0 .264-.022.33-.308.33"/></symbol></defs></svg>