<svg xmlns="http://www.w3.org/2000/svg" xmlns:xlink="http://www.w3.org/1999/xlink" width="224.1" height="224.1" class="typst-doc" viewBox="0 0 168.08 168.08">
    <path fill="#fff" d="M0 0v168.08h168.08V0Z" class="typst-shape"/>
    <g class="typst-group">
        <path fill="none" stroke="#e4e4e7e6" stroke-width=".5" d="M27.35 169.08V-1M55.7 169.08V-1m28.34 170.08V-1m28.35 170.08V-1m28.34 170.08V-1M-1 140.73h170.08M-1 112.39h170.08M-1 84.04h170.08M-1 55.7h170.08M-1 27.35h170.08M-1 169.08h170.08V-1H-1v170.08Z" class="typst-shape"/>
        <path fill="none" d="M16.49 117.97H38.2v21.34H16.49v-21.34Z" class="typst-shape"/>
        <g class="typst-group">
            <g class="typst-group">
                <use xlink:href="#a" class="typst-text" transform="matrix(1 0 0 -1 23.49 132.2)"/>
            </g>
        </g>
        <path fill="none" stroke="#000" stroke-width=".5" d="M55.7 140.73v-27.5m0-30.04v-27.5" class="typst-shape"/>
        <path fill="none" d="M16.17 93.1h11.3v10.23h-11.3V93.1Z" class="typst-shape"/>
        <g class="typst-group">
            <g class="typst-group">
                <use xlink:href="#b" class="typst-text" transform="matrix(1 0 0 -1 16.17 100.61)"/>
                <use xlink:href="#c" class="typst-text" transform="matrix(1 0 0 -1 22.47 103.33)"/>
            </g>
        </g>
        <path fill="none" stroke="#000" stroke-width=".55" d="M37.83 124.57c-2.82-8.59-5.66-17.3-5.66-26.36 0-6.9 1.65-13.61 3.69-20.22" class="typst-shape"/>
        <path stroke="#000" stroke-width=".55" d="m37.6 72.6.27 6.04-4.05-1.3 3.77-4.74Z" class="typst-shape"/>
        <path fill="none" stroke="#000" stroke-width=".5" d="M55.7 55.7h22.53m39.97 0h22.53" class="typst-shape"/>
        <path stroke="#000" d="m129.46 55.7-4.53 1.7V54l4.53 1.7Z" class="typst-shape"/>
        <path fill="none" d="M122.8 40.23h8.8v10.23h-8.8V40.23Z" class="typst-shape"/>
        <g class="typst-group">
            <g class="typst-group">
                <use xlink:href="#d" class="typst-text" transform="matrix(1 0 0 -1 122.8 47.74)"/>
                <use xlink:href="#c" class="typst-text" transform="matrix(1 0 0 -1 126.6 50.46)"/>
            </g>
        </g>
        <path fill="none" stroke="#ff4136" stroke-dasharray="3 3" stroke-width=".8" d="M47.19 27.35v42.52h93.54V27.35H47.2Z" class="typst-shape"/>
        <path fill="none" d="M53.06 17.49h81.8v9.86h-81.8v-9.86Z" class="typst-shape"/>
        <g class="typst-group">
            <g class="typst-group">
                <g fill="#ff4136" class="typst-text" transform="matrix(1 0 0 -1 53.06 24.73)">
                    <use xlink:href="#e"/>
                    <use xlink:href="#f" x="6.57"/>
                    <use xlink:href="#g" x="12.48"/>
                    <use xlink:href="#h" x="15.47"/>
                    <use xlink:href="#g" x="22.51"/>
                    <use xlink:href="#h" x="25.49"/>
                    <use xlink:href="#i" x="32.53"/>
                    <use xlink:href="#j" x="40.3"/>
                    <use xlink:href="#k" x="44.31"/>
                    <use xlink:href="#l" x="49.3"/>
                    <use xlink:href="#m" x="54.01"/>
                    <use xlink:href="#i" x="57.49"/>
                    <use xlink:href="#n" x="62.51"/>
                    <use xlink:href="#o" x="68.47"/>
                    <use xlink:href="#p" x="73.97"/>
                    <use xlink:href="#k" x="76.88"/>
                </g>
            </g>
        </g>
        <path fill="none" stroke="#b10dc9" stroke-width=".8" d="m84.04 84.04 51.88 51.88" class="typst-shape"/>
        <path fill="#b10dc9" stroke="#b10dc9" stroke-width=".8" d="m139.93 139.93-5.52-2.5 3.01-3.02 2.5 5.52Z" class="typst-shape"/>
        <path stroke="#000" stroke-width=".4" d="M27.35 139.31a1.42 1.42 0 1 0 0 2.84 1.42 1.42 0 0 0 0-2.84Z" class="typst-shape"/>
        <path fill="#fff" stroke="#000" stroke-width=".8" d="M40.67 98.21a15.03 15.03 0 0 0 30.05 0 15.03 15.03 0 0 0-30.05 0Z" class="typst-shape"/>
        <path fill="none" stroke="#000" stroke-width=".8" d="M55.7 113.24V83.19" class="typst-shape"/>
        <path fill="#fff" stroke="#000" stroke-width=".8" d="M78.23 49.03v13.32h39.97V49.03H78.23Z" class="typst-shape"/>
    </g>
    <defs>
        <symbol id="a" overflow="visible">
            <path d="M7.33 3.62c0 2.28-1.58 3.62-3.55 3.62C1.65 7.24.41 5.54.41 3.4A3.37 3.37 0 0 1 3.85-.11a3.3 3.3 0 0 1 2.8 1.39c.43.62.68 1.41.68 2.34ZM3.64 6.84c1.45 0 2.63-1.2 2.63-3.43 0-1.97-.95-3.12-2.2-3.12-1.34 0-2.6 1.2-2.6 3.3 0 2.32 1.08 3.25 2.17 3.25Z"/>
        </symbol>
        <symbol id="b" overflow="visible">
            <path d="M5.97 1.58c0 .1-.05.16-.17.16-.1 0-.16-.08-.19-.23-.06-.21-.11-.42-.19-.63C5.28.43 5.08.2 4.84.2c-.2 0-.3.15-.3.46 0 .19.08.56.22 1.11l.3 1.17c.1.4.19.67.25 1l.07.3a.7.7 0 0 1 .03.17c0 .22-.12.33-.36.33s-.4-.13-.46-.4l-.82-3.26a1.48 1.48 0 0 0-.14-.24C3.45.55 3.03.2 2.59.2c-.42 0-.63.28-.63.84 0 .46.2 1.18.58 2.2.12.32.19.55.19.69a.9.9 0 0 1-.94.93c-.5 0-.88-.27-1.15-.82a2.86 2.86 0 0 1-.32-.88c0-.1.05-.16.17-.16.15 0 .17.07.21.22.26.88.6 1.32 1.06 1.32.15 0 .23-.1.23-.32 0-.16-.06-.4-.19-.71a8.15 8.15 0 0 1-.62-2.29c0-.85.53-1.34 1.37-1.34.48 0 .9.22 1.27.67.15-.45.48-.67.99-.67.76 0 .99.89 1.16 1.7Z"/>
        </symbol>
        <symbol id="c" overflow="visible">
            <path d="M2.33 5.11C2 4.8 1.51 4.63.83 4.63v-.34c.46 0 .83.07 1.1.2V.65c0-.1 0-.16-.03-.19-.04-.08-.27-.13-.7-.13H.9V0l1.36.03L3.64 0v.33h-.31c-.43 0-.66.05-.7.13a.5.5 0 0 0-.03.2v4.2c0 .21-.03.25-.27.25Z"/>
        </symbol>
        <symbol id="d" overflow="visible">
            <path d="M3.12 6.83c0 .3-.14.44-.44.44s-.61-.3-.61-.62c0-.3.15-.44.45-.44.3 0 .6.31.6.62Zm-.27-5.31C2.6.65 2.25.2 1.8.2c-.14 0-.22.1-.22.3 0 .2.32 1.14.97 2.86.09.25.13.45.13.59 0 .54-.37.93-.9.93-.48 0-.86-.27-1.13-.83a2.8 2.8 0 0 1-.33-.9c0-.1.05-.14.17-.14.15 0 .17.07.21.23.26.88.6 1.32 1.04 1.32.14 0 .22-.1.22-.31 0-.16-.03-.33-.11-.54L1.1 1.7A3.33 3.33 0 0 1 .86.82c0-.54.4-.93.92-.93.47 0 .85.27 1.12.82.21.43.32.73.32.9 0 .1-.05.15-.17.15-.04 0-.2-.1-.2-.23Z"/>
        </symbol>
        <symbol id="e" overflow="visible">
            <path d="M3.85 1.34v4.2c0 .7.11 1.13.5 1.13h.25c.82 0 1.34-.29 1.53-1.14a.9.9 0 0 1 .37.06c-.08.5-.13 1.06-.14 1.56 0 .01-.02.03-.04.03-.37-.03-1.59-.08-2.46-.08h-.94c-.85 0-2.15.05-2.57.08-.02 0-.04-.02-.04-.03a13.8 13.8 0 0 0-.28-1.6c.11-.04.25-.05.38-.05.22.88.72 1.17 1.45 1.17h.54c.4 0 .52-.42.52-1.1V1.35c0-.91-.2-.97-1.07-1-.07-.07-.07-.3 0-.36a82.3 82.3 0 0 0 3.07 0c.06.06.06.3 0 .36-.88.03-1.07.09-1.07 1Z"/>
        </symbol>
        <symbol id="f" overflow="visible">
            <path d="M1.84 3.15c0 .23.1.36.18.46.42.4.98.65 1.41.65.22 0 .45-.15.58-.4.12-.22.14-.52.14-.85V1.34c0-.9-.11-.94-.69-1-.05-.07-.05-.3 0-.36L4.6 0l1.16-.02c.06.06.06.3 0 .36-.61.06-.73.1-.73 1v1.64c0 .6-.05 1.15-.3 1.48-.19.24-.53.37-.91.37-.54 0-1.2-.14-1.87-.9l-.03-.01c-.03-.05-.08-.11-.08.02V6.4c0 .72.05 1.16.05 1.16 0 .07-.04.1-.14.1A7.66 7.66 0 0 0 .2 7.39c-.02-.09 0-.26.06-.33h.1c.49-.03.6-.03.6-.9v-4.8C.97.42.85.37.2.34.13.27.13.04.2-.03a39.29 39.29 0 0 0 2.3 0c.06.06.06.3 0 .36-.56.04-.66.09-.66 1Z"/>
        </symbol>
        <symbol id="g" overflow="visible">
            <path d="M2 1.34v2.2c0 .54.04 1.25.04 1.25 0 .04-.06.07-.15.07a6.6 6.6 0 0 0-1.5-.32.73.73 0 0 1 .02-.3c.6-.06.71-.13.71-.75V1.34C1.12.43 1 .4.33.34.26.27.26.04.33-.02a40.82 40.82 0 0 0 2.45 0c.07.06.07.3 0 .36-.67.04-.79.09-.79 1ZM.98 6.6c0-.29.26-.57.53-.57.3 0 .57.3.57.53 0 .26-.23.57-.53.57-.26 0-.57-.27-.57-.53Z"/>
        </symbol>
        <symbol id="h" overflow="visible">
            <path d="M.53 1.52C.57.98.6.46.6 0l.28.03c.08 0 .14 0 .22-.02.3-.08.6-.12 1-.12.62 0 1.75.3 1.75 1.39 0 .74-.54 1.18-1.29 1.46-.66.25-1.1.42-1.1 1.02 0 .45.4.7.77.7.25 0 .88-.08 1.03-1.02.06-.06.28-.05.35.01l.06 1.17c-.34.05-.86.2-1.44.2C1.42 4.83.68 4.3.68 3.6c0-.8.36-1.15 1.21-1.5.92-.37 1.12-.6 1.12-1.08 0-.54-.52-.77-.93-.77-.43 0-.67.15-.78.27-.24.25-.36.73-.43 1-.07.07-.28.06-.34 0Z"/>
        </symbol>
        <symbol id="i" overflow="visible">
            <path d="M3.22.53c.07-.34.19-.64.74-.64.42 0 .81.19 1.04.4-.02.14-.06.24-.18.3a.77.77 0 0 0-.4-.17c-.33 0-.34.43-.34.93v1.62c0 1.56-.86 1.86-1.66 1.86-.9 0-1.81-.6-1.81-1.22 0-.27.13-.4.38-.4.32 0 .52.23.52.38a.5.5 0 0 1-.04.2.76.76 0 0 0-.02.21c0 .34.46.47.88.47.38 0 .9-.2.9-1.43 0-.08-.04-.13-.07-.14l-.95-.23C1.16 2.41.4 1.83.4 1.07.4.18 1-.1 1.78-.1c.39 0 .72.09 1.2.46l.22.18Zm0 2.03V1.11c0-.14-.06-.22-.15-.29C2.78.6 2.4.34 2.1.34c-.55 0-.8.44-.8.78 0 .5.24 1 1.05 1.21Z"/>
        </symbol>
        <symbol id="j" overflow="visible">
            <path d="M1.94 3.94c-.03.44-.04.72-.1.83-.01.06-.04.1-.12.1a4.9 4.9 0 0 0-1.36-.33.73.73 0 0 1 .03-.3c.59-.06.71-.12.71-.75V1.34C1.1.43.97.38.29.34.22.27.22.04.29-.02a43.78 43.78 0 0 0 2.58 0c.07.06.07.3 0 .36-.77.06-.9.09-.9 1v1.53c0 .29.13.54.26.74.12.17.38.54.5.54.1 0 .2-.03.3-.15.07-.1.2-.25.4-.25.25 0 .5.28.5.55 0 .21-.19.53-.65.53-.52 0-.97-.49-1.22-.91-.07-.13-.12-.04-.12.02Z"/>
        </symbol>
        <symbol id="k" overflow="visible">
            <path d="M4.25 1.02C3.84.6 3.52.42 2.88.42c-.4 0-.86.24-1.2.8a2.9 2.9 0 0 0-.35 1.5l2.93-.01c.13 0 .2.06.2.18 0 .93-.32 1.92-1.85 1.92-.96 0-2.2-.92-2.2-2.59 0-.61.15-1.2.51-1.63.38-.44.9-.7 1.69-.7.83 0 1.43.39 1.87.96-.04.1-.1.16-.23.17ZM1.36 3.1c.21 1.24.98 1.34 1.25 1.34.42 0 .91-.23.91-1.15 0-.1-.04-.16-.17-.16Z"/>
        </symbol>
        <symbol id="l" overflow="visible">
            <path d="M4.38 1c-.05.1-.13.14-.23.16A1.68 1.68 0 0 0 2.83.43c-.8 0-1.48.81-1.48 2.1 0 1.21.53 1.94 1.26 1.94.65 0 .73-.39.78-.77.03-.3.19-.4.42-.4.23 0 .53.14.53.48 0 .6-.62 1.05-1.68 1.05-1.09 0-2.25-.98-2.25-2.54 0-1.42.79-2.4 2.17-2.4.67 0 1.25.2 1.8 1.11Z"/>
        </symbol>
        <symbol id="m" overflow="visible">
            <path d="M.47 4.72c-.15 0-.2-.13-.2-.22v-.14c0-.06.02-.07.06-.07h.65V.98c0-.78.34-1.09.85-1.09a2 2 0 0 1 1.48.73.21.21 0 0 1-.2.18C2.83.58 2.5.5 2.21.5c-.3 0-.36.32-.36 1v2.8h1.14c.11 0 .27.04.27.14v.22c0 .05-.04.07-.1.07h-1.3v.43c0 .71.04 1.15.04 1.15 0 .07-.03.1-.09.1a.73.73 0 0 1-.24-.1 1.4 1.4 0 0 0-.37-.15C1.07 6.12.96 6.08.96 6c0-.13.03-.05.03-1.27Z"/>
        </symbol>
        <symbol id="n" overflow="visible">
            <path d="M2.02 3.94c-.06-.08-.13-.1-.13 0 0 .3-.03.72-.09.83-.02.06-.04.1-.13.1a4.9 4.9 0 0 0-1.35-.33.73.73 0 0 1 .02-.3c.6-.06.72-.12.72-.75V1.34c0-.9-.11-.94-.77-1C.22.27.22.04.29-.02a37.39 37.39 0 0 0 2.3 0c.07.06.07.3 0 .36-.55.06-.66.1-.66 1v1.8c0 .24.1.37.18.47.42.4.92.65 1.34.65.22 0 .45-.15.59-.4.1-.22.13-.52.13-.85V1.34c0-.9-.11-.94-.68-1-.06-.07-.06-.3 0-.36a31.74 31.74 0 0 0 2.29 0c.05.06.05.3 0 .36-.62.06-.74.1-.74 1v1.64c0 .6-.05 1.13-.3 1.48-.19.24-.53.37-.91.37-.54 0-1.16-.14-1.8-.9Z"/>
        </symbol>
        <symbol id="o" overflow="visible">
            <path d="M4.88 4.26c.21 0 .41.2.41.42 0 .23-.2.4-.5.4s-.82-.19-1.1-.56c-.14.09-.5.3-1.15.3-.98 0-1.88-.65-1.88-1.66 0-.6.26-.94.57-1.24C.93 1.67.75 1.2.75.82c0-.4.22-.71.5-.85C.66-.38.35-.9.35-1.36c0-.96.9-1.26 1.75-1.26 1.49 0 3.1.72 3.1 1.9 0 .36-.17.63-.5.9-.42.35-1.2.36-1.6.36-.2 0-.47-.02-.73-.06-.17 0-.28-.02-.33-.02-.32 0-.7.16-.7.63 0 .22.06.45.19.64a1.9 1.9 0 0 1 1-.23c.97 0 1.86.6 1.86 1.68 0 .52-.15.81-.47 1.14.07.11.3.27.44.27.07 0 .15-.04.22-.13.04-.1.18-.2.3-.2ZM1.45-.11c.12-.03.3-.05.44-.05.34 0 .65.03.8.03.56 0 1.02-.01 1.34-.19.42-.24.56-.4.56-.68 0-.8-1.17-1.21-2.16-1.21-.4 0-1.32.32-1.32 1.07 0 .37.02.64.34 1.03Zm2.06 3.18c0-1.02-.52-1.23-.92-1.23-.93 0-1.03.78-1.03 1.48 0 .77.28 1.17.88 1.17.7 0 1.07-.5 1.07-1.42Z"/>
        </symbol>
        <symbol id="p" overflow="visible">
            <path d="M1.04 1.34c0-.91-.12-.97-.79-1C.2.27.2.04.25-.02a42.2 42.2 0 0 0 2.46 0c.06.06.06.3 0 .36-.67.03-.8.09-.8 1v5.07c0 .72.05 1.16.05 1.16 0 .07-.05.1-.15.1a7.66 7.66 0 0 0-1.54-.29c-.02-.09 0-.26.07-.33.64-.04.7-.08.7-.9Z"/>
        </symbol>
    </defs>
</svg>