<svg xmlns="http://www.w3.org/2000/svg" xmlns:xlink="http://www.w3.org/1999/xlink" width="370.286" height="91.822" class="typst-doc" viewBox="0 0 281.465 68.866"><path fill="#fff" d="M0 0v68.866h281.465V0Z" class="typst-shape"/><g class="typst-group"><path fill="none" stroke="#e4e4e7e6" stroke-width=".5" d="M27.346 69.866V-1M55.693 69.866V-1M84.04 69.866V-1M112.386 69.866V-1M140.732 69.866V-1M169.079 69.866V-1M197.425 69.866V-1M225.772 69.866V-1M254.118 69.866V-1M-1 41.52h283.465M-1-1v70.866h283.465V-1M282.465 13.173H-1" class="typst-shape"/><path fill="none" d="M16.485 18.754h21.722v21.348H16.485V18.754Z" class="typst-shape"/><g class="typst-group"><g class="typst-group"><use xlink:href="#a" class="typst-text" transform="matrix(1 0 0 -1 23.485 32.992)"/></g></g><path fill="none" stroke="#000" stroke-width=".5" d="M55.693 41.52h27.496M113.236 41.52h27.496" class="typst-shape"/><path stroke="#000" d="m124.504 41.52-4.535 1.7V39.82l4.535 1.7Z" class="typst-shape"/><path fill="none" d="M117.84 26.057h8.792v10.23h-8.792v-10.23Z" class="typst-shape"/><g class="typst-group"><g class="typst-group"><use xlink:href="#b" class="typst-text" transform="matrix(1 0 0 -1 117.84 33.57)"/><use xlink:href="#c" class="typst-text" transform="matrix(1 0 0 -1 121.635 36.287)"/></g></g><path fill="none" stroke="#000" stroke-width=".5" d="M169.079 41.52h27.496M226.622 41.52h27.496" class="typst-shape"/><path stroke="#000" d="m188.346 41.52-4.535-1.701v3.401l4.535-1.7Z" class="typst-shape"/><path fill="none" d="M181.683 21.405h8.792v10.23h-8.792v-10.23Z" class="typst-shape"/><g class="typst-group"><g class="typst-group"><use xlink:href="#b" class="typst-text" transform="matrix(1 0 0 -1 181.683 28.918)"/><use xlink:href="#c" class="typst-text" transform="matrix(1 0 0 -1 185.478 31.635)"/></g></g><path stroke="#000" stroke-width=".4" d="M27.346 40.102a1.418 1.418 0 0 0 0 2.835 1.418 1.418 0 0 0 0-2.835Z" class="typst-shape"/><path fill="#fff" stroke="#000" stroke-width=".8" d="M98.213 26.496c-8.29 0-15.024 6.734-15.024 15.024s6.734 15.023 15.024 15.023 15.023-6.734 15.023-15.023c0-8.29-6.734-15.024-15.023-15.024Z" class="typst-shape"/><path fill="none" stroke="#000" stroke-width=".8" d="M83.189 41.52h30.047" class="typst-shape"/><path fill="#fff" stroke="#000" stroke-width=".8" d="M211.598 26.496c-8.29 0-15.023 6.734-15.023 15.024s6.734 15.023 15.023 15.023c8.29 0 15.024-6.734 15.024-15.023 0-8.29-6.734-15.024-15.024-15.024Z" class="typst-shape"/><path fill="none" stroke="#000" stroke-width=".8" d="M196.575 41.52h30.047" class="typst-shape"/></g><defs><symbol id="a" overflow="visible"><path d="M7.326 3.619c0 2.277-1.573 3.619-3.542 3.619C1.65 7.238.407 5.544.407 3.41.407 1.243 1.98-.11 3.85-.11c1.221 0 2.189.528 2.794 1.386.44.627.682 1.419.682 2.343ZM3.641 6.842c1.452 0 2.629-1.21 2.629-3.432 0-1.969-.946-3.124-2.2-3.124-1.342 0-2.607 1.199-2.607 3.311 0 2.31 1.089 3.245 2.178 3.245Z"/></symbol><symbol id="b" overflow="visible"><path d="M3.124 6.831c0 .297-.143.44-.44.44-.308 0-.616-.308-.616-.616 0-.297.154-.44.451-.44.308 0 .605.308.605.616Zm-.275-5.313C2.607.649 2.255.209 1.804.209c-.143 0-.22.099-.22.308 0 .187.319 1.133.968 2.849.088.253.132.451.132.594 0 .539-.374.935-.913.935-.473 0-.847-.275-1.122-.836-.22-.451-.33-.748-.33-.891 0-.099.055-.143.176-.143.143 0 .165.066.209.22.253.88.594 1.32 1.034 1.32.143 0 .22-.099.22-.308 0-.154-.033-.33-.11-.539-.253-.693-.517-1.43-.737-2.013C.946 1.265.858.968.858.814c0-.539.396-.935.924-.935.473 0 .847.275 1.122.825.209.429.319.726.319.891 0 .099-.055.154-.176.154-.033 0-.198-.099-.198-.231Z"/></symbol><symbol id="c" overflow="visible"><path d="M2.333 5.113c-.331-.324-.824-.485-1.494-.485v-.34c.455 0 .816.07 1.094.201V.655c0-.1-.008-.162-.031-.193-.039-.085-.27-.13-.693-.13H.893V0l1.37.03L3.644 0v.331h-.317c-.423 0-.654.046-.7.131a.501.501 0 0 0-.023.192v4.212c0 .208-.031.247-.27.247Z"/></symbol></defs></svg>