<svg xmlns="http://www.w3.org/2000/svg" xmlns:xlink="http://www.w3.org/1999/xlink" width="370.286" height="91.822" class="typst-doc" viewBox="0 0 281.465 68.866"><path fill="#fff" d="M0 0v68.866h281.465V0Z" class="typst-shape"/><g class="typst-group"><path fill="none" stroke="#e4e4e7e6" stroke-width=".5" d="M27.346 41.52V-1m28.347 42.52V-1M84.04 41.52V-1m28.346 42.52V-1m28.346 42.52V-1m28.347 42.52V-1m28.346 42.52V-1m28.347 42.52V-1m28.346 42.52V-1M-1-1v42.52h283.465V-1m0 14.173H-1m28.346 56.693V41.52m28.347 28.346V41.52M84.04 69.866V41.52m28.346 28.346V41.52m28.346 28.346V41.52m28.347 28.346V41.52m28.346 28.346V41.52m28.347 28.346V41.52m28.346 28.346V41.52" class="typst-shape"/><path fill="none" stroke="#e4e4e7e6" stroke-width=".5" d="M-1 69.866h283.465V41.52H-1z" class="typst-shape"/><path fill="none" d="M16.485 18.754h21.722v21.348H16.485z" class="typst-shape"/><g class="typst-group"><g class="typst-group"><use xlink:href="#a" class="typst-text" transform="matrix(1 0 0 -1 23.485 32.992)"/></g></g><path fill="none" d="M86.906 13.103h22.613v21.755H86.906z" class="typst-shape"/><g class="typst-group"><g class="typst-group"><use xlink:href="#b" class="typst-text" transform="matrix(1 0 0 -1 93.906 27.616)"/></g></g><path fill="none" stroke="#000" stroke-width=".5" d="M55.693 41.52h22.535m39.969 0h22.535" class="typst-shape"/><path fill="none" d="M207.292 48.181h8.613v7.755h-8.613z" class="typst-shape"/><g class="typst-group"><g class="typst-group"><use xlink:href="#b" class="typst-text" transform="matrix(1 0 0 -1 207.292 55.694)"/></g></g><path fill="none" stroke="#000" stroke-width=".5" d="M169.079 41.52h22.535m39.969 0h22.535" class="typst-shape"/><path stroke="#000" stroke-width=".4" d="M27.346 40.102a1.418 1.418 0 0 0 0 2.835 1.418 1.418 0 0 0 0-2.835Z" class="typst-shape"/><path fill="#fff" stroke="#000" stroke-width=".8" d="M78.228 34.858v13.323h39.969V34.858z" class="typst-shape"/><path fill="none" stroke="#000" stroke-width=".8" d="M88.22 48.181V34.858m9.993 13.323V34.858m9.992 13.323V34.858" class="typst-shape"/><path fill="#fff" stroke="#000" stroke-width=".8" d="M191.614 34.858v13.323h39.969V34.858z" class="typst-shape"/><path fill="none" stroke="#000" stroke-width=".8" d="M201.606 48.181V34.858m9.992 13.323V34.858m9.992 13.323V34.858" class="typst-shape"/></g><defs><symbol id="a" overflow="visible"><path d="M7.326 3.619c0 2.277-1.573 3.619-3.542 3.619C1.65 7.238.407 5.544.407 3.41.407 1.243 1.98-.11 3.85-.11c1.221 0 2.189.528 2.794 1.386.44.627.682 1.419.682 2.343M3.641 6.842c1.452 0 2.629-1.21 2.629-3.432 0-1.969-.946-3.124-2.2-3.124-1.342 0-2.607 1.199-2.607 3.311 0 2.31 1.089 3.245 2.178 3.245"/></symbol><symbol id="b" overflow="visible"><path d="M8.129 5.841c0 .561-.286.99-.847 1.298-.451.253-.99.374-1.595.374H2.585c-.253 0-.363-.011-.363-.264 0-.077.033-.132.099-.143.11-.011.198-.022.253-.022.33-.011.517-.033.572-.044s.088-.044.088-.099a1 1 0 0 0-.044-.198L1.738.902C1.683.66 1.573.506 1.408.451 1.331.429 1.133.418.792.418.55.418.451.407.451.165q0-.181.198-.165l1.364.033L3.399 0c.176-.011.264.088.264.253 0 .11-.121.165-.352.165-.44 0-.66.055-.66.154 0 0 .011.022.033.176l.704 2.849h1.265c.759 0 1.144-.319 1.144-.946 0-.099-.055-.341-.154-.737-.121-.462-.176-.77-.176-.935 0-.836.649-1.221 1.485-1.221.308 0 .605.143.902.418s.451.572.451.88c0 .11-.055.165-.176.165-.077 0-.143-.055-.176-.176-.121-.341-.275-.594-.451-.737s-.341-.22-.506-.22c-.253 0-.385.209-.385.616 0 .264.033.671.11 1.232.033.231.044.396.044.517 0 .583-.308 1.012-.924 1.276 1.034.253 2.288.99 2.288 2.112m-1.43.935q.33-.214.33-.726c0-.22-.044-.473-.143-.77q-.445-1.353-2.244-1.353H3.476l.693 2.783q.082.347.264.363c.055.011.275.011.66.011.715 0 1.133-.022 1.606-.308"/></symbol></defs></svg>