<svg xmlns="http://www.w3.org/2000/svg" xmlns:xlink="http://www.w3.org/1999/xlink" width="261.9" height="110.719" class="typst-doc" viewBox="0 0 196.425 83.039"><path fill="#fff" d="M0 0v83.04h196.425V0Z" class="typst-shape"/><g class="typst-group"><path fill="none" stroke="#e4e4e7e6" stroke-width=".5" d="M27.346 84.04V-1M55.693 84.04V-1M84.04 84.04V-1M112.386 84.04V-1M140.732 84.04V-1M169.079 84.04V-1M-1 55.693h198.425M-1 27.346h198.425M-1 84.04h198.425V-1H-1v85.04Z" class="typst-shape"/><path fill="none" d="M16.485 32.928h21.722v21.348H16.485V32.928Z" class="typst-shape"/><g class="typst-group"><g class="typst-group"><use xlink:href="#a" class="typst-text" transform="matrix(1 0 0 -1 23.485 47.166)"/></g></g><path fill="none" stroke="#000" stroke-width=".5" d="M55.693 55.693h41.67M127.41 55.693h41.669" class="typst-shape"/><path stroke="#000" d="m138.677 55.693-4.535 1.7v-3.4l4.535 1.7Z" class="typst-shape"/><path fill="none" d="M132.013 40.23h8.793v10.23h-8.793V40.23Z" class="typst-shape"/><g class="typst-group"><g class="typst-group"><use xlink:href="#b" class="typst-text" transform="matrix(1 0 0 -1 132.013 47.743)"/><use xlink:href="#c" class="typst-text" transform="matrix(1 0 0 -1 135.808 50.46)"/></g></g><path fill="none" d="M106.741 16.703h11.29v10.23h-11.29v-10.23Z" class="typst-shape"/><g class="typst-group"><g class="typst-group"><use xlink:href="#d" class="typst-text" transform="matrix(1 0 0 -1 106.741 24.216)"/><use xlink:href="#c" class="typst-text" transform="matrix(1 0 0 -1 113.033 26.933)"/></g></g><path fill="none" stroke="#000" stroke-width=".55" d="M86.024 37.835c8.591-2.826 17.303-5.67 26.362-5.67 6.908 0 13.614 1.654 20.22 3.693" class="typst-shape"/><path stroke="#000" stroke-width=".55" d="m138.003 37.593-6.049.272 1.313-4.044 4.736 3.772Z" class="typst-shape"/><path stroke="#000" stroke-width=".4" d="M27.346 54.276a1.418 1.418 0 0 0 0 2.834 1.418 1.418 0 0 0 0-2.834Z" class="typst-shape"/><path fill="#fff" stroke="#000" stroke-width=".8" d="M112.386 40.67c-8.29 0-15.024 6.733-15.024 15.023s6.734 15.024 15.024 15.024 15.023-6.734 15.023-15.024-6.733-15.024-15.023-15.024Z" class="typst-shape"/><path fill="none" stroke="#000" stroke-width=".8" d="M97.362 55.693h30.047" class="typst-shape"/></g><defs><symbol id="a" overflow="visible"><path d="M7.326 3.619c0 2.277-1.573 3.619-3.542 3.619C1.65 7.238.407 5.544.407 3.41.407 1.243 1.98-.11 3.85-.11c1.221 0 2.189.528 2.794 1.386.44.627.682 1.419.682 2.343ZM3.641 6.842c1.452 0 2.629-1.21 2.629-3.432 0-1.969-.946-3.124-2.2-3.124-1.342 0-2.607 1.199-2.607 3.311 0 2.31 1.089 3.245 2.178 3.245Z"/></symbol><symbol id="b" overflow="visible"><path d="M3.124 6.831c0 .297-.143.44-.44.44-.308 0-.616-.308-.616-.616 0-.297.154-.44.451-.44.308 0 .605.308.605.616Zm-.275-5.313C2.607.649 2.255.209 1.804.209c-.143 0-.22.099-.22.308 0 .187.319 1.133.968 2.849.088.253.132.451.132.594 0 .539-.374.935-.913.935-.473 0-.847-.275-1.122-.836-.22-.451-.33-.748-.33-.891 0-.099.055-.143.176-.143.143 0 .165.066.209.22.253.88.594 1.32 1.034 1.32.143 0 .22-.099.22-.308 0-.154-.033-.33-.11-.539-.253-.693-.517-1.43-.737-2.013C.946 1.265.858.968.858.814c0-.539.396-.935.924-.935.473 0 .847.275 1.122.825.209.429.319.726.319.891 0 .099-.055.154-.176.154-.033 0-.198-.099-.198-.231Z"/></symbol><symbol id="c" overflow="visible"><path d="M2.333 5.113c-.331-.324-.824-.485-1.494-.485v-.34c.455 0 .816.07 1.094.201V.655c0-.1-.008-.162-.031-.193-.039-.085-.27-.13-.693-.13H.893V0l1.37.03L3.644 0v.331h-.317c-.423 0-.654.046-.7.131a.501.501 0 0 0-.023.192v4.212c0 .208-.031.247-.27.247Z"/></symbol><symbol id="d" overflow="visible"><path d="M5.973 1.584c0 .099-.055.154-.176.154-.099 0-.154-.077-.187-.231-.055-.209-.11-.418-.187-.627C5.28.429 5.082.198 4.84.198c-.198 0-.297.154-.297.462 0 .187.077.561.22 1.111l.297 1.166c.099.396.187.671.253 1.012l.066.297a.7.7 0 0 1 .033.165c0 .22-.121.33-.363.33s-.396-.132-.462-.407l-.814-3.256A1.475 1.475 0 0 0 3.63.836C3.454.55 3.025.198 2.585.198c-.418 0-.627.286-.627.847 0 .451.198 1.177.583 2.189.121.33.187.561.187.693 0 .55-.385.935-.935.935-.495 0-.88-.275-1.155-.825-.209-.429-.319-.726-.319-.88 0-.099.055-.154.176-.154.143 0 .165.066.209.22.253.88.605 1.32 1.056 1.32.154 0 .231-.11.231-.319 0-.165-.066-.396-.187-.715-.418-1.111-.627-1.881-.627-2.288 0-.847.528-1.342 1.375-1.342.473 0 .902.22 1.265.671.154-.451.484-.671.99-.671.759 0 .99.891 1.166 1.705Z"/></symbol></defs></svg>