<svg xmlns="http://www.w3.org/2000/svg" xmlns:xlink="http://www.w3.org/1999/xlink" width="370.286" height="129.617" class="typst-doc" viewBox="0 0 281.465 97.213"><path fill="#fff" d="M0 0v97.213h281.465V0Z" class="typst-shape"/><g class="typst-group"><path fill="none" stroke="#e4e4e7e6" stroke-width=".5" d="M27.346 98.213V-1m28.347 99.213V-1M84.04 98.213V-1m28.346 99.213V-1m28.346 99.213V-1m28.347 99.213V-1m28.346 99.213V-1m28.347 99.213V-1m28.346 99.213V-1M-1 69.866h283.465M-1 41.52h283.465M-1-1v99.213h283.465V-1m0 14.173H-1" class="typst-shape"/><path fill="none" d="M16.485 18.754h21.722v21.348H16.485z" class="typst-shape"/><g class="typst-group"><g class="typst-group"><use xlink:href="#a" class="typst-text" transform="matrix(1 0 0 -1 23.485 32.992)"/></g></g><path fill="none" stroke="#000" stroke-width=".5" d="M55.693 41.52h27.496m30.047 0h27.496" class="typst-shape"/><path stroke="#000" stroke-width=".55" d="M122.236 35.85h13.39m5.67 0-5.67 2.126v-4.252z" class="typst-shape"/><path fill="none" d="M126.964 20.388h10.387v10.23h-10.387z" class="typst-shape"/><g class="typst-group"><g class="typst-group"><use xlink:href="#b" class="typst-text" transform="matrix(1 0 0 -1 126.964 27.9)"/><use xlink:href="#c" class="typst-text" transform="matrix(1 0 0 -1 132.354 30.618)"/></g></g><path fill="none" stroke="#000" stroke-width=".5" d="M169.079 41.52h27.496m30.047 0h27.496" class="typst-shape"/><path stroke="#000" stroke-width=".55" d="M179.575 47.189h-13.39m-5.67 0 5.67-2.126v4.252z" class="typst-shape"/><path fill="none" d="M164.46 62.074h10.387v10.23H164.46z" class="typst-shape"/><g class="typst-group"><g class="typst-group"><use xlink:href="#b" class="typst-text" transform="matrix(1 0 0 -1 164.46 69.587)"/><use xlink:href="#c" class="typst-text" transform="matrix(1 0 0 -1 169.85 72.304)"/></g></g><path stroke="#000" stroke-width=".4" d="M27.346 40.102a1.418 1.418 0 0 0 0 2.835 1.418 1.418 0 0 0 0-2.835Z" class="typst-shape"/><path fill="#fff" stroke="#000" stroke-width=".8" d="M98.213 26.496c-8.29 0-15.024 6.734-15.024 15.024s6.734 15.023 15.024 15.023 15.023-6.734 15.023-15.023-6.734-15.024-15.023-15.024Z" class="typst-shape"/><path fill="none" stroke="#000" stroke-width=".8" d="M83.189 41.52h30.047" class="typst-shape"/><path fill="#fff" stroke="#000" stroke-width=".8" d="M211.598 26.496c-8.29 0-15.023 6.734-15.023 15.024s6.734 15.023 15.023 15.023 15.024-6.734 15.024-15.023-6.734-15.024-15.024-15.024Z" class="typst-shape"/><path fill="none" stroke="#000" stroke-width=".8" d="M196.575 41.52h30.047" class="typst-shape"/></g><defs><symbol id="a" overflow="visible"><path d="M7.326 3.619c0 2.277-1.573 3.619-3.542 3.619C1.65 7.238.407 5.544.407 3.41.407 1.243 1.98-.11 3.85-.11c1.221 0 2.189.528 2.794 1.386.44.627.682 1.419.682 2.343M3.641 6.842c1.452 0 2.629-1.21 2.629-3.432 0-1.969-.946-3.124-2.2-3.124-1.342 0-2.607 1.199-2.607 3.311 0 2.31 1.089 3.245 2.178 3.245"/></symbol><symbol id="b" overflow="visible"><path d="M6.072 6.963c0 .484-.473.792-.99.792-.682 0-1.155-.44-1.408-1.309-.055-.198-.176-.759-.352-1.683h-.715c-.242 0-.363-.011-.363-.242 0-.121.11-.176.341-.176h.66L2.442.088a13 13 0 0 0-.33-1.397c-.132-.407-.319-.616-.561-.616a.75.75 0 0 0-.418.121c.352.055.528.264.528.616 0 .286-.143.429-.44.429-.374 0-.638-.33-.638-.704 0-.484.451-.792.968-.792a.97.97 0 0 1 .737.341c.352.363.627.88.825 1.573.121.429.231.847.308 1.265l.638 3.421h.902c.253 0 .363.011.363.264 0 .099-.11.154-.33.154h-.847c.066.451.374 2.112.473 2.321.11.231.264.341.462.341a.8.8 0 0 0 .429-.121c-.341-.077-.517-.275-.517-.616 0-.286.143-.429.44-.429.374 0 .638.33.638.704"/></symbol><symbol id="c" overflow="visible"><path d="M2.333 5.113c-.331-.324-.824-.485-1.494-.485v-.34c.455 0 .816.07 1.094.201V.655q.002-.148-.031-.193-.058-.129-.693-.13H.893V0l1.37.03L3.644 0v.331h-.317q-.633.002-.7.131a.5.5 0 0 0-.023.192v4.212c0 .208-.031.247-.27.247Z"/></symbol></defs></svg>