<svg xmlns="http://www.w3.org/2000/svg" xmlns:xlink="http://www.w3.org/1999/xlink" width="224.105" height="91.822" class="typst-doc" viewBox="0 0 168.079 68.866"><path fill="#fff" d="M0 0v68.866h168.079V0Z" class="typst-shape"/><g class="typst-group"><path fill="none" stroke="#e4e4e7e6" stroke-width=".5" d="M27.346 69.866V-1M55.693 69.866V-1M84.04 69.866V-1M112.386 69.866V-1M140.732 69.866V-1M-1 41.52h170.079M-1-1v70.866h170.079V-1M169.079 13.173H-1" class="typst-shape"/><path fill="none" d="M86.906 13.103h22.613v21.755H86.906V13.103Z" class="typst-shape"/><g class="typst-group"><g class="typst-group"><use xlink:href="#a" class="typst-text" transform="matrix(1 0 0 -1 93.906 27.616)"/></g></g><path fill="none" stroke="#000" stroke-width=".5" d="M55.693 41.52h22.535M118.197 41.52h22.535" class="typst-shape"/><path fill="none" d="M16.485 18.754h21.722v21.348H16.485V18.754Z" class="typst-shape"/><g class="typst-group"><g class="typst-group"><use xlink:href="#b" class="typst-text" transform="matrix(1 0 0 -1 23.485 32.992)"/></g></g><path fill="#fff" stroke="#000" stroke-width=".8" d="M78.228 34.858v13.323h39.969V34.858H78.228Z" class="typst-shape"/><path fill="none" stroke="#000" stroke-width=".8" d="M88.22 48.181V34.858M98.213 48.181V34.858M108.205 48.181V34.858" class="typst-shape"/><path stroke="#000" stroke-width=".4" d="M27.346 40.102a1.418 1.418 0 0 0 0 2.835 1.418 1.418 0 0 0 0-2.835Z" class="typst-shape"/></g><defs><symbol id="a" overflow="visible"><path d="M8.129 5.841c0 .561-.286.99-.847 1.298-.451.253-.99.374-1.595.374H2.585c-.253 0-.363-.011-.363-.264 0-.077.033-.132.099-.143.11-.011.198-.022.253-.022.33-.011.517-.033.572-.044.055-.011.088-.044.088-.099a.924.924 0 0 0-.044-.198L1.738.902C1.683.66 1.573.506 1.408.451 1.331.429 1.133.418.792.418.55.418.451.407.451.165.451.044.517-.011.649 0l1.364.033L3.399 0c.176-.011.264.088.264.253 0 .11-.121.165-.352.165-.44 0-.66.055-.66.154 0 0 .011.022.033.176l.704 2.849h1.265c.759 0 1.144-.319 1.144-.946 0-.099-.055-.341-.154-.737-.121-.462-.176-.77-.176-.935 0-.836.649-1.221 1.485-1.221.308 0 .605.143.902.418.297.275.451.572.451.88 0 .11-.055.165-.176.165-.077 0-.143-.055-.176-.176-.121-.341-.275-.594-.451-.737-.176-.143-.341-.22-.506-.22-.253 0-.385.209-.385.616 0 .264.033.671.11 1.232.033.231.044.396.044.517 0 .583-.308 1.012-.924 1.276 1.034.253 2.288.99 2.288 2.112Zm-1.43.935c.22-.143.33-.385.33-.726 0-.22-.044-.473-.143-.77-.297-.902-1.045-1.353-2.244-1.353H3.476l.693 2.783c.055.231.143.352.264.363.055.011.275.011.66.011.715 0 1.133-.022 1.606-.308Z"/></symbol><symbol id="b" overflow="visible"><path d="M7.326 3.619c0 2.277-1.573 3.619-3.542 3.619C1.65 7.238.407 5.544.407 3.41.407 1.243 1.98-.11 3.85-.11c1.221 0 2.189.528 2.794 1.386.44.627.682 1.419.682 2.343ZM3.641 6.842c1.452 0 2.629-1.21 2.629-3.432 0-1.969-.946-3.124-2.2-3.124-1.342 0-2.607 1.199-2.607 3.311 0 2.31 1.089 3.245 2.178 3.245Z"/></symbol></defs></svg>