<svg xmlns="http://www.w3.org/2000/svg" xmlns:xlink="http://www.w3.org/1999/xlink" width="299.696" height="299.696" class="typst-doc" viewBox="0 0 224.772 224.772">
    <path fill="#fff" d="M0 0v224.772h224.772V0Z" class="typst-shape"/>
    <g class="typst-group">
        <path fill="none" stroke="#e4e4e7e6" stroke-width=".5" d="M27.346 225.772V-1m28.347 226.772V-1M84.04 225.772V-1m28.346 226.772V-1m28.346 226.772V-1m28.347 226.772V-1m28.346 226.772V-1M-1 197.425h226.772M-1 169.079h226.772M-1 140.732h226.772M-1 112.386h226.772M-1 84.04h226.772M-1 55.693h226.772M-1 27.346h226.772M-1 225.772h226.772V-1H-1v226.772Z" class="typst-shape"/>
        <path fill="none" d="M16.485 89.62h21.722v21.349H16.485V89.62Z" class="typst-shape"/>
        <g class="typst-group">
            <g class="typst-group">
                <use xlink:href="#a" class="typst-text" transform="matrix(1 0 0 -1 23.485 103.859)"/>
            </g>
        </g>
        <path fill="none" d="M91.564 11.668h41.643v21.348H91.564V11.668Z" class="typst-shape"/>
        <g class="typst-group">
            <g class="typst-group">
                <g class="typst-text" transform="matrix(1 0 0 -1 98.564 25.906)">
                    <use xlink:href="#b"/>
                    <use xlink:href="#c" x="6.127"/>
                    <use xlink:href="#d" x="11.462"/>
                    <use xlink:href="#e" x="17.413"/>
                    <use xlink:href="#f" x="22.528"/>
                </g>
            </g>
        </g>
        <path stroke="#000" stroke-width=".4" d="M27.346 110.969a1.418 1.418 0 0 0 0 2.834 1.418 1.418 0 0 0 0-2.834Z" class="typst-shape"/>
        <path fill="#efcff4" d="M55.693 33.016v158.74h113.386V33.016H55.693Z" class="typst-shape"/>
        <path fill="none" d="M55.693 35H88.04v18.709H55.693V35Z" class="typst-shape"/>
        <g class="typst-group">
            <g class="typst-group">
                <g class="typst-text" transform="matrix(1 0 0 -1 61.362 47.907)">
                    <use xlink:href="#g"/>
                    <use xlink:href="#h" x="6.798"/>
                    <use xlink:href="#h" x="13.904"/>
                </g>
            </g>
        </g>
        <path fill="none" d="M55.693 46.339h39.883v18.708H55.693V46.34Z" class="typst-shape"/>
        <g class="typst-group">
            <g class="typst-group">
                <g class="typst-text" transform="matrix(1 0 0 -1 61.362 59.246)">
                    <use xlink:href="#i"/>
                    <use xlink:href="#g" x="7.535"/>
                    <use xlink:href="#h" x="14.333"/>
                    <use xlink:href="#h" x="21.439"/>
                </g>
            </g>
        </g>
        <path fill="none" d="M55.693 57.677h38.761v18.709H55.693V57.677Z" class="typst-shape"/>
        <g class="typst-group">
            <g class="typst-group">
                <g class="typst-text" transform="matrix(1 0 0 -1 61.362 70.584)">
                    <use xlink:href="#j"/>
                    <use xlink:href="#g" x="6.413"/>
                    <use xlink:href="#h" x="13.211"/>
                    <use xlink:href="#h" x="20.317"/>
                </g>
            </g>
        </g>
        <path fill="none" d="M55.693 69.082H67.03v18.576H55.693V69.082Z" class="typst-shape"/>
        <path fill="none" d="M55.693 80.365h30.115v18.687H55.693V80.365Z" class="typst-shape"/>
        <g class="typst-group">
            <g class="typst-group">
                <g class="typst-text" transform="matrix(1 0 0 -1 61.362 93.273)">
                    <use xlink:href="#d"/>
                    <use xlink:href="#k" x="5.951"/>
                    <use xlink:href="#l" x="13.662"/>
                </g>
            </g>
        </g>
        <path fill="none" d="M55.693 91.748h30.115v18.599H55.693V91.748Z" class="typst-shape"/>
        <g class="typst-group">
            <g class="typst-group">
                <g class="typst-text" transform="matrix(1 0 0 -1 61.362 104.655)">
                    <use xlink:href="#d"/>
                    <use xlink:href="#k" x="5.951"/>
                    <use xlink:href="#m" x="13.662"/>
                </g>
            </g>
        </g>
        <path fill="none" d="M55.693 103.087h30.115v18.598H55.693v-18.598Z" class="typst-shape"/>
        <g class="typst-group">
            <g class="typst-group">
                <g class="typst-text" transform="matrix(1 0 0 -1 61.362 115.994)">
                    <use xlink:href="#d"/>
                    <use xlink:href="#k" x="5.951"/>
                    <use xlink:href="#f" x="13.662"/>
                </g>
            </g>
        </g>
        <path fill="none" d="M55.693 114.381h30.115v18.687H55.693V114.38Z" class="typst-shape"/>
        <g class="typst-group">
            <g class="typst-group">
                <g class="typst-text" transform="matrix(1 0 0 -1 61.362 127.288)">
                    <use xlink:href="#d"/>
                    <use xlink:href="#k" x="5.951"/>
                    <use xlink:href="#e" x="13.662"/>
                </g>
            </g>
        </g>
        <path fill="none" d="M55.693 125.764h30.115v18.598H55.693v-18.598Z" class="typst-shape"/>
        <g class="typst-group">
            <g class="typst-group">
                <g class="typst-text" transform="matrix(1 0 0 -1 61.362 138.671)">
                    <use xlink:href="#d"/>
                    <use xlink:href="#k" x="5.951"/>
                    <use xlink:href="#n" x="13.662"/>
                </g>
            </g>
        </g>
        <path fill="none" d="M55.693 137.053h30.115v18.697H55.693v-18.697Z" class="typst-shape"/>
        <g class="typst-group">
            <g class="typst-group">
                <g class="typst-text" transform="matrix(1 0 0 -1 61.362 149.96)">
                    <use xlink:href="#d"/>
                    <use xlink:href="#k" x="5.951"/>
                    <use xlink:href="#o" x="13.662"/>
                </g>
            </g>
        </g>
        <path fill="none" d="M55.693 148.452H67.03v18.576H55.693v-18.576Z" class="typst-shape"/>
        <path fill="none" d="M55.693 159.735h34.273v18.687H55.693v-18.687Z" class="typst-shape"/>
        <g class="typst-group">
            <g class="typst-group">
                <g class="typst-text" transform="matrix(1 0 0 -1 61.362 172.643)">
                    <use xlink:href="#p"/>
                    <use xlink:href="#q" x="7.535"/>
                    <use xlink:href="#k" x="15.224"/>
                </g>
            </g>
        </g>
        <path fill="none" d="M55.693 171.074h41.544v18.687H55.693v-18.687Z" class="typst-shape"/>
        <g class="typst-group">
            <g class="typst-group">
                <g class="typst-text" transform="matrix(1 0 0 -1 61.362 183.981)">
                    <use xlink:href="#i"/>
                    <use xlink:href="#p" x="7.271"/>
                    <use xlink:href="#q" x="14.806"/>
                    <use xlink:href="#k" x="22.495"/>
                </g>
            </g>
        </g>
        <path fill="none" d="M140.206 35.011h28.873v18.687h-28.873V35.01Z" class="typst-shape"/>
        <g class="typst-group">
            <g class="typst-group">
                <g class="typst-text" transform="matrix(1 0 0 -1 145.875 47.918)">
                    <use xlink:href="#d"/>
                    <use xlink:href="#r" x="5.951"/>
                    <use xlink:href="#l" x="12.419"/>
                </g>
            </g>
        </g>
        <path fill="none" d="M140.206 46.394h28.873v18.598h-28.873V46.394Z" class="typst-shape"/>
        <g class="typst-group">
            <g class="typst-group">
                <g class="typst-text" transform="matrix(1 0 0 -1 145.875 59.3)">
                    <use xlink:href="#d"/>
                    <use xlink:href="#r" x="5.951"/>
                    <use xlink:href="#m" x="12.419"/>
                </g>
            </g>
        </g>
        <path fill="none" d="M140.206 57.732h28.873v18.599h-28.873V57.732Z" class="typst-shape"/>
        <g class="typst-group">
            <g class="typst-group">
                <g class="typst-text" transform="matrix(1 0 0 -1 145.875 70.64)">
                    <use xlink:href="#d"/>
                    <use xlink:href="#r" x="5.951"/>
                    <use xlink:href="#f" x="12.419"/>
                </g>
            </g>
        </g>
        <path fill="none" d="M140.206 69.027h28.873v18.686h-28.873V69.027Z" class="typst-shape"/>
        <g class="typst-group">
            <g class="typst-group">
                <g class="typst-text" transform="matrix(1 0 0 -1 145.875 81.934)">
                    <use xlink:href="#d"/>
                    <use xlink:href="#r" x="5.951"/>
                    <use xlink:href="#e" x="12.419"/>
                </g>
            </g>
        </g>
        <path fill="none" d="M140.206 80.41h28.873v18.598h-28.873V80.409Z" class="typst-shape"/>
        <g class="typst-group">
            <g class="typst-group">
                <g class="typst-text" transform="matrix(1 0 0 -1 145.875 93.317)">
                    <use xlink:href="#d"/>
                    <use xlink:href="#r" x="5.951"/>
                    <use xlink:href="#n" x="12.419"/>
                </g>
            </g>
        </g>
        <path fill="none" d="M140.206 91.698h28.873v18.698h-28.873V91.698Z" class="typst-shape"/>
        <g class="typst-group">
            <g class="typst-group">
                <g class="typst-text" transform="matrix(1 0 0 -1 145.875 104.606)">
                    <use xlink:href="#d"/>
                    <use xlink:href="#r" x="5.951"/>
                    <use xlink:href="#o" x="12.419"/>
                </g>
            </g>
        </g>
        <path fill="none" d="M157.74 103.098h11.339v18.576H157.74v-18.576Z" class="typst-shape"/>
        <path fill="none" d="M139.568 114.381h29.51v18.687h-29.51V114.38Z" class="typst-shape"/>
        <g class="typst-group">
            <g class="typst-group">
                <g class="typst-text" transform="matrix(1 0 0 -1 145.237 127.288)">
                    <use xlink:href="#d"/>
                    <use xlink:href="#h" x="5.951"/>
                    <use xlink:href="#l" x="13.057"/>
                </g>
            </g>
        </g>
        <path fill="none" d="M139.568 125.72h29.51v18.686h-29.51V125.72Z" class="typst-shape"/>
        <g class="typst-group">
            <g class="typst-group">
                <g class="typst-text" transform="matrix(1 0 0 -1 145.237 138.627)">
                    <use xlink:href="#d"/>
                    <use xlink:href="#h" x="5.951"/>
                    <use xlink:href="#m" x="13.057"/>
                </g>
            </g>
        </g>
        <path fill="none" d="M139.568 137.058h29.51v18.687h-29.51v-18.687Z" class="typst-shape"/>
        <g class="typst-group">
            <g class="typst-group">
                <g class="typst-text" transform="matrix(1 0 0 -1 145.237 149.966)">
                    <use xlink:href="#d"/>
                    <use xlink:href="#h" x="5.951"/>
                    <use xlink:href="#f" x="13.057"/>
                </g>
            </g>
        </g>
        <path fill="none" d="M139.568 148.397h29.51v18.686h-29.51v-18.686Z" class="typst-shape"/>
        <g class="typst-group">
            <g class="typst-group">
                <g class="typst-text" transform="matrix(1 0 0 -1 145.237 161.304)">
                    <use xlink:href="#d"/>
                    <use xlink:href="#h" x="5.951"/>
                    <use xlink:href="#e" x="13.057"/>
                </g>
            </g>
        </g>
    </g>
    <defs>
        <symbol id="a" overflow="visible">
            <path d="M7.326 3.619c0 2.277-1.573 3.619-3.542 3.619C1.65 7.238.407 5.544.407 3.41.407 1.243 1.98-.11 3.85-.11c1.221 0 2.189.528 2.794 1.386.44.627.682 1.419.682 2.343ZM3.641 6.842c1.452 0 2.629-1.21 2.629-3.432 0-1.969-.946-3.124-2.2-3.124-1.342 0-2.607 1.199-2.607 3.311 0 2.31 1.089 3.245 2.178 3.245Z"/>
        </symbol>
        <symbol id="b" overflow="visible">
            <path d="M3.091 3.971H2.09v1.98c0 .484.132.704.726.704h.825c.825 0 1.001-.44 1.243-1.199a.58.58 0 0 1 .363.055c-.055.451-.22 1.507-.242 1.595 0 .022-.011.033-.044.033a2.47 2.47 0 0 0-.539-.044H1.617c-.33 0-.979.011-1.419.022-.066-.066-.066-.297 0-.363.77-.033.957-.088.957-1.001V1.342C1.155.429.968.374.198.341.132.275.132.044.198-.022A66.02 66.02 0 0 0 1.628 0h2.365c.528 0 1.408-.022 1.408-.022.154.55.319 1.276.407 1.837a.51.51 0 0 1-.385.055C5.203 1.078 4.818.429 3.982.429H2.706c-.462 0-.616.176-.616.693v2.431h1.001c.935 0 .968-.253 1.001-.748.066-.066.297-.066.363 0-.011.286-.022.594-.022.968 0 .308.011.682.022.946-.066.066-.297.066-.363 0-.033-.605-.066-.748-1.001-.748Z"/>
        </symbol>
        <symbol id="c" overflow="visible">
            <path d="M4.345 6.941c-.638.088-.616.297-1.694.297-1.111 0-2.09-.737-2.09-1.903 0-1.155.957-1.683 1.925-2.057.66-.253 1.474-.561 1.474-1.639C3.96.748 3.465.286 2.585.286 1.562.286.902.759.66 1.848a.454.454 0 0 1-.363-.033C.341.968.385.682.517.143c.693 0 1.001-.253 1.98-.253.495 0 .968.121 1.353.363.638.396 1.034 1.067 1.034 1.771 0 1.166-.88 1.683-1.782 2.024-.66.242-1.76.66-1.76 1.584 0 .616.561 1.232 1.21 1.232 1.067 0 1.408-.682 1.628-1.408.121-.022.264-.011.363.066-.044.528-.088.836-.198 1.419Z"/>
        </symbol>
        <symbol id="d" overflow="visible">
            <path d="M1.144 5.753V1.342C1.144.429.957.374.187.341.121.275.121.044.187-.022.682-.011 1.221 0 1.617 0c.385 0 1.034-.011 1.584-.022.066.066.066.297 0 .363-.858.044-1.122.088-1.122 1.001v1.87c.242-.077.506-.11.891-.11 2.002 0 2.607 1.309 2.607 2.244 0 .649-.429 1.826-2.464 1.826-.418 0-1.067-.077-1.507-.077-.407 0-.979.011-1.419.022-.066-.066-.066-.297 0-.363.77-.033.957-.088.957-1.001Zm.935.341c0 .319.165.704.957.704.759 0 1.518-.253 1.518-1.65 0-1.188-.572-1.672-1.639-1.672-.275 0-.715.022-.836.055Z"/>
        </symbol>
        <symbol id="e" overflow="visible">
            <path d="M2.365 6.325c.473 0 .913-.286.913-.99 0-.55-.638-1.397-1.727-1.551l.055-.352c.187.022.385.022.528.022.627 0 1.441-.176 1.441-1.419 0-1.463-.979-1.76-1.364-1.76-.561 0-.66.253-.792.451-.11.154-.253.286-.473.286-.231 0-.462-.209-.462-.385 0-.44.924-.737 1.584-.737 1.309 0 2.475.847 2.475 2.299 0 1.199-.902 1.628-1.551 1.738l-.011.022c.902.429 1.155.88 1.155 1.463 0 .33-.077.594-.341.869-.242.242-.627.429-1.199.429C.979 6.71.517 5.654.517 5.291c0-.154.11-.374.374-.374.385 0 .429.363.429.572 0 .704.759.836 1.045.836Z"/>
        </symbol>
        <symbol id="f" overflow="visible">
            <path d="M.671 5.148c0-.231.209-.429.44-.429.187 0 .517.198.517.44 0 .088-.022.154-.044.231-.022.077-.088.176-.088.264 0 .275.286.671 1.089.671.396 0 .957-.275.957-1.331 0-.704-.253-1.276-.902-1.936l-.814-.803C.748 1.155.572.627.572-.022c0 0 .561.022.913.022H3.41c.352 0 .858-.022.858-.022.143.583.253 1.408.264 1.738-.066.055-.209.077-.319.055C4.026.99 3.839.715 3.443.715H1.485c0 .528.759 1.276.814 1.331L3.41 3.113c.627.605 1.1 1.089 1.1 1.925 0 1.188-.968 1.672-1.859 1.672-1.221 0-1.98-.902-1.98-1.562Z"/>
        </symbol>
        <symbol id="g" overflow="visible">
            <path d="M4.928 6.754c.814-.055.814-.352.583-.946L3.773 1.397h-.044l-1.76 4.477c-.253.66-.187.803.561.88.066.066.066.297 0 .363-.44-.011-.935-.022-1.331-.022-.396 0-.781.011-1.144.022-.066-.066-.055-.297.011-.363.605-.055.693-.242.99-1.001L3.223.121c.066-.176.143-.253.253-.253.121 0 .198.099.264.253l2.277 5.61c.209.517.385.946 1.078 1.023.066.066.066.297 0 .363-.33-.011-.715-.022-.968-.022s-.748.011-1.199.022c-.066-.066-.066-.297 0-.363Z"/>
        </symbol>
        <symbol id="h" overflow="visible">
            <path d="M3.927-.11c1.067 0 2.046.506 2.794 1.485-.055.099-.132.165-.253.165C5.687.682 4.939.341 3.916.341c-1.485 0-2.508 1.672-2.508 3.278 0 .946.253 1.738.649 2.233.55.671 1.188.979 1.76.979 1.518 0 2.123-.902 2.409-1.848.132-.044.242-.011.363.055-.055.572-.132 1.1-.242 1.705-.561.055-1.056.495-2.409.495-.935 0-1.716-.341-2.365-.935C.847 5.632.407 4.554.407 3.41c0-1.914 1.155-3.52 3.52-3.52Z"/>
        </symbol>
        <symbol id="i" overflow="visible">
            <path d="M1.892 5.753c0 .913.165.968 1.012 1.001.066.066.066.297 0 .363a75.686 75.686 0 0 0-1.485-.022c-.429 0-.88.011-1.309.022-.066-.066-.066-.297 0-.363.66-.033.847-.088.847-1.001v-3.19C.957.319 2.409-.11 3.531-.11c2.255 0 2.794 1.397 2.794 3.355v2.508c0 .88.187.924.847 1.001.066.066.066.297 0 .363a53.417 53.417 0 0 0-1.122-.022c-.231 0-.77.011-1.276.022-.066-.066-.066-.297 0-.363.825-.077 1.012-.11 1.012-1.001V3.047c0-1.232-.165-2.706-2.024-2.706-.528 0-.979.198-1.309.517-.539.517-.561 1.353-.561 2.068Z"/>
        </symbol>
        <symbol id="j" overflow="visible">
            <path d="m1.705.869.605 1.595c.055.143.121.187.385.187h2.321L5.654.792C5.786.418 5.368.374 4.84.341c-.066-.066-.066-.297 0-.363C5.247-.011 5.852 0 6.281 0c.451 0 .869-.011 1.254-.022.066.066.066.297 0 .363-.429.044-.803.077-.99.605L4.279 7.238c-.165-.099-.462-.22-.605-.22L1.177 1.122C.891.44.561.374.077.341.011.275.011.044.077-.022.363-.011.726 0 1.056 0c.451 0 1.001-.011 1.408-.022.066.066.066.297 0 .363-.418.033-.935.077-.759.528Zm1.188 2.244c-.242 0-.319.033-.275.143L3.74 6.105h.066L4.84 3.113Z"/>
        </symbol>
        <symbol id="k" overflow="visible">
            <path d="M1.628 7.095c-.396 0-.979.011-1.419.022-.066-.066-.066-.297 0-.363.77-.033.957-.088.957-1.001V1.342C1.166.429.979.374.209.341.143.275.143.044.209-.022.638-.011 1.221 0 1.639 0c.407 0 .869-.022 2.002-.022 1.551 0 3.597.704 3.597 3.41 0 2.046-1.683 3.729-3.795 3.729-.781 0-1.386-.022-1.815-.022ZM2.101.924v5.28c0 .385.385.539.924.539 2.376 0 3.157-1.925 3.157-3.619C6.182.902 4.851.352 3.3.352c-1.078 0-1.199.22-1.199.572Z"/>
        </symbol>
        <symbol id="l" overflow="visible">
            <path d="M2.508-.11c.847 0 2.134.858 2.134 3.443 0 1.089-.264 2.024-.748 2.662-.286.385-.748.715-1.342.715C1.463 6.71.429 5.412.429 3.234c0-1.177.363-2.277.968-2.882A1.52 1.52 0 0 1 2.508-.11Zm.044 6.435a.728.728 0 0 0 .495-.187c.341-.286.638-1.122.638-2.596 0-1.012-.033-1.705-.187-2.266C3.256.374 2.717.275 2.519.275c-1.023 0-1.133 1.881-1.133 2.838 0 2.706.671 3.212 1.166 3.212Z"/>
        </symbol>
        <symbol id="m" overflow="visible">
            <path d="M3.168 1.342v3.817c0 .66.011 1.331.033 1.474 0 .055-.022.055-.066.055-.605-.374-1.188-.649-2.156-1.1.022-.121.066-.231.165-.297.506.209.748.275.957.275.187 0 .22-.264.22-.638V1.342c0-.913-.297-.968-1.067-1.001-.066-.066-.066-.297 0-.363.539.011.935.022 1.529.022.528 0 .792-.011 1.342-.022.066.066.066.297 0 .363-.77.033-.957.088-.957 1.001Z"/>
        </symbol>
        <symbol id="n" overflow="visible">
            <path d="M4.73 2.409h-.913v3.212c0 .55 0 .979.022 1.067l-.022.022h-.352c-.077 0-.132-.066-.176-.121C2.596 5.742 1.32 3.927.308 2.354c.033-.165.099-.462.429-.462h2.244V.88c0-.506-.418-.506-.891-.539-.066-.066-.066-.297 0-.363.352.011.792.022 1.298.022.429 0 .847-.011 1.199-.022.066.066.066.297 0 .363-.539.044-.77.022-.77.539v1.012h.759c.154 0 .319.209.319.341 0 .11-.044.176-.165.176ZM2.981 5.577V2.409H.88c.561.902 1.342 2.134 2.101 3.168Z"/>
        </symbol>
        <symbol id="o" overflow="visible">
            <path d="M3.509 2.079c0-1.045-.55-1.815-1.21-1.815-.418 0-.561.275-.726.495-.143.187-.33.352-.561.352-.209 0-.418-.187-.418-.407 0-.451.935-.825 1.562-.825 1.364 0 2.332 1.012 2.332 2.398 0 1.067-.737 2.024-1.969 2.024-.473 0-.88-.099-1.078-.176l.22 1.837c.407-.044.759-.099 1.287-.099.33 0 .704.022 1.155.066l.176.748-.077.044C3.575 6.655 2.981 6.6 2.398 6.6c-.407 0-.803.022-1.188.055L.836 3.487c.583.22 1.001.264 1.397.264.715 0 1.276-.473 1.276-1.672Z"/>
        </symbol>
        <symbol id="p" overflow="visible">
            <path d="M4.147 7.238c-1.837 0-3.74-1.441-3.74-3.861 0-1.98 1.364-3.487 3.465-3.487 1.298 0 2.321.275 3.069.913-.121.099-.176.187-.176.308v1.276c0 .385.187.495.506.528.066.066.066.33 0 .396a20.995 20.995 0 0 0-.979-.022c-.363 0-.88.011-1.364.022-.066-.066-.066-.33 0-.396.605-.044.902-.088.902-.528V.704C5.456.352 4.719.286 4.125.286c-1.738 0-2.662 1.859-2.662 3.311 0 1.925 1.254 3.245 2.53 3.245 1.595 0 2.046-.913 2.332-1.859a.71.71 0 0 1 .363.066c-.022.462-.077.902-.253 1.694-.66.11-1.067.495-2.288.495Z"/>
        </symbol>
        <symbol id="q" overflow="visible">
            <path d="M6.116 5.632V2.035c0-.209 0-.33-.077-.33-.044 0-.209.198-.528.605L1.738 7.095l-1.485.022c-.066-.066-.066-.297 0-.363.473-.033.803-.418.869-.704V1.463C1.122.484.935.418.165.341.099.275.099.044.165-.022.638-.011 1.133 0 1.397 0c.253 0 .759-.011 1.221-.022.066.066.066.297 0 .363-.77.077-.957.121-.957 1.122v3.366c0 .374 0 .539.088.539.066 0 .187-.121.374-.363L5.962.154c.121-.165.264-.264.44-.264.154 0 .253.132.253.341v5.401c0 .979.187 1.045.957 1.122.066.066.066.297 0 .363a65.22 65.22 0 0 0-1.232-.022c-.231 0-.737.011-1.221.022-.066-.066-.066-.297 0-.363.77-.077.957-.121.957-1.122Z"/>
        </symbol>
        <symbol id="r" overflow="visible">
            <path d="M1.628 7.095c-.396 0-.99.011-1.419.022-.066-.066-.066-.297 0-.363.77-.033.957-.088.957-1.001V1.342C1.166.429.979.374.209.341.143.275.143.044.209-.022A63.95 63.95 0 0 0 1.639 0c.396 0 .682-.022 1.606-.022 2.189 0 2.772 1.1 2.772 2.046 0 1.056-.737 1.661-1.694 1.936v.022c.55.275 1.045.847 1.045 1.441 0 .737-.319 1.694-2.365 1.694-.385 0-.979-.022-1.375-.022Zm.473-3.443h.759c1.507 0 2.134-.847 2.134-1.837 0-.803-.308-1.474-1.98-1.474-.77 0-.913.286-.913.957Zm0 2.398c0 .583 0 .693.957.693.616 0 1.419-.33 1.419-1.452 0-.935-.649-1.265-1.562-1.265h-.814Z"/>
        </symbol>
    </defs>
</svg>