<svg xmlns="http://www.w3.org/2000/svg" width="224.105" height="148.514" class="typst-doc" viewBox="0 0 168.079 111.386"><path fill="#fff" d="M0 0v111.386h168.079V0Z" class="typst-shape"/><g fill="none" class="typst-group"><path stroke="#e6e6e6" stroke-width=".5" d="M27.346 112.386V-1M55.693 112.386V-1M84.04 112.386V-1M112.386 112.386V-1M140.732 112.386V-1M-1 84.04h170.079M-1 55.693h170.079M-1 27.346h170.079M-1 112.386h170.079V-1H-1z" class="typst-shape"/><path stroke="#000" stroke-width=".5" d="M-1 55.693h31.181M52.858 55.693H84.04M84.04 55.693h31.18M137.898 55.693h31.18" class="typst-shape"/><path stroke="#000" stroke-width=".8" d="m52.858 55.693-22.677-9.626M30.182 46.067l-2.61-1.108" class="typst-shape"/><path stroke="#000" stroke-dasharray="6.5 3" stroke-width=".8" d="M41.52 50.88V35.85" class="typst-shape"/><path stroke="#000" stroke-width=".8" d="M36.843 40.386V35.85h9.354v4.536M137.898 55.693l-22.678 9.626M115.221 65.319l-2.61 1.107" class="typst-shape"/><path stroke="#000" stroke-dasharray="6.5 3" stroke-width=".8" d="M126.56 60.506v15.03" class="typst-shape"/><path stroke="#000" stroke-width=".8" d="M121.882 71v4.535h9.354V71" class="typst-shape"/></g></svg>