<svg xmlns="http://www.w3.org/2000/svg" xmlns:xlink="http://www.w3.org/1999/xlink" width="186.31" height="72.924" class="typst-doc" viewBox="0 0 139.732 54.693"><path fill="#fff" d="M0 0v54.693h139.732V0Z" class="typst-shape"/><g class="typst-group"><path fill="none" stroke="#e4e4e7e6" stroke-width=".5" d="M27.346 55.693V-1M55.693 55.693V-1M84.04 55.693V-1M112.386 55.693V-1M-1 27.346h141.732M-1 55.693h141.732V-1H-1v56.693Z" class="typst-shape"/><path fill="none" d="M57.696 2.14h52.687v23.79H57.696V2.14Z" class="typst-shape"/><g class="typst-group"><g class="typst-group"><g class="typst-text" transform="matrix(1 0 0 -1 64.696 16.377)"><use xlink:href="#a"/><use xlink:href="#b" x="9.229"/><use xlink:href="#c" x="14.894"/><use xlink:href="#d" x="22.583"/><use xlink:href="#e" x="28.204"/><use xlink:href="#f" x="33.77"/></g></g></g><path fill="none" d="M16.485 4.581h21.722V25.93H16.485V4.581Z" class="typst-shape"/><g class="typst-group"><g class="typst-group"><use xlink:href="#g" class="typst-text" transform="matrix(1 0 0 -1 23.485 18.82)"/></g></g><path stroke="#000" stroke-width=".4" d="M84.04 25.93a1.418 1.418 0 0 0 0 2.834 1.418 1.418 0 0 0 0-2.835ZM27.346 25.93a1.418 1.418 0 0 0 0 2.834 1.418 1.418 0 0 0 0-2.835Z" class="typst-shape"/></g><defs><symbol id="a" overflow="visible"><path d="M7.293 1.276c.055-.891.011-.902-.704-.935-.066-.066-.066-.297 0-.363.407.011.847.022 1.177.022.33 0 .836-.011 1.199-.022.066.066.066.297 0 .363-.748.033-.781.077-.847.99l-.33 4.631c-.044.594.011.748.759.792.066.066.066.297 0 .363l-1.441-.022-2.332-5.577c-.044-.11-.077-.154-.099-.154-.022 0-.055.055-.088.143L2.332 7.095l-1.595.022c-.066-.066-.066-.297 0-.363.759-.044.825-.066.748-.891l-.44-4.532C.979.671.847.396.22.341.154.275.154.044.22-.022.55-.011.902 0 1.166 0 1.43 0 1.87-.011 2.2-.022c.066.066.066.297 0 .363-.726.055-.781.396-.726 1.012l.418 4.411h.022L4.191.055c.033-.077.099-.165.165-.165s.11.077.154.165l2.475 5.819h.022Z"/></symbol><symbol id="b" overflow="visible"><path d="M2.244-1.76c.176.308.319.616.451.946.88 2.123 1.375 3.256 1.947 4.488.22.462.374.638.891.704.066.066.066.297 0 .363-.22-.011-.473-.022-.781-.022-.33 0-.671.011-1.001.022-.066-.066-.066-.297 0-.363.352-.033.704-.099.528-.495L3.19 1.364c-.077-.176-.176-.209-.264.011l-.979 2.288c-.198.462-.253.671.363.715.066.066.066.297 0 .363a47.686 47.686 0 0 0-1.243-.022c-.374 0-.671.011-.891.022-.066-.066-.066-.297 0-.363.44-.055.583-.154.869-.825L2.288.66c.099-.22.264-.726.154-1.034a10.342 10.342 0 0 0-.429-1.012c-.121-.22-.275-.319-.55-.319-.154 0-.198.033-.319.033-.319 0-.484-.33-.484-.473 0-.231.22-.407.517-.407.231 0 .671.088 1.067.792Z"/></symbol><symbol id="c" overflow="visible"><path d="M6.116 5.632V2.035c0-.209 0-.33-.077-.33-.044 0-.209.198-.528.605L1.738 7.095l-1.485.022c-.066-.066-.066-.297 0-.363.473-.033.803-.418.869-.704V1.463C1.122.484.935.418.165.341.099.275.099.044.165-.022.638-.011 1.133 0 1.397 0c.253 0 .759-.011 1.221-.022.066.066.066.297 0 .363-.77.077-.957.121-.957 1.122v3.366c0 .374 0 .539.088.539.066 0 .187-.121.374-.363L5.962.154c.121-.165.264-.264.44-.264.154 0 .253.132.253.341v5.401c0 .979.187 1.045.957 1.122.066.066.066.297 0 .363a65.22 65.22 0 0 0-1.232-.022c-.231 0-.737.011-1.221.022-.066-.066-.066-.297 0-.363.77-.077.957-.121.957-1.122Z"/></symbol><symbol id="d" overflow="visible"><path d="M.451 2.255c0-1.122.748-2.365 2.31-2.365.704 0 1.243.253 1.617.616.495.484.715 1.177.715 1.848 0 1.144-.627 2.475-2.31 2.475-.726 0-1.32-.297-1.727-.77C.66 3.586.451 2.948.451 2.255Zm2.167 2.189c.946 0 1.529-.858 1.529-2.442C4.147.616 3.432.275 2.915.275c-1.144 0-1.518 1.386-1.518 2.233 0 .957.231 1.936 1.221 1.936Z"/></symbol><symbol id="e" overflow="visible"><path d="M3.674.55c.055.044.154.066.165-.011.033-.264.121-.649.121-.649a.274.274 0 0 1 .209 0c.242.198.627.363 1.298.44.066.066.066.231 0 .297-.704.055-.803.264-.803.803v4.983c0 .715.044 1.155.044 1.155 0 .077-.044.11-.143.11-.275-.11-1.1-.264-1.54-.297-.022-.088 0-.264.066-.33h.099c.484-.033.605-.033.605-.902V4.741c0-.077-.022-.099-.099-.099-.044 0-.495.187-.858.187-.726 0-1.21-.242-1.65-.66C.715 3.696.429 3.047.429 2.233.429.88 1.111-.11 2.299-.11c.429 0 .836.22 1.375.66Zm.121.814c0-.209-.022-.297-.176-.429C3.212.583 2.86.407 2.585.407c-.594 0-1.21.649-1.21 2.024 0 .792.154 1.232.319 1.463.341.517.803.55 1.023.55.396 0 .671-.143.891-.396.154-.176.187-.253.187-.594Z"/></symbol><symbol id="f" overflow="visible"><path d="M4.246 1.023C3.839.605 3.52.429 2.882.429c-.396 0-.858.231-1.199.792-.22.363-.352.869-.352 1.507l2.926-.022c.132 0 .209.066.209.187 0 .924-.33 1.914-1.859 1.914-.957 0-2.2-.913-2.2-2.585 0-.616.154-1.21.517-1.628.374-.44.891-.704 1.683-.704.836 0 1.43.385 1.87.957-.033.11-.099.165-.231.176ZM1.364 3.102c.209 1.243.979 1.342 1.243 1.342.418 0 .913-.231.913-1.155 0-.099-.044-.154-.165-.154Z"/></symbol><symbol id="g" overflow="visible"><path d="M7.326 3.619c0 2.277-1.573 3.619-3.542 3.619C1.65 7.238.407 5.544.407 3.41.407 1.243 1.98-.11 3.85-.11c1.221 0 2.189.528 2.794 1.386.44.627.682 1.419.682 2.343ZM3.641 6.842c1.452 0 2.629-1.21 2.629-3.432 0-1.969-.946-3.124-2.2-3.124-1.342 0-2.607 1.199-2.607 3.311 0 2.31 1.089 3.245 2.178 3.245Z"/></symbol></defs></svg>