<svg xmlns="http://www.w3.org/2000/svg" xmlns:xlink="http://www.w3.org/1999/xlink" width="148.514" height="129.617" class="typst-doc" viewBox="0 0 111.386 97.213"><path fill="#fff" d="M0 0v97.213h111.386V0Z" class="typst-shape"/><g class="typst-group"><path fill="none" stroke="#e4e4e7e6" stroke-width=".5" d="M27.346 98.213V-1m28.347 99.213V-1M84.04 98.213V-1M-1 69.866h113.386M-1 41.52h113.386M-1-1v99.213h113.386V-1m0 14.173H-1" class="typst-shape"/><path fill="none" d="M71.5 47.189h25.078v21.26H71.5z" class="typst-shape"/><g class="typst-group"><g class="typst-group"><g class="typst-text" transform="matrix(1 0 0 -1 78.5 61.427)"><use xlink:href="#a"/><use xlink:href="#b" x="5.962"/></g></g></g><path fill="none" d="M71.5 18.842h25.078v21.26H71.5z" class="typst-shape"/><g class="typst-group"><g class="typst-group"><g class="typst-text" transform="matrix(1 0 0 -1 78.5 33.08)"><use xlink:href="#a"/><use xlink:href="#c" x="5.962"/></g></g></g><path fill="none" d="M16.485 18.754h21.722v21.348H16.485z" class="typst-shape"/><g class="typst-group"><g class="typst-group"><use xlink:href="#d" class="typst-text" transform="matrix(1 0 0 -1 23.485 32.992)"/></g></g><path stroke="#000" stroke-width=".4" d="M84.04 68.449a1.418 1.418 0 0 0 0 2.834 1.418 1.418 0 0 0 0-2.834Zm0-28.347a1.418 1.418 0 0 0 0 2.835 1.418 1.418 0 0 0 0-2.835Zm-56.694 0a1.418 1.418 0 0 0 0 2.835 1.418 1.418 0 0 0 0-2.835Z" class="typst-shape"/></g><defs><symbol id="a" overflow="visible"><path d="M2.024 3.938c-.066-.077-.132-.099-.132 0-.011.297-.033.726-.088.836-.022.055-.044.088-.132.088-.308-.121-.594-.22-1.353-.319-.022-.066 0-.242.022-.308.594-.055.715-.11.715-.748V1.342C1.056.44.946.396.286.341.22.275.22.044.286-.022a30 30 0 0 0 2.31 0c.066.066.066.297 0 .363-.561.055-.671.099-.671 1.001v1.804c0 .231.099.363.187.462.418.407.913.649 1.342.649.22 0 .451-.143.583-.396.11-.22.132-.517.132-.847V1.342c0-.902-.11-.946-.682-1.001-.055-.066-.055-.297 0-.363.33.011.682.022 1.122.022s.836-.011 1.166-.022c.055.066.055.297 0 .363-.616.055-.737.099-.737 1.001v1.639c0 .605-.044 1.133-.297 1.474-.187.242-.528.374-.913.374-.539 0-1.155-.143-1.804-.891"/></symbol><symbol id="b" overflow="visible"><path d="M3.168 1.342v3.817c0 .66.011 1.331.033 1.474 0 .055-.022.055-.066.055-.605-.374-1.188-.649-2.156-1.1.022-.121.066-.231.165-.297.506.209.748.275.957.275.187 0 .22-.264.22-.638V1.342c0-.913-.297-.968-1.067-1.001-.066-.066-.066-.297 0-.363.539.011.935.022 1.529.022.528 0 .792-.011 1.342-.022.066.066.066.297 0 .363-.77.033-.957.088-.957 1.001"/></symbol><symbol id="c" overflow="visible"><path d="M.671 5.148c0-.231.209-.429.44-.429.187 0 .517.198.517.44 0 .088-.022.154-.044.231s-.088.176-.088.264c0 .275.286.671 1.089.671.396 0 .957-.275.957-1.331 0-.704-.253-1.276-.902-1.936l-.814-.803C.748 1.155.572.627.572-.022c0 0 .561.022.913.022H3.41c.352 0 .858-.022.858-.022.143.583.253 1.408.264 1.738-.066.055-.209.077-.319.055C4.026.99 3.839.715 3.443.715H1.485c0 .528.759 1.276.814 1.331L3.41 3.113c.627.605 1.1 1.089 1.1 1.925 0 1.188-.968 1.672-1.859 1.672-1.221 0-1.98-.902-1.98-1.562"/></symbol><symbol id="d" overflow="visible"><path d="M7.326 3.619c0 2.277-1.573 3.619-3.542 3.619C1.65 7.238.407 5.544.407 3.41.407 1.243 1.98-.11 3.85-.11c1.221 0 2.189.528 2.794 1.386.44.627.682 1.419.682 2.343M3.641 6.842c1.452 0 2.629-1.21 2.629-3.432 0-1.969-.946-3.124-2.2-3.124-1.342 0-2.607 1.199-2.607 3.311 0 2.31 1.089 3.245 2.178 3.245"/></symbol></defs></svg>