<svg xmlns="http://www.w3.org/2000/svg" xmlns:xlink="http://www.w3.org/1999/xlink" width="186.31" height="186.31" class="typst-doc" viewBox="0 0 139.732 139.732"><path fill="#fff" d="M0 0v139.732h139.732V0Z" class="typst-shape"/><g class="typst-group"><path fill="none" stroke="#e4e4e7e6" stroke-width=".5" d="M27.346 140.732V-1m28.347 141.732V-1M84.04 140.732V-1m28.346 141.732V-1M-1 112.386h141.732M-1 84.04h141.732M-1 55.693h141.732M-1 27.346h141.732M-1 140.732h141.732V-1H-1z" class="typst-shape"/><path fill="none" stroke="#000" stroke-width=".5" d="M27.346 112.386h22.536m39.968 0h22.536m0 0V84.89m0-30.047V27.346" class="typst-shape"/><path fill="none" d="M16.485 89.62h21.722v21.349H16.485z" class="typst-shape"/><g class="typst-group"><g class="typst-group"><use xlink:href="#a" class="typst-text" transform="matrix(1 0 0 -1 23.485 103.859)"/></g></g><path fill="#fff" stroke="#000" stroke-width=".8" d="M49.882 105.724v13.323H89.85v-13.323zm47.48-35.858c0 8.29 6.734 15.024 15.024 15.024s15.023-6.734 15.023-15.024-6.733-15.023-15.023-15.023-15.024 6.733-15.024 15.023Z" class="typst-shape"/><path fill="none" stroke="#000" stroke-width=".8" d="M112.386 84.89V54.843" class="typst-shape"/><path stroke="#000" stroke-width=".4" d="M27.346 110.969a1.418 1.418 0 0 0 0 2.834 1.418 1.418 0 0 0 0-2.834Z" class="typst-shape"/></g><defs><symbol id="a" overflow="visible"><path d="M7.326 3.619c0 2.277-1.573 3.619-3.542 3.619C1.65 7.238.407 5.544.407 3.41.407 1.243 1.98-.11 3.85-.11c1.221 0 2.189.528 2.794 1.386.44.627.682 1.419.682 2.343M3.641 6.842c1.452 0 2.629-1.21 2.629-3.432 0-1.969-.946-3.124-2.2-3.124-1.342 0-2.607 1.199-2.607 3.311 0 2.31 1.089 3.245 2.178 3.245"/></symbol></defs></svg>