<svg xmlns="http://www.w3.org/2000/svg" xmlns:xlink="http://www.w3.org/1999/xlink" width="261.9" height="186.31" class="typst-doc" viewBox="0 0 196.425 139.732"><path fill="#fff" d="M0 0v139.732h196.425V0Z" class="typst-shape"/><g class="typst-group"><path fill="none" stroke="#e4e4e7e6" stroke-width=".5" d="M27.346 140.732V-1m28.347 141.732V-1M84.04 140.732V-1m28.346 141.732V-1m28.346 141.732V-1m28.347 141.732V-1M-1 112.386h198.425M-1 84.04h198.425M-1 55.693h198.425M-1 27.346h198.425M-1 140.732h198.425V-1H-1z" class="typst-shape"/><path fill="none" stroke="#000" stroke-width=".5" d="M55.693 27.346h22.535m39.969 0h22.535m28.347 85.04V89.85m0-39.968V27.346" class="typst-shape"/><path fill="none" d="M16.485 4.581h21.722V25.93H16.485z" class="typst-shape"/><g class="typst-group"><g class="typst-group"><use xlink:href="#a" class="typst-text" transform="matrix(1 0 0 -1 23.485 18.82)"/></g></g><path fill="#fff" stroke="#000" stroke-width=".8" d="M78.228 20.685v13.323h39.969V20.685zm84.189 69.165h13.323V49.882h-13.323z" class="typst-shape"/><path stroke="#000" stroke-width=".4" d="M27.346 25.93a1.418 1.418 0 0 0 0 2.834 1.418 1.418 0 0 0 0-2.835Z" class="typst-shape"/></g><defs><symbol id="a" overflow="visible"><path d="M7.326 3.619c0 2.277-1.573 3.619-3.542 3.619C1.65 7.238.407 5.544.407 3.41.407 1.243 1.98-.11 3.85-.11c1.221 0 2.189.528 2.794 1.386.44.627.682 1.419.682 2.343M3.641 6.842c1.452 0 2.629-1.21 2.629-3.432 0-1.969-.946-3.124-2.2-3.124-1.342 0-2.607 1.199-2.607 3.311 0 2.31 1.089 3.245 2.178 3.245"/></symbol></defs></svg>