<svg xmlns="http://www.w3.org/2000/svg" xmlns:xlink="http://www.w3.org/1999/xlink" width="299.696" height="91.822" class="typst-doc" viewBox="0 0 224.772 68.866">
    <path fill="#fff" d="M0 0v68.866h224.772V0Z" class="typst-shape"/>
    <g class="typst-group">
        <path fill="none" stroke="#e4e4e7e6" stroke-width=".5" d="M27.346 69.866V-1m28.347 70.866V-1M84.04 69.866V-1m28.346 70.866V-1m28.346 70.866V-1m28.347 70.866V-1m28.346 70.866V-1M-1 41.52h226.772M-1-1v70.866h226.772V-1m0 14.173H-1" class="typst-shape"/>
        <path fill="none" d="M16.485 18.754h21.722v21.348H16.485V18.754Z" class="typst-shape"/>
        <g class="typst-group">
            <g class="typst-group">
                <use xlink:href="#a" class="typst-text" transform="matrix(1 0 0 -1 23.485 32.992)"/>
            </g>
        </g>
        <path fill="none" d="M54.92 14.048h29.893v20.81H54.92v-20.81Z" class="typst-shape"/>
        <g class="typst-group">
            <g class="typst-group">
                <g class="typst-text" transform="matrix(1 0 0 -1 61.92 27.734)">
                    <use xlink:href="#b"/>
                    <use xlink:href="#c" x="5.298"/>
                    <use xlink:href="#d" x="10.596"/>
                </g>
            </g>
        </g>
        <path fill="none" stroke="#000" stroke-width=".5" d="M27.346 41.52h22.536m39.968 0h22.536" class="typst-shape"/>
        <path fill="none" d="M137.31 14.048h35.192v20.81h-35.193v-20.81Z" class="typst-shape"/>
        <g class="typst-group">
            <g class="typst-group">
                <g class="typst-text" transform="matrix(1 0 0 -1 144.31 27.734)">
                    <use xlink:href="#b"/>
                    <use xlink:href="#c" x="5.298"/>
                    <use xlink:href="#c" x="10.596"/>
                    <use xlink:href="#c" x="15.894"/>
                </g>
            </g>
        </g>
        <path fill="none" stroke="#000" stroke-width=".5" d="M112.386 41.52h22.535m39.969 0h22.535" class="typst-shape"/>
        <path stroke="#000" stroke-width=".4" d="M27.346 40.102a1.418 1.418 0 0 0 0 2.835 1.418 1.418 0 0 0 0-2.835Z" class="typst-shape"/>
        <path fill="#fff" stroke="#000" stroke-width=".8" d="M49.882 34.858v13.323H89.85V34.858H49.882Z" class="typst-shape"/>
        <path fill="none" stroke="#000" stroke-width=".8" d="m134.921 41.52 3.331-6.662 6.661 13.323 6.662-13.323 6.661 13.323 6.662-13.323 6.661 13.323 3.33-6.661" class="typst-shape"/>
    </g>
    <defs>
        <symbol id="a" overflow="visible">
            <path d="M7.326 3.619c0 2.277-1.573 3.619-3.542 3.619C1.65 7.238.407 5.544.407 3.41.407 1.243 1.98-.11 3.85-.11c1.221 0 2.189.528 2.794 1.386.44.627.682 1.419.682 2.343ZM3.641 6.842c1.452 0 2.629-1.21 2.629-3.432 0-1.969-.946-3.124-2.2-3.124-1.342 0-2.607 1.199-2.607 3.311 0 2.31 1.089 3.245 2.178 3.245Z"/>
        </symbol>
        <symbol id="b" overflow="visible">
            <path d="M1.1 4.813h2.024V.614h1.568V0H.765v.614h1.568v3.584H1.1v.614Zm1.233 1.873h.79V5.685h-.79v1Z"/>
        </symbol>
        <symbol id="c" overflow="visible">
            <path d="M4.778 2.604v-.387H1.354v-.026q0-.786.41-1.216.41-.43 1.158-.43.378 0 .79.121.413.12.881.365V.245q-.45-.185-.87-.277-.419-.093-.81-.093-1.121 0-1.753.673-.63.672-.63 1.854 0 1.152.618 1.839.619.688 1.65.688.92 0 1.45-.624.531-.623.531-1.701Zm-.79.232q-.018.696-.33 1.06-.31.362-.895.362-.572 0-.941-.378-.37-.378-.438-1.048l2.604.004Z"/>
        </symbol>
        <symbol id="d" overflow="visible">
            <path d="M4.559.245Q4.241.06 3.904-.032q-.338-.093-.69-.093-1.117 0-1.747.67-.63.671-.63 1.857t.63 1.856q.63.67 1.747.67.348 0 .679-.09.33-.09.666-.279v-.83q-.314.28-.63.405-.315.124-.715.124-.743 0-1.143-.481t-.4-1.375q0-.89.402-1.373T3.214.546q.413 0 .74.126.326.127.605.394V.245Z"/>
        </symbol>
    </defs>
</svg>