<svg xmlns="http://www.w3.org/2000/svg" width="202" height="34" fill="none" viewBox="0 0 202 34"><g clip-path="url(#a)"><path fill="url(#b)" fill-opacity=".3" d="M0 0h202v34H0z"/><path fill="#ffe100" d="m25.464 14.986-.677 2.01c-.096.277-.033.7.137.938l1.005 1.41c.642.902.259 1.648-.855 1.649L23.19 21c-.32.002-.715.224-.888.494l-.902 1.44c-.716 1.14-1.563 1.01-1.892-.288l-.456-1.808c-.083-.326-.42-.663-.75-.75l-1.807-.454c-1.294-.326-1.424-1.18-.289-1.892l1.44-.903c.271-.172.494-.569.495-.888l.007-1.885c.006-1.11.748-1.496 1.65-.854l1.41 1.005c.235.166.656.23.934.133l2.01-.677c1.092-.366 1.683.225 1.314 1.313M39.278-1.227l.943 1.9c.128.264.47.518.76.566l1.707.287c1.092.183 1.35.982.562 1.77l-1.328 1.339c-.224.226-.348.663-.278.977l.38 1.657c.3 1.311-.39 1.818-1.542 1.133l-1.6-.956c-.29-.172-.766-.172-1.06 0l-1.6.956c-1.146.685-1.842.172-1.542-1.133l.38-1.657c.07-.314-.053-.751-.278-.977l-1.328-1.339c-.781-.788-.53-1.587.562-1.77l1.708-.287c.284-.048.626-.302.755-.566l.942-1.9c.514-1.03 1.35-1.03 1.858 0m98.579 2.635.198 2.112c.026.293.255.652.507.801l1.491.88c.954.562.908 1.4-.109 1.853l-1.719.774c-.291.131-.563.495-.61.813l-.239 1.683c-.191 1.332-1.017 1.557-1.846.505l-1.152-1.466c-.208-.264-.653-.435-.989-.38l-1.836.32c-1.316.229-1.781-.5-1.034-1.611l.949-1.41c.177-.268.219-.72.09-1.013l-.76-1.725c-.446-1.016.075-1.671 1.16-1.451l1.697.344c.282.057.693-.057.907-.258l1.561-1.436c.849-.778 1.629-.479 1.734.665m67.14 16.039.014 2.12c-.001.295.196.673.435.843l1.408 1.006c.902.644.782 1.474-.27 1.837l-1.78.621c-.302.105-.604.445-.679.757l-.385 1.655c-.305 1.31-1.148 1.464-1.882.343l-1.02-1.56c-.184-.282-.613-.491-.953-.465l-1.856.158c-1.331.113-1.731-.653-.889-1.695l1.068-1.323c.199-.25.28-.698.178-1l-.607-1.785c-.356-1.051.22-1.658 1.281-1.345l1.661.492c.276.08.695.003.927-.179l1.679-1.294c.914-.701 1.665-.335 1.67.814M94.414 9.313l-1.265 3.754c-.18.52-.063 1.307.256 1.752l1.876 2.634c1.2 1.685.485 3.08-1.596 3.08l-3.521.015c-.596.002-1.337.417-1.658.923l-1.687 2.69c-1.336 2.128-2.918 1.886-3.533-.54l-.852-3.376c-.154-.61-.784-1.239-1.4-1.4l-3.375-.85c-2.419-.609-2.66-2.205-.54-3.534l2.69-1.686c.506-.322.921-1.062.924-1.659l.014-3.521c.01-2.073 1.396-2.795 3.08-1.596l2.635 1.877c.438.312 1.226.429 1.745.25L91.96 6.86c2.04-.682 3.143.421 2.453 2.454M120.414.313l-1.265 3.754c-.18.52-.063 1.307.256 1.753l1.876 2.633c1.2 1.685.485 3.08-1.596 3.08l-3.521.015c-.596.002-1.337.417-1.658.923l-1.687 2.69c-1.336 2.129-2.918 1.886-3.533-.54l-.852-3.376c-.154-.61-.784-1.239-1.4-1.4l-3.375-.85c-2.419-.609-2.66-2.205-.54-3.534l2.691-1.686c.505-.322.92-1.063.922-1.659l.015-3.521c.01-2.073 1.396-2.795 3.081-1.596l2.633 1.877c.439.312 1.227.429 1.746.25l3.754-1.266c2.04-.682 3.143.421 2.453 2.454m48 4.999-1.265 3.754c-.18.52-.063 1.307.256 1.752l1.876 2.634c1.2 1.685.485 3.08-1.596 3.08l-3.521.015c-.596.002-1.337.417-1.658.923l-1.687 2.69c-1.336 2.128-2.918 1.886-3.533-.54l-.852-3.376c-.154-.61-.784-1.239-1.4-1.4l-3.375-.85c-2.419-.609-2.66-2.205-.54-3.534l2.691-1.686c.505-.322.92-1.063.922-1.659l.015-3.521c.01-2.073 1.396-2.795 3.081-1.596l2.633 1.877c.439.312 1.227.429 1.746.25l3.754-1.266c2.04-.682 3.143.421 2.453 2.454m30-7.001-1.265 3.754c-.18.52-.063 1.307.256 1.753l1.876 2.633c1.2 1.685.485 3.08-1.596 3.08l-3.521.015c-.596.002-1.337.417-1.658.923l-1.687 2.69c-1.336 2.129-2.918 1.886-3.533-.54l-.852-3.376c-.154-.61-.784-1.239-1.4-1.4l-3.375-.85c-2.419-.609-2.66-2.205-.54-3.534l2.691-1.686c.505-.322.92-1.063.922-1.659l.015-3.521c.01-2.073 1.396-2.795 3.081-1.596l2.633 1.877c.439.312 1.227.429 1.746.25l3.754-1.266c2.04-.682 3.143.421 2.453 2.454m-183-.001-1.265 3.754c-.18.52-.063 1.307.256 1.753l1.876 2.633c1.2 1.685.485 3.08-1.596 3.08l-3.521.015c-.596.002-1.337.417-1.658.923l-1.687 2.69c-1.336 2.129-2.918 1.886-3.533-.54l-.852-3.376c-.154-.61-.784-1.239-1.4-1.4l-3.375-.85c-2.419-.609-2.66-2.205-.54-3.534L.81 1.775c.506-.322.921-1.063.923-1.659l.015-3.521c.01-2.073 1.396-2.795 3.08-1.596l2.634 1.877c.439.312 1.227.429 1.746.25L12.96-4.14c2.04-.682 3.143.421 2.453 2.454m38.758-.586 3.754 1.265c.52.18 1.307.062 1.752-.256l2.634-1.876c1.685-1.2 3.08-.485 3.08 1.596l.015 3.521c.002.596.417 1.336.922 1.658l2.691 1.687c2.128 1.336 1.886 2.918-.54 3.533l-3.376.852c-.61.154-1.239.784-1.4 1.4l-.85 3.375c-.609 2.418-2.205 2.66-3.534.54l-1.687-2.69c-.321-.507-1.062-.921-1.658-.924l-3.521-.014c-2.073-.01-2.795-1.396-1.596-3.08l1.877-2.635c.311-.438.429-1.226.25-1.745L51.717.181c-.682-2.04.421-3.143 2.454-2.453"/></g><defs><linearGradient id="b" x1="101" x2="101" y1="0" y2="34" gradientUnits="userSpaceOnUse"><stop stop-color="#ffe100"/><stop offset="1" stop-color="#fffb00" stop-opacity="0"/></linearGradient><clipPath id="a"><path fill="#fff" d="M0 0h202v34H0z"/></clipPath></defs></svg>