<svg xmlns="http://www.w3.org/2000/svg" xmlns:xlink="http://www.w3.org/1999/xlink" width="370.286" height="148.514" class="typst-doc" viewBox="0 0 281.465 111.386"><path fill="#fff" d="M0 0v111.386h281.465V0Z" class="typst-shape"/><g class="typst-group"><path fill="none" stroke="#e4e4e7e6" stroke-width=".5" d="M27.346 112.386V-1M55.693 112.386V-1M84.04 112.386V-1M112.386 112.386V-1M140.732 112.386V-1M169.079 112.386V-1M197.425 112.386V-1M225.772 112.386V-1M254.118 112.386V-1M-1 84.04h283.465M-1 55.693h283.465M-1 27.346h283.465M-1 112.386h283.465V-1H-1v113.386Z" class="typst-shape"/><path fill="none" d="M16.485 32.928h21.722v21.348H16.485V32.928Z" class="typst-shape"/><g class="typst-group"><g class="typst-group"><use xlink:href="#a" class="typst-text" transform="matrix(1 0 0 -1 23.485 47.166)"/></g></g><path fill="none" stroke="#000" stroke-width=".5" d="M55.693 55.693h27.496M113.236 55.693h27.496" class="typst-shape"/><path fill="none" d="M92.568 16.703h11.29v10.23h-11.29v-10.23Z" class="typst-shape"/><g class="typst-group"><g class="typst-group"><use xlink:href="#b" class="typst-text" transform="matrix(1 0 0 -1 92.568 24.216)"/><use xlink:href="#c" class="typst-text" transform="matrix(1 0 0 -1 98.86 26.933)"/></g></g><path fill="none" stroke="#000" stroke-width=".55" d="M71.85 37.835c8.592-2.826 17.304-5.67 26.363-5.67 6.908 0 13.614 1.654 20.22 3.693" class="typst-shape"/><path stroke="#000" stroke-width=".55" d="m123.83 37.593-6.049.272 1.313-4.044 4.736 3.772Z" class="typst-shape"/><path fill="none" stroke="#000" stroke-width=".5" d="M169.079 55.693h27.496M226.622 55.693h27.496" class="typst-shape"/><path fill="none" d="M205.954 74.105h11.29v10.23h-11.29v-10.23Z" class="typst-shape"/><g class="typst-group"><g class="typst-group"><use xlink:href="#b" class="typst-text" transform="matrix(1 0 0 -1 205.954 81.618)"/><use xlink:href="#c" class="typst-text" transform="matrix(1 0 0 -1 212.246 84.335)"/></g></g><path fill="none" stroke="#000" stroke-width=".55" d="M237.96 81.551c-8.591 2.826-17.303 5.67-26.362 5.67-6.908 0-13.614-1.654-20.22-3.693" class="typst-shape"/><path stroke="#000" stroke-width=".55" d="m185.981 81.793 6.049-.272-1.313 4.044-4.736-3.772Z" class="typst-shape"/><path stroke="#000" stroke-width=".4" d="M27.346 54.276a1.418 1.418 0 0 0 0 2.834 1.418 1.418 0 0 0 0-2.834Z" class="typst-shape"/><path fill="#fff" stroke="#000" stroke-width=".8" d="M98.213 40.67c-8.29 0-15.024 6.733-15.024 15.023s6.734 15.024 15.024 15.024 15.023-6.734 15.023-15.024-6.734-15.024-15.023-15.024Z" class="typst-shape"/><path fill="none" stroke="#000" stroke-width=".8" d="M83.189 55.693h30.047" class="typst-shape"/><path fill="#fff" stroke="#000" stroke-width=".8" d="M211.598 40.67c-8.29 0-15.023 6.733-15.023 15.023s6.734 15.024 15.023 15.024c8.29 0 15.024-6.734 15.024-15.024s-6.734-15.024-15.024-15.024Z" class="typst-shape"/><path fill="none" stroke="#000" stroke-width=".8" d="M196.575 55.693h30.047" class="typst-shape"/></g><defs><symbol id="a" overflow="visible"><path d="M7.326 3.619c0 2.277-1.573 3.619-3.542 3.619C1.65 7.238.407 5.544.407 3.41.407 1.243 1.98-.11 3.85-.11c1.221 0 2.189.528 2.794 1.386.44.627.682 1.419.682 2.343ZM3.641 6.842c1.452 0 2.629-1.21 2.629-3.432 0-1.969-.946-3.124-2.2-3.124-1.342 0-2.607 1.199-2.607 3.311 0 2.31 1.089 3.245 2.178 3.245Z"/></symbol><symbol id="b" overflow="visible"><path d="M5.973 1.584c0 .099-.055.154-.176.154-.099 0-.154-.077-.187-.231-.055-.209-.11-.418-.187-.627C5.28.429 5.082.198 4.84.198c-.198 0-.297.154-.297.462 0 .187.077.561.22 1.111l.297 1.166c.099.396.187.671.253 1.012l.066.297a.7.7 0 0 1 .033.165c0 .22-.121.33-.363.33s-.396-.132-.462-.407l-.814-3.256A1.475 1.475 0 0 0 3.63.836C3.454.55 3.025.198 2.585.198c-.418 0-.627.286-.627.847 0 .451.198 1.177.583 2.189.121.33.187.561.187.693 0 .55-.385.935-.935.935-.495 0-.88-.275-1.155-.825-.209-.429-.319-.726-.319-.88 0-.099.055-.154.176-.154.143 0 .165.066.209.22.253.88.605 1.32 1.056 1.32.154 0 .231-.11.231-.319 0-.165-.066-.396-.187-.715-.418-1.111-.627-1.881-.627-2.288 0-.847.528-1.342 1.375-1.342.473 0 .902.22 1.265.671.154-.451.484-.671.99-.671.759 0 .99.891 1.166 1.705Z"/></symbol><symbol id="c" overflow="visible"><path d="M2.333 5.113c-.331-.324-.824-.485-1.494-.485v-.34c.455 0 .816.07 1.094.201V.655c0-.1-.008-.162-.031-.193-.039-.085-.27-.13-.693-.13H.893V0l1.37.03L3.644 0v.331h-.317c-.423 0-.654.046-.7.131a.501.501 0 0 0-.023.192v4.212c0 .208-.031.247-.27.247Z"/></symbol></defs></svg>