<svg xmlns="http://www.w3.org/2000/svg" xmlns:xlink="http://www.w3.org/1999/xlink" width="299.696" height="186.31" class="typst-doc" viewBox="0 0 224.772 139.732"><path fill="#fff" d="M0 0v139.732h224.772V0Z" class="typst-shape"/><g class="typst-group"><path fill="none" stroke="#e4e4e7e6" stroke-width=".5" d="M27.346 140.732V-1M55.693 140.732V-1M84.04 140.732V-1M112.386 140.732V-1M140.732 140.732V-1M169.079 140.732V-1M197.425 140.732V-1M-1 112.386h226.772M-1 84.04h226.772M-1 55.693h226.772M-1 27.346h226.772M-1 140.732h226.772V-1H-1v141.732Z" class="typst-shape"/><path fill="none" d="M16.485 61.274h21.722v21.348H16.485V61.274Z" class="typst-shape"/><g class="typst-group"><g class="typst-group"><use xlink:href="#a" class="typst-text" transform="matrix(1 0 0 -1 23.485 75.512)"/></g></g><path fill="none" stroke="#000" stroke-width=".5" d="M27.346 84.04h28.347" class="typst-shape"/><path fill="none" stroke="#0074d9" stroke-width=".5" d="M84.04 84.04h28.346V27.345h28.346" class="typst-shape"/><path fill="none" stroke="#ff4136" stroke-width=".5" d="M169.079 27.346h28.346v85.04" class="typst-shape"/><path stroke="#000" stroke-width=".4" d="M27.346 82.622a1.418 1.418 0 0 0 0 2.835 1.418 1.418 0 0 0 0-2.835Z" class="typst-shape"/></g><defs><symbol id="a" overflow="visible"><path d="M7.326 3.619c0 2.277-1.573 3.619-3.542 3.619C1.65 7.238.407 5.544.407 3.41.407 1.243 1.98-.11 3.85-.11c1.221 0 2.189.528 2.794 1.386.44.627.682 1.419.682 2.343ZM3.641 6.842c1.452 0 2.629-1.21 2.629-3.432 0-1.969-.946-3.124-2.2-3.124-1.342 0-2.607 1.199-2.607 3.311 0 2.31 1.089 3.245 2.178 3.245Z"/></symbol></defs></svg>