<svg class="typst-doc" viewBox="0 0 97.87401574803148 23.322834645669293" width="97.87401574803148pt" height="23.322834645669293pt" xmlns="http://www.w3.org/2000/svg" xmlns:xlink="http://www.w3.org/1999/xlink" xmlns:h5="http://www.w3.org/1999/xhtml">
    <path class="typst-shape" fill="#ffffff" fill-rule="nonzero" d="M 0 0 L 0 23.322834 L 97.874016 23.322834 L 97.874016 0 Z "/>
    <g>
        <g transform="translate(5 5)">
            <g class="typst-group">
                <g>
                    <g transform="translate(1.4173228346456705 6.6614173228346445)">
                        <path class="typst-shape" fill="none" stroke="#000000" stroke-width="0.5" stroke-linecap="butt" stroke-linejoin="miter" stroke-miterlimit="4" d="M 0 0.0000000000000007867722 L 22.535433 0 "/>
                    </g>
                    <g transform="translate(63.92125984251968 6.661417322834645)">
                        <path class="typst-shape" fill="none" stroke="#000000" stroke-width="0.5" stroke-linecap="butt" stroke-linejoin="miter" stroke-miterlimit="4" d="M 0 0 L 22.535433 0 "/>
                    </g>
                    <g transform="translate(23.952755905511815 0)">
                        <path class="typst-shape" fill="#ffffff" fill-rule="nonzero" stroke="#000000" stroke-width="0.8" stroke-linecap="butt" stroke-linejoin="miter" stroke-miterlimit="4" d="M 0 0 L 0 13.322835 L 39.968502 13.322835 L 39.968502 0 L 0 0 Z "/>
                    </g>
                    <g transform="translate(0 5.244094488188976)">
                        <path class="typst-shape" fill="#000000" fill-rule="nonzero" stroke="#000000" stroke-width="0.4" stroke-linecap="butt" stroke-linejoin="miter" stroke-miterlimit="4" d="M 1.4173229 0 C 0.6352668 0 0 0.6352668 0 1.4173229 C 0 2.199379 0.6352668 2.8346457 1.4173229 2.8346457 C 2.199379 2.8346457 2.8346457 2.199379 2.8346457 1.4173229 C 2.8346457 0.6352668 2.199379 0 1.4173229 0 Z "/>
                    </g>
                    <g transform="translate(85.03937007874016 5.244094488188976)">
                        <path class="typst-shape" fill="#000000" fill-rule="nonzero" stroke="#000000" stroke-width="0.4" stroke-linecap="butt" stroke-linejoin="miter" stroke-miterlimit="4" d="M 1.4173229 0 C 0.6352668 0 0 0.6352668 0 1.4173229 C 0 2.199379 0.6352668 2.8346457 1.4173229 2.8346457 C 2.199379 2.8346457 2.8346457 2.199379 2.8346457 1.4173229 C 2.8346457 0.6352668 2.199379 0 1.4173229 0 Z "/>
                    </g>
                </g>
            </g>
        </g>
    </g>
</svg>
