<svg width="368" height="210" viewBox="0 0 368 210" fill="none" xmlns="http://www.w3.org/2000/svg">
<path d="M21.2881 186.408V35.2267" stroke="white" stroke-width="0.8"/>
<path d="M58.4104 107.143C58.6451 106.542 59.1731 106.234 59.9944 106.219V105.647C59.3637 105.691 58.8797 105.706 58.5277 105.691L56.8117 105.647V106.205C57.5304 106.219 57.8824 106.454 57.8824 106.879C57.8824 106.938 57.8531 107.026 57.8091 107.143L55.2131 113.993L52.4851 106.821C52.4411 106.674 52.4117 106.586 52.4117 106.571C52.4117 106.337 52.8077 106.219 53.5997 106.219V105.647C52.9837 105.691 52.2797 105.706 51.4731 105.691L49.5664 105.647V106.219C50.1091 106.219 50.4611 106.249 50.6224 106.293C50.7837 106.337 50.9011 106.483 50.9891 106.733L54.3624 115.635C54.4504 115.87 54.5824 115.987 54.7731 115.987C54.9637 115.987 55.0957 115.885 55.1691 115.679L58.4104 107.143Z" fill="white"/>
<path d="M64.2328 105.897C63.6314 106.513 62.7514 106.821 61.5928 106.821V107.393C62.3554 107.393 62.9861 107.275 63.4701 107.041V114.462C63.4701 114.726 63.4114 114.902 63.2794 114.975C63.1474 115.049 62.7808 115.093 62.1941 115.093H61.6808V115.665C62.0474 115.635 62.8394 115.621 64.0568 115.621C65.2741 115.621 66.0661 115.635 66.4328 115.665V115.093H65.9194C65.3181 115.093 64.9514 115.049 64.8341 114.975C64.7168 114.902 64.6434 114.726 64.6434 114.462V106.337C64.6434 105.985 64.6141 105.897 64.2328 105.897Z" fill="white"/>
<path d="M21.2881 35.2267H172.469" stroke="white" stroke-width="0.8"/>
<path d="M96.7761 10.6671C96.7761 9.8311 96.3215 9.15644 95.4268 8.6431C94.6788 8.21777 93.8428 7.99777 92.9335 7.99777H88.3281V8.56977H88.7388C89.2521 8.56977 89.5601 8.61377 89.6628 8.6871C89.7655 8.76044 89.8241 8.92177 89.8241 9.18577V16.8271C89.8241 17.0911 89.7655 17.2671 89.6628 17.3404C89.5601 17.4138 89.2521 17.4578 88.7388 17.4578H88.3281V18.0298C88.7241 17.9858 89.4428 17.9711 90.4988 17.9711C91.5695 17.9711 92.2881 17.9858 92.6841 18.0298V17.4578H92.2735C91.7601 17.4578 91.4521 17.4138 91.3495 17.3404C91.2468 17.2671 91.1881 17.0911 91.1881 16.8271V13.2191H92.8015C93.7401 13.2191 94.4295 13.7764 94.5908 14.5684C94.6201 14.7298 94.6348 15.0818 94.6348 15.5951C94.6348 15.9911 94.6495 16.2844 94.6641 16.4604C94.7521 17.6924 95.8228 18.3378 97.1135 18.3378C97.6708 18.3378 98.0668 18.1031 98.2868 17.6484C98.4628 17.3111 98.5508 16.9884 98.5508 16.6804C98.5508 16.4898 98.4628 16.3871 98.3015 16.3871C98.1695 16.3871 98.0815 16.4751 98.0668 16.6658C97.9935 17.4871 97.6855 17.8978 97.1721 17.8978C96.6588 17.8978 96.4828 17.4138 96.3948 16.9884C96.3068 16.4898 96.2481 16.1084 96.2041 15.8591L96.0135 14.7004C95.7935 13.9378 95.2508 13.3804 94.3855 13.0431C95.5001 12.7204 96.7761 11.9284 96.7761 10.6671ZM94.7081 9.2151C95.0161 9.49377 95.1775 9.97777 95.1775 10.6671C95.1775 11.2244 95.0308 11.6938 94.7521 12.0898C94.4148 12.5444 93.7548 12.7791 92.7428 12.7791H91.1881V9.0831C91.1881 8.7751 91.2761 8.61377 91.4521 8.5991C91.5548 8.58444 91.8335 8.56977 92.3028 8.56977C93.4615 8.56977 94.0628 8.61377 94.7081 9.2151Z" fill="white"/>
<path d="M102.555 8.24714C101.954 8.86314 101.074 9.17114 99.915 9.17114V9.74314C100.678 9.74314 101.308 9.6258 101.792 9.39114V16.8125C101.792 17.0765 101.734 17.2525 101.602 17.3258C101.47 17.3991 101.103 17.4431 100.516 17.4431H100.003V18.0151C100.37 17.9858 101.162 17.9711 102.379 17.9711C103.596 17.9711 104.388 17.9858 104.755 18.0151V17.4431H104.242C103.64 17.4431 103.274 17.3991 103.156 17.3258C103.039 17.2525 102.966 17.0765 102.966 16.8125V8.68714C102.966 8.33514 102.936 8.24714 102.555 8.24714Z" fill="white"/>
<path d="M172.469 35.2267V186.408" stroke="white" stroke-width="0.8"/>
<path d="M191.998 115.782C193.127 115.782 193.875 115.797 194.242 115.826V115.254H193.817C193.289 115.254 192.966 115.225 192.863 115.151C192.761 115.078 192.702 114.902 192.702 114.638V106.997C192.702 106.733 192.761 106.571 192.863 106.498C192.966 106.425 193.289 106.381 193.817 106.381H194.242V105.809C193.875 105.838 193.127 105.853 192.013 105.853C190.883 105.853 190.135 105.838 189.769 105.809V106.381H190.194C190.722 106.381 191.045 106.425 191.147 106.498C191.25 106.571 191.309 106.733 191.309 106.997V114.638C191.309 114.902 191.25 115.078 191.147 115.151C191.045 115.225 190.722 115.254 190.194 115.254H189.769V115.826C190.135 115.797 190.883 115.782 191.998 115.782Z" fill="white"/>
<path d="M198.598 106.058C197.997 106.674 197.117 106.982 195.958 106.982V107.554C196.721 107.554 197.351 107.437 197.835 107.202V114.623C197.835 114.887 197.777 115.063 197.645 115.137C197.513 115.21 197.146 115.254 196.559 115.254H196.046V115.826C196.413 115.797 197.205 115.782 198.422 115.782C199.639 115.782 200.431 115.797 200.798 115.826V115.254H200.285C199.683 115.254 199.317 115.21 199.199 115.137C199.082 115.063 199.009 114.887 199.009 114.623V106.498C199.009 106.146 198.979 106.058 198.598 106.058Z" fill="white"/>
<path d="M172.469 35.2267H248.059" stroke="white" stroke-width="0.8"/>
<path d="M205.842 10.881H207.573C208.614 10.881 209.289 11.101 209.626 11.5263C210.096 12.0983 210.154 12.641 210.286 13.6823H210.77L210.345 10.309H202.293V10.881H202.704C203.217 10.881 203.525 10.9103 203.628 10.9837C203.73 11.057 203.789 11.233 203.789 11.497V19.0943C203.789 19.3583 203.73 19.5343 203.628 19.6077C203.525 19.681 203.217 19.7103 202.704 19.7103H202.293V20.2823C202.674 20.253 203.422 20.2383 204.552 20.2383C205.828 20.2383 206.649 20.253 207.045 20.2823V19.7103H206.502C205.725 19.7103 205.3 19.637 205.226 19.4757C205.197 19.4023 205.182 19.2703 205.182 19.0797V15.5743H206.37C207.001 15.5743 207.412 15.6917 207.588 15.9117C207.764 16.1317 207.852 16.5717 207.852 17.261H208.321V13.3157H207.852C207.852 13.9903 207.764 14.445 207.588 14.665C207.412 14.885 207.001 15.0023 206.37 15.0023H205.182V11.3943C205.182 10.8663 205.27 10.881 205.842 10.881Z" fill="white"/>
<path d="M215.331 10.5143C214.73 11.1303 213.85 11.4383 212.691 11.4383V12.0103C213.454 12.0103 214.085 11.893 214.569 11.6583V19.0797C214.569 19.3437 214.51 19.5197 214.378 19.593C214.246 19.6663 213.879 19.7103 213.293 19.7103H212.779V20.2823C213.146 20.253 213.938 20.2383 215.155 20.2383C216.373 20.2383 217.165 20.253 217.531 20.2823V19.7103H217.018C216.417 19.7103 216.05 19.6663 215.933 19.593C215.815 19.5197 215.742 19.3437 215.742 19.0797V10.9543C215.742 10.6023 215.713 10.5143 215.331 10.5143Z" fill="white"/>
<path d="M248.06 35.2267V106.817" stroke="white" stroke-width="0.8"/>
<path d="M248.061 114.817L248.06 186.408" stroke="white" stroke-width="0.8"/>
<path d="M280.48 109.167V105.735C280.48 105.457 280.407 105.325 280.26 105.325C280.157 105.325 280.069 105.398 279.981 105.53L279.292 106.542C278.852 106.087 278.383 105.765 277.869 105.559C277.488 105.398 277.077 105.325 276.637 105.325C275.215 105.325 273.997 105.838 273.015 106.894C272.032 107.95 271.548 109.197 271.548 110.649C271.548 112.101 272.032 113.347 273 114.389C273.983 115.459 275.2 115.987 276.637 115.987C277.679 115.987 278.588 115.621 279.351 114.887C280.113 114.154 280.48 113.274 280.48 112.233C280.48 112.027 280.392 111.925 280.231 111.925C280.084 111.925 280.011 111.983 280.011 112.115C280.011 112.13 280.011 112.159 279.996 112.203C279.908 113.963 278.647 115.415 276.813 115.415C276.271 115.415 275.728 115.269 275.156 114.975C273.807 114.242 273.161 112.834 273.161 110.663C273.161 108.61 273.88 107.026 275.156 106.337C275.728 106.043 276.271 105.897 276.799 105.897C278.617 105.897 279.659 107.554 279.908 109.285C279.923 109.475 280.025 109.578 280.187 109.578C280.48 109.578 280.48 109.461 280.48 109.167Z" fill="white"/>
<path d="M285.261 105.897C284.66 106.513 283.78 106.821 282.621 106.821V107.393C283.384 107.393 284.014 107.275 284.498 107.041V114.462C284.498 114.726 284.44 114.902 284.308 114.975C284.176 115.049 283.809 115.093 283.222 115.093H282.709V115.665C283.076 115.635 283.868 115.621 285.085 115.621C286.302 115.621 287.094 115.635 287.461 115.665V115.093H286.948C286.346 115.093 285.98 115.049 285.862 114.975C285.745 114.902 285.672 114.726 285.672 114.462V106.337C285.672 105.985 285.642 105.897 285.261 105.897Z" fill="white"/>
<path d="M323.65 35.2267V186.408" stroke="white" stroke-width="0.8"/>
<path d="M347.351 116.109C348.657 116.109 349.727 115.611 350.593 114.599C351.429 113.645 351.839 112.501 351.839 111.181C351.839 109.832 351.429 108.659 350.622 107.676C349.757 106.62 348.657 106.092 347.351 106.092H341.983V106.664H342.394C342.907 106.664 343.215 106.708 343.318 106.781C343.421 106.855 343.479 107.016 343.479 107.28V114.921C343.479 115.185 343.421 115.361 343.318 115.435C343.215 115.508 342.907 115.537 342.394 115.537H341.983V116.109H347.351ZM346.955 115.537H345.489C344.917 115.537 344.843 115.552 344.843 115.024V107.177C344.843 106.649 344.917 106.664 345.489 106.664H346.941C348.026 106.664 348.891 107.104 349.537 107.984C350.021 108.673 350.27 109.729 350.27 111.181C350.27 113.748 349.302 115.537 346.955 115.537Z" fill="white"/>
<path d="M356.62 106.341C356.019 106.957 355.139 107.265 353.98 107.265V107.837C354.743 107.837 355.374 107.72 355.858 107.485V114.907C355.858 115.171 355.799 115.347 355.667 115.42C355.535 115.493 355.168 115.537 354.582 115.537H354.068V116.109C354.435 116.08 355.227 116.065 356.444 116.065C357.662 116.065 358.454 116.08 358.82 116.109V115.537H358.307C357.706 115.537 357.339 115.493 357.222 115.42C357.104 115.347 357.031 115.171 357.031 114.907V106.781C357.031 106.429 357.002 106.341 356.62 106.341Z" fill="white"/>
<path d="M172.469 186.408V202.408" stroke="white" stroke-width="0.8"/>
<path d="M248.06 35.2267H323.65" stroke="white" stroke-width="0.8"/>
<path d="M172.469 186.408H21.2881H248.06H323.65" stroke="white" stroke-width="0.8"/>
<path d="M1.28809 110.817C1.28809 121.853 10.2524 130.817 21.2881 130.817C32.3238 130.817 41.2881 121.853 41.2881 110.817C41.2881 99.7815 32.3238 90.8171 21.2881 90.8171C10.2524 90.8171 1.28809 99.7815 1.28809 110.817Z" fill="black" stroke="white" stroke-width="1.33333"/>
<path d="M41.2881 110.817H1.28809" stroke="white" stroke-width="1.33333"/>
<path d="M70.2119 26.3378V44.1155H123.545V26.3378H70.2119Z" fill="black" stroke="white" stroke-width="1.33333"/>
<path d="M181.358 84.1506H163.58V137.484H181.358V84.1506Z" fill="white" stroke="white" stroke-width="1.33333"/>
<path d="M193.598 28.2822V42.1711H226.931V28.2822H193.598Z" fill="black" stroke="white" stroke-width="1.33333"/>
<path d="M193.598 35.2267H226.931" stroke="white" stroke-width="0.8"/>
<path d="M193.598 28.2822V42.1711H201.931V28.2822H193.598Z" fill="white" stroke="white" stroke-width="1.33333"/>
<path d="M233.394 106.817H262.727" stroke="white" stroke-width="1.33333"/>
<path d="M233.394 114.817H262.727" stroke="white" stroke-width="1.33333"/>
<path d="M323.651 119.132L333.47 102.124H313.831L323.651 119.132Z" fill="black" stroke="white" stroke-width="1.33333"/>
<path d="M323.65 121.022V101.179" stroke="white" stroke-width="0.8"/>
<path d="M316.107 118.46H331.192" stroke="white" stroke-width="1.33333"/>
<path d="M161.27 202.408H183.67" stroke="white" stroke-width="1.33333"/>
<path d="M165.936 205.675H179.002" stroke="white" stroke-width="1.33333"/>
<path d="M169.202 208.941H175.735" stroke="white" stroke-width="1.33333"/>
</svg>
