<svg class="typst-doc" viewBox="0 0 195.10236264986273 123.38582734244851" width="195.10236264986273pt" height="123.38582734244851pt" xmlns="http://www.w3.org/2000/svg" xmlns:xlink="http://www.w3.org/1999/xlink" xmlns:h5="http://www.w3.org/1999/xhtml">
    <path class="typst-shape" fill="#ffffff" fill-rule="nonzero" d="M 0 0 L 0 123.385826 L 195.10236 123.385826 L 195.10236 0 Z "/>
    <g>
        <g transform="translate(5 5)">
            <g class="typst-group">
                <g>
                    <g transform="translate(71.71653569811892 42.47745675307086)">
                        <path class="typst-shape" fill="none" stroke="#000000" stroke-width="0.4" stroke-linecap="butt" stroke-linejoin="miter" stroke-miterlimit="4" d="M 0 14.215457 L 14.215457 0 "/>
                    </g>
                    <g transform="translate(114.19399245118976 0)">
                        <path class="typst-shape" fill="none" stroke="#000000" stroke-width="0.4" stroke-linecap="butt" stroke-linejoin="miter" stroke-miterlimit="4" d="M 14.215457 0 L 0 14.215457 "/>
                    </g>
                    <g transform="translate(170.88690601710678 42.477457524305564)">
                        <path class="typst-shape" fill="none" stroke="#000000" stroke-width="0.4" stroke-linecap="butt" stroke-linejoin="miter" stroke-miterlimit="4" d="M 14.215457 14.215457 L 0 0 "/>
                    </g>
                    <g transform="translate(128.40944926403594 0.0000007712346918578343)">
                        <path class="typst-shape" fill="none" stroke="#000000" stroke-width="0.4" stroke-linecap="butt" stroke-linejoin="miter" stroke-miterlimit="4" d="M 0 0 L 14.215457 14.215457 "/>
                    </g>
                    <g transform="translate(170.88690601710678 56.69291318538704)">
                        <path class="typst-shape" fill="none" stroke="#000000" stroke-width="0.4" stroke-linecap="butt" stroke-linejoin="miter" stroke-miterlimit="4" d="M 14.215457 0 L 0 14.215457 "/>
                    </g>
                    <g transform="translate(128.40944926403594 99.17036993845791)">
                        <path class="typst-shape" fill="none" stroke="#000000" stroke-width="0.4" stroke-linecap="butt" stroke-linejoin="miter" stroke-miterlimit="4" d="M 0 14.215457 L 14.215457 0 "/>
                    </g>
                    <g transform="translate(71.71653569811892 56.69291395662175)">
                        <path class="typst-shape" fill="none" stroke="#000000" stroke-width="0.4" stroke-linecap="butt" stroke-linejoin="miter" stroke-miterlimit="4" d="M 0 0 L 14.215457 14.215457 "/>
                    </g>
                    <g transform="translate(114.19399245118976 99.17037070969259)">
                        <path class="typst-shape" fill="none" stroke="#000000" stroke-width="0.4" stroke-linecap="butt" stroke-linejoin="miter" stroke-miterlimit="4" d="M 14.215457 14.215457 L 0 0 "/>
                    </g>
                    <g transform="translate(15.023622047244094 0.00000028539748202511535)">
                        <path class="typst-shape" fill="none" stroke="#000000" stroke-width="0.4" stroke-linecap="butt" stroke-linejoin="miter" stroke-miterlimit="4" d="M 113.385826 0 L 0 0 "/>
                    </g>
                    <g transform="translate(15.023622047244094 71.71653571846835)">
                        <path class="typst-shape" fill="none" stroke="#000000" stroke-width="0.4" stroke-linecap="butt" stroke-linejoin="miter" stroke-miterlimit="4" d="M 0 41.669292 L 0 0 "/>
                    </g>
                    <g transform="translate(15.023622047244094 0.00000028539748202511535)">
                        <path class="typst-shape" fill="none" stroke="#000000" stroke-width="0.4" stroke-linecap="butt" stroke-linejoin="miter" stroke-miterlimit="4" d="M 0 0 L 0 41.669292 "/>
                    </g>
                    <g transform="translate(81.22165871244096 9.505123564767562)">
                        <path class="typst-shape" fill="none" stroke="#000000" stroke-width="0.8" stroke-linecap="butt" stroke-linejoin="miter" stroke-miterlimit="4" d="M 0 28.262001 L 9.420667 37.682667 L 37.682667 9.420667 L 28.262001 0 L 0 28.262001 Z "/>
                    </g>
                    <g transform="translate(137.91457209826774 9.505123564767562)">
                        <path class="typst-shape" fill="none" stroke="#000000" stroke-width="0.8" stroke-linecap="butt" stroke-linejoin="miter" stroke-miterlimit="4" d="M 28.262001 37.682667 L 37.682667 28.262001 L 9.420667 0 L 0 9.420667 L 28.262001 37.682667 Z "/>
                    </g>
                    <g transform="translate(137.91457209826774 66.19803695059433)">
                        <path class="typst-shape" fill="none" stroke="#000000" stroke-width="0.8" stroke-linecap="butt" stroke-linejoin="miter" stroke-miterlimit="4" d="M 37.682667 9.420667 L 28.262001 0 L 0 28.262001 L 9.420667 37.682667 L 37.682667 9.420667 Z "/>
                    </g>
                    <g transform="translate(81.22165871244096 66.19803695059433)">
                        <path class="typst-shape" fill="none" stroke="#000000" stroke-width="0.8" stroke-linecap="butt" stroke-linejoin="miter" stroke-miterlimit="4" d="M 9.420667 0 L 0 9.420667 L 28.262001 37.682667 L 37.682667 28.262001 L 9.420667 0 Z "/>
                    </g>
                    <g transform="translate(0 41.66929162398016)">
                        <path class="typst-shape" fill="#ffffff" fill-rule="nonzero" stroke="#000000" stroke-width="0.8" stroke-linecap="butt" stroke-linejoin="miter" stroke-miterlimit="4" d="M 0 15.0236225 C 0 23.313416 6.7338276 30.047245 15.0236225 30.047245 C 23.313416 30.047245 30.047245 23.313416 30.047245 15.0236225 C 30.047245 6.7338276 23.313416 0 15.0236225 0 C 6.7338276 0 0 6.7338276 0 15.0236225 Z "/>
                    </g>
                    <g transform="translate(15.023622047244094 41.66929162398016)">
                        <path class="typst-shape" fill="none" stroke="#000000" stroke-width="0.8" stroke-linecap="butt" stroke-linejoin="miter" stroke-miterlimit="4" d="M 0 30.047245 L 0 0 "/>
                    </g>
                </g>
            </g>
        </g>
    </g>
</svg>
