<svg xmlns="http://www.w3.org/2000/svg" xmlns:xlink="http://www.w3.org/1999/xlink" width="720.176" height="357.834" class="typst-doc" viewBox="0 0 540.132 268.376"><path fill="#fff" d="M0 0v268.376h540.132V0Z" class="typst-shape"/><g class="typst-group"><path fill="none" d="M201.713 34.676h41.643v21.348h-41.643z" class="typst-shape"/><g class="typst-group"><g class="typst-group"><g class="typst-text" transform="matrix(1 0 0 -1 208.713 48.914)"><use xlink:href="#a"/><use xlink:href="#b" x="6.127"/><use xlink:href="#c" x="11.462"/><use xlink:href="#d" x="17.413"/><use xlink:href="#d" x="22.528"/></g></g></g><path fill="none" d="M31.634 184.912h41.643v21.348H31.634z" class="typst-shape"/><g class="typst-group"><g class="typst-group"><g class="typst-text" transform="matrix(1 0 0 -1 38.634 199.15)"><use xlink:href="#a"/><use xlink:href="#b" x="6.127"/><use xlink:href="#c" x="11.462"/><use xlink:href="#d" x="17.413"/><use xlink:href="#e" x="22.528"/></g></g></g><path fill="none" d="M456.831 34.721h41.643v21.36h-41.643z" class="typst-shape"/><g class="typst-group"><g class="typst-group"><g class="typst-text" transform="matrix(1 0 0 -1 463.831 48.96)"><use xlink:href="#a"/><use xlink:href="#b" x="6.127"/><use xlink:href="#c" x="11.462"/><use xlink:href="#d" x="17.413"/><use xlink:href="#f" x="22.528"/></g></g></g><path fill="none" stroke="#000" stroke-width=".5" d="M165.842 135.394h-38.977v82.204H87.89" class="typst-shape"/><path fill="none" d="M52.956 81.825h27.346v24.23H52.956z" class="typst-shape"/><g class="typst-group"><g class="typst-group"><use xlink:href="#g" class="typst-text" transform="matrix(1 0 0 -1 59.956 96.338)"/><use xlink:href="#h" class="typst-text" transform="matrix(1 0 0 -1 68.305 99.055)"/></g></g><path fill="none" stroke="#000" stroke-width=".5" d="M165.842 112.717H86.613m-39.968 0H24.109" class="typst-shape"/><path stroke="#000" d="m35.377 112.717 4.536-1.701v3.401z" class="typst-shape"/><path fill="none" d="M35.747 119.247h3.795v7.634h-3.795z" class="typst-shape"/><g class="typst-group"><g class="typst-group"><use xlink:href="#i" class="typst-text" transform="matrix(1 0 0 -1 35.747 126.76)"/></g></g><path fill="none" stroke="#000" stroke-width=".5" d="M24.11 112.717H5v104.881h12.023m148.819-25.511h-28.347v56.693m28.347-181.418h-28.347V22.008m141.733 102.047h50.315m12.755 0h50.315" class="typst-shape"/><path fill="none" d="M399.275 183.373h27.346v24.23h-27.346z" class="typst-shape"/><g class="typst-group"><g class="typst-group"><use xlink:href="#g" class="typst-text" transform="matrix(1 0 0 -1 406.275 197.886)"/><use xlink:href="#j" class="typst-text" transform="matrix(1 0 0 -1 414.624 200.603)"/></g></g><path fill="none" stroke="#000" stroke-width=".5" d="M392.613 124.055v51.449m0 39.968v27.638" class="typst-shape"/><path fill="none" d="M322.93 31.794h25.982v24.23h-25.983z" class="typst-shape"/><g class="typst-group"><g class="typst-group"><use xlink:href="#k" class="typst-text" transform="matrix(1 0 0 -1 329.93 46.307)"/><use xlink:href="#h" class="typst-text" transform="matrix(1 0 0 -1 336.914 49.024)"/></g></g><path fill="none" stroke="#000" stroke-width=".5" d="M279.228 67.362h53.15m7.086 0h53.15m-.001 0v56.693" class="typst-shape"/><path fill="none" d="M381.79 44.685h21.646v21.26H381.79z" class="typst-shape"/><g class="typst-group"><g class="typst-group"><use xlink:href="#l" class="typst-text" transform="matrix(1 0 0 -1 388.79 58.923)"/></g></g><path fill="none" stroke="#000" stroke-width=".5" d="m435.133 67.419-42.52-.057m127.559.057h14.96v79.313h-29.133" class="typst-shape"/><path fill="none" d="M464.508 113.998h26.29v24.23h-26.29z" class="typst-shape"/><g class="typst-group"><g class="typst-group"><use xlink:href="#m" class="typst-text" transform="matrix(1 0 0 -1 471.508 128.511)"/><use xlink:href="#h" class="typst-text" transform="matrix(1 0 0 -1 478.8 131.228)"/></g></g><path fill="none" stroke="#000" stroke-width=".5" d="M506 146.732h-21.97m-12.755 0H279.228" class="typst-shape"/><path fill="#fbbedf" stroke="#fbbedf" d="M165.842 56.024v158.74h113.386V56.024z" class="typst-shape"/><path fill="none" d="M165.842 58.008h32.348v18.708h-32.348z" class="typst-shape"/><g class="typst-group"><g class="typst-group"><g class="typst-text" transform="matrix(1 0 0 -1 171.511 70.915)"><use xlink:href="#n"/><use xlink:href="#o" x="6.798"/><use xlink:href="#o" x="13.904"/></g></g></g><path fill="none" d="M165.842 69.346h39.883v18.71h-39.883z" class="typst-shape"/><g class="typst-group"><g class="typst-group"><g class="typst-text" transform="matrix(1 0 0 -1 171.511 82.254)"><use xlink:href="#p"/><use xlink:href="#n" x="7.535"/><use xlink:href="#o" x="14.333"/><use xlink:href="#o" x="21.439"/></g></g></g><path fill="none" d="M165.842 80.685h38.761v18.709h-38.761z" class="typst-shape"/><g class="typst-group"><g class="typst-group"><g class="typst-text" transform="matrix(1 0 0 -1 171.511 93.592)"><use xlink:href="#l"/><use xlink:href="#n" x="6.413"/><use xlink:href="#o" x="13.211"/><use xlink:href="#o" x="20.317"/></g></g></g><path fill="none" d="M165.842 92.09h11.338v18.576h-11.338z" class="typst-shape"/><path fill="none" d="M165.842 103.373h30.115v18.687h-30.115z" class="typst-shape"/><g class="typst-group"><g class="typst-group"><g class="typst-text" transform="matrix(1 0 0 -1 171.511 116.28)"><use xlink:href="#c"/><use xlink:href="#q" x="5.951"/><use xlink:href="#r" x="13.662"/></g></g></g><path fill="none" d="M165.842 114.756h30.115v18.598h-30.115z" class="typst-shape"/><g class="typst-group"><g class="typst-group"><g class="typst-text" transform="matrix(1 0 0 -1 171.511 127.663)"><use xlink:href="#c"/><use xlink:href="#q" x="5.951"/><use xlink:href="#s" x="13.662"/></g></g></g><path fill="none" d="M165.842 126.094h30.115v18.599h-30.115z" class="typst-shape"/><g class="typst-group"><g class="typst-group"><g class="typst-text" transform="matrix(1 0 0 -1 171.511 139.002)"><use xlink:href="#c"/><use xlink:href="#q" x="5.951"/><use xlink:href="#t" x="13.662"/></g></g></g><path fill="none" d="M165.842 137.389h30.115v18.687h-30.115z" class="typst-shape"/><g class="typst-group"><g class="typst-group"><g class="typst-text" transform="matrix(1 0 0 -1 171.511 150.296)"><use xlink:href="#c"/><use xlink:href="#q" x="5.951"/><use xlink:href="#d" x="13.662"/></g></g></g><path fill="none" d="M165.842 148.772h30.115v18.598h-30.115z" class="typst-shape"/><g class="typst-group"><g class="typst-group"><g class="typst-text" transform="matrix(1 0 0 -1 171.511 161.679)"><use xlink:href="#c"/><use xlink:href="#q" x="5.951"/><use xlink:href="#e" x="13.662"/></g></g></g><path fill="none" d="M165.842 160.06h30.115v18.698h-30.115z" class="typst-shape"/><g class="typst-group"><g class="typst-group"><g class="typst-text" transform="matrix(1 0 0 -1 171.511 172.968)"><use xlink:href="#c"/><use xlink:href="#q" x="5.951"/><use xlink:href="#f" x="13.662"/></g></g></g><path fill="none" d="M165.842 171.46h11.338v18.576h-11.338z" class="typst-shape"/><path fill="none" d="M165.842 182.743h34.273v18.687h-34.273z" class="typst-shape"/><g class="typst-group"><g class="typst-group"><g class="typst-text" transform="matrix(1 0 0 -1 171.511 195.65)"><use xlink:href="#u"/><use xlink:href="#v" x="7.535"/><use xlink:href="#q" x="15.224"/></g></g></g><path fill="none" d="M165.842 194.082h41.544v18.686h-41.544z" class="typst-shape"/><g class="typst-group"><g class="typst-group"><g class="typst-text" transform="matrix(1 0 0 -1 171.511 206.99)"><use xlink:href="#p"/><use xlink:href="#u" x="7.271"/><use xlink:href="#v" x="14.806"/><use xlink:href="#q" x="22.495"/></g></g></g><path fill="none" d="M250.355 58.019h28.873v18.686h-28.873z" class="typst-shape"/><g class="typst-group"><g class="typst-group"><g class="typst-text" transform="matrix(1 0 0 -1 256.024 70.926)"><use xlink:href="#c"/><use xlink:href="#w" x="5.951"/><use xlink:href="#r" x="12.419"/></g></g></g><path fill="none" d="M250.355 69.401h28.873v18.6h-28.873z" class="typst-shape"/><g class="typst-group"><g class="typst-group"><g class="typst-text" transform="matrix(1 0 0 -1 256.024 82.309)"><use xlink:href="#c"/><use xlink:href="#w" x="5.951"/><use xlink:href="#s" x="12.419"/></g></g></g><path fill="none" d="M250.355 80.74h28.873v18.6h-28.873z" class="typst-shape"/><g class="typst-group"><g class="typst-group"><g class="typst-text" transform="matrix(1 0 0 -1 256.024 93.647)"><use xlink:href="#c"/><use xlink:href="#w" x="5.951"/><use xlink:href="#t" x="12.419"/></g></g></g><path fill="none" d="M250.355 92.035h28.873v18.686h-28.873z" class="typst-shape"/><g class="typst-group"><g class="typst-group"><g class="typst-text" transform="matrix(1 0 0 -1 256.024 104.942)"><use xlink:href="#c"/><use xlink:href="#w" x="5.951"/><use xlink:href="#d" x="12.419"/></g></g></g><path fill="none" d="M250.355 103.417h28.873v18.599h-28.873z" class="typst-shape"/><g class="typst-group"><g class="typst-group"><g class="typst-text" transform="matrix(1 0 0 -1 256.024 116.325)"><use xlink:href="#c"/><use xlink:href="#w" x="5.951"/><use xlink:href="#e" x="12.419"/></g></g></g><path fill="none" d="M250.355 114.706h28.873v18.698h-28.873z" class="typst-shape"/><g class="typst-group"><g class="typst-group"><g class="typst-text" transform="matrix(1 0 0 -1 256.024 127.614)"><use xlink:href="#c"/><use xlink:href="#w" x="5.951"/><use xlink:href="#f" x="12.419"/></g></g></g><path fill="none" d="M267.889 126.105h11.339v18.577h-11.339z" class="typst-shape"/><path fill="none" d="M249.717 137.389h29.51v18.687h-29.51z" class="typst-shape"/><g class="typst-group"><g class="typst-group"><g class="typst-text" transform="matrix(1 0 0 -1 255.386 150.296)"><use xlink:href="#c"/><use xlink:href="#o" x="5.951"/><use xlink:href="#r" x="13.057"/></g></g></g><path fill="none" d="M249.717 148.728h29.51v18.686h-29.51z" class="typst-shape"/><g class="typst-group"><g class="typst-group"><g class="typst-text" transform="matrix(1 0 0 -1 255.386 161.635)"><use xlink:href="#c"/><use xlink:href="#o" x="5.951"/><use xlink:href="#s" x="13.057"/></g></g></g><path fill="none" d="M249.717 160.066h29.51v18.687h-29.51z" class="typst-shape"/><g class="typst-group"><g class="typst-group"><g class="typst-text" transform="matrix(1 0 0 -1 255.386 172.973)"><use xlink:href="#c"/><use xlink:href="#o" x="5.951"/><use xlink:href="#t" x="13.057"/></g></g></g><path fill="none" d="M249.717 171.405h29.51v18.686h-29.51z" class="typst-shape"/><g class="typst-group"><g class="typst-group"><g class="typst-text" transform="matrix(1 0 0 -1 255.386 184.312)"><use xlink:href="#c"/><use xlink:href="#o" x="5.951"/><use xlink:href="#d" x="13.057"/></g></g></g><path fill="#f2fa95" stroke="#f2fa95" d="M17.023 206.26v28.346h70.866V206.26z" class="typst-shape"/><path fill="none" d="M17.023 208.255h22.294v18.687H17.023z" class="typst-shape"/><g class="typst-group"><g class="typst-group"><g class="typst-text" transform="matrix(1 0 0 -1 22.692 221.162)"><use xlink:href="#x"/><use xlink:href="#v" x="3.267"/></g></g></g><path fill="none" d="M54.583 208.255H87.89v18.687H54.583z" class="typst-shape"/><g class="typst-group"><g class="typst-group"><g class="typst-text" transform="matrix(1 0 0 -1 60.253 221.162)"><use xlink:href="#y"/><use xlink:href="#p" x="7.722"/><use xlink:href="#z" x="15.4"/></g></g></g><path fill="#93fdea" stroke="#93fdea" d="M435.133 56.08v28.347h85.04V56.08z" class="typst-shape"/><path fill="none" d="M435.133 58.076h22.295v18.686h-22.295z" class="typst-shape"/><g class="typst-group"><g class="typst-group"><g class="typst-text" transform="matrix(1 0 0 -1 440.802 70.983)"><use xlink:href="#x"/><use xlink:href="#v" x="3.267"/></g></g></g><path fill="none" d="M486.867 58.076h33.305v18.686h-33.305z" class="typst-shape"/><g class="typst-group"><g class="typst-group"><g class="typst-text" transform="matrix(1 0 0 -1 492.536 70.983)"><use xlink:href="#y"/><use xlink:href="#p" x="7.722"/><use xlink:href="#z" x="15.4"/></g></g></g><path fill="#fff" stroke="#000" stroke-width=".8" d="M86.613 119.378v-13.323H46.645v13.323zm255.685 4.677-12.755-7.365v14.73z" class="typst-shape"/><path fill="none" stroke="#000" stroke-width=".5" d="M342.298 124.055h-12.755" class="typst-shape"/><path fill="none" stroke="#000" stroke-width=".8" d="M342.298 131.142v-14.173" class="typst-shape"/><path fill="none" stroke="#000" stroke-width=".55" d="m332.283 114.522 3.34-5.786" class="typst-shape"/><path stroke="#000" stroke-width=".55" d="m337.891 104.808-.794 4.778-2.946-1.7z" class="typst-shape"/><path fill="none" stroke="#000" stroke-width=".55" d="m337.48 117.522 3.34-5.786" class="typst-shape"/><path stroke="#000" stroke-width=".55" d="m343.088 107.808-.795 4.778-2.946-1.7z" class="typst-shape"/><path stroke="#000" stroke-width=".4" d="M392.613 122.638a1.418 1.418 0 0 0 0 2.834 1.418 1.418 0 0 0 0-2.834Z" class="typst-shape"/><path fill="#fff" stroke="#000" stroke-width=".8" d="M399.275 175.504h-13.323v39.968h13.323z" class="typst-shape"/><path fill="none" stroke="#000" d="m376.23 184.017 26.956 18.874" class="typst-shape"/><path stroke="#000" d="m407.83 206.143-5.863-1.51 2.438-3.483z" class="typst-shape"/><path fill="none" stroke="#000" stroke-width=".8" d="M332.377 78.7V56.025m7.087 22.675V56.025" class="typst-shape"/><path stroke="#000" stroke-width=".4" d="M392.613 65.945a1.418 1.418 0 0 0 0 2.835 1.418 1.418 0 0 0 0-2.835Z" class="typst-shape"/><path fill="none" stroke="#000" stroke-width=".5" d="M392.613 243.11v7.937" class="typst-shape"/><path fill="none" stroke="#000" stroke-width=".8" d="m392.613 260.402 5.401-9.355h-10.801z" class="typst-shape"/><path fill="none" stroke="#000" stroke-width=".5" d="M137.495 22.008V5" class="typst-shape"/><path fill="none" stroke="#000" stroke-width=".8" d="M130.992 14.288 137.495 5 144 14.288" class="typst-shape"/><path fill="none" stroke="#000" stroke-width=".5" d="M137.495 248.78v7.937" class="typst-shape"/><path fill="none" stroke="#000" stroke-width=".8" d="M130.976 256.717h13.039m-12.756 0-2.424 6.659m8.66-6.659-2.423 6.659m8.659-6.659-2.423 6.659" class="typst-shape"/><path fill="#fff" stroke="#000" stroke-width=".8" d="m471.275 146.732 12.756 7.365v-14.73z" class="typst-shape"/><path fill="none" stroke="#000" stroke-width=".5" d="M471.275 146.732h12.756" class="typst-shape"/><path fill="none" stroke="#000" stroke-width=".8" d="M471.275 139.646v14.173m-2.835 0h3.235m2.435-14.173h-3.235" class="typst-shape"/></g><defs><symbol id="a" overflow="visible"><path d="M3.091 3.971H2.09v1.98c0 .484.132.704.726.704h.825c.825 0 1.001-.44 1.243-1.199a.58.58 0 0 1 .363.055c-.055.451-.22 1.507-.242 1.595 0 .022-.011.033-.044.033a2.5 2.5 0 0 0-.539-.044H1.617c-.33 0-.979.011-1.419.022-.066-.066-.066-.297 0-.363.77-.033.957-.088.957-1.001V1.342C1.155.429.968.374.198.341.132.275.132.044.198-.022A66 66 0 0 0 1.628 0h2.365c.528 0 1.408-.022 1.408-.022.154.55.319 1.276.407 1.837a.5.5 0 0 1-.385.055C5.203 1.078 4.818.429 3.982.429H2.706c-.462 0-.616.176-.616.693v2.431h1.001c.935 0 .968-.253 1.001-.748.066-.066.297-.066.363 0-.011.286-.022.594-.022.968 0 .308.011.682.022.946-.066.066-.297.066-.363 0-.033-.605-.066-.748-1.001-.748"/></symbol><symbol id="b" overflow="visible"><path d="M4.345 6.941c-.638.088-.616.297-1.694.297-1.111 0-2.09-.737-2.09-1.903 0-1.155.957-1.683 1.925-2.057.66-.253 1.474-.561 1.474-1.639C3.96.748 3.465.286 2.585.286 1.562.286.902.759.66 1.848a.45.45 0 0 1-.363-.033C.341.968.385.682.517.143c.693 0 1.001-.253 1.98-.253.495 0 .968.121 1.353.363.638.396 1.034 1.067 1.034 1.771 0 1.166-.88 1.683-1.782 2.024-.66.242-1.76.66-1.76 1.584 0 .616.561 1.232 1.21 1.232 1.067 0 1.408-.682 1.628-1.408.121-.022.264-.011.363.066-.044.528-.088.836-.198 1.419"/></symbol><symbol id="c" overflow="visible"><path d="M1.144 5.753V1.342C1.144.429.957.374.187.341.121.275.121.044.187-.022.682-.011 1.221 0 1.617 0c.385 0 1.034-.011 1.584-.022.066.066.066.297 0 .363-.858.044-1.122.088-1.122 1.001v1.87c.242-.077.506-.11.891-.11 2.002 0 2.607 1.309 2.607 2.244 0 .649-.429 1.826-2.464 1.826-.418 0-1.067-.077-1.507-.077-.407 0-.979.011-1.419.022-.066-.066-.066-.297 0-.363.77-.033.957-.088.957-1.001m.935.341c0 .319.165.704.957.704.759 0 1.518-.253 1.518-1.65 0-1.188-.572-1.672-1.639-1.672-.275 0-.715.022-.836.055Z"/></symbol><symbol id="d" overflow="visible"><path d="M2.365 6.325c.473 0 .913-.286.913-.99 0-.55-.638-1.397-1.727-1.551l.055-.352c.187.022.385.022.528.022.627 0 1.441-.176 1.441-1.419 0-1.463-.979-1.76-1.364-1.76-.561 0-.66.253-.792.451-.11.154-.253.286-.473.286-.231 0-.462-.209-.462-.385 0-.44.924-.737 1.584-.737 1.309 0 2.475.847 2.475 2.299 0 1.199-.902 1.628-1.551 1.738l-.011.022c.902.429 1.155.88 1.155 1.463 0 .33-.077.594-.341.869-.242.242-.627.429-1.199.429C.979 6.71.517 5.654.517 5.291c0-.154.11-.374.374-.374.385 0 .429.363.429.572 0 .704.759.836 1.045.836"/></symbol><symbol id="e" overflow="visible"><path d="M4.73 2.409h-.913v3.212c0 .55 0 .979.022 1.067l-.022.022h-.352c-.077 0-.132-.066-.176-.121C2.596 5.742 1.32 3.927.308 2.354c.033-.165.099-.462.429-.462h2.244V.88c0-.506-.418-.506-.891-.539-.066-.066-.066-.297 0-.363.352.011.792.022 1.298.022.429 0 .847-.011 1.199-.022.066.066.066.297 0 .363-.539.044-.77.022-.77.539v1.012h.759c.154 0 .319.209.319.341 0 .11-.044.176-.165.176M2.981 5.577V2.409H.88c.561.902 1.342 2.134 2.101 3.168"/></symbol><symbol id="f" overflow="visible"><path d="M3.509 2.079c0-1.045-.55-1.815-1.21-1.815-.418 0-.561.275-.726.495-.143.187-.33.352-.561.352-.209 0-.418-.187-.418-.407 0-.451.935-.825 1.562-.825 1.364 0 2.332 1.012 2.332 2.398 0 1.067-.737 2.024-1.969 2.024-.473 0-.88-.099-1.078-.176l.22 1.837c.407-.044.759-.099 1.287-.099.33 0 .704.022 1.155.066l.176.748-.077.044C3.575 6.655 2.981 6.6 2.398 6.6c-.407 0-.803.022-1.188.055L.836 3.487c.583.22 1.001.264 1.397.264.715 0 1.276-.473 1.276-1.672"/></symbol><symbol id="g" overflow="visible"><path d="M8.129 5.841c0 .561-.286.99-.847 1.298-.451.253-.99.374-1.595.374H2.585c-.253 0-.363-.011-.363-.264 0-.077.033-.132.099-.143.11-.011.198-.022.253-.022.33-.011.517-.033.572-.044s.088-.044.088-.099a1 1 0 0 0-.044-.198L1.738.902C1.683.66 1.573.506 1.408.451 1.331.429 1.133.418.792.418.55.418.451.407.451.165q0-.181.198-.165l1.364.033L3.399 0c.176-.011.264.088.264.253 0 .11-.121.165-.352.165-.44 0-.66.055-.66.154 0 0 .011.022.033.176l.704 2.849h1.265c.759 0 1.144-.319 1.144-.946 0-.099-.055-.341-.154-.737-.121-.462-.176-.77-.176-.935 0-.836.649-1.221 1.485-1.221.308 0 .605.143.902.418s.451.572.451.88c0 .11-.055.165-.176.165-.077 0-.143-.055-.176-.176-.121-.341-.275-.594-.451-.737s-.341-.22-.506-.22c-.253 0-.385.209-.385.616 0 .264.033.671.11 1.232.033.231.044.396.044.517 0 .583-.308 1.012-.924 1.276 1.034.253 2.288.99 2.288 2.112m-1.43.935q.33-.214.33-.726c0-.22-.044-.473-.143-.77q-.445-1.353-2.244-1.353H3.476l.693 2.783q.082.346.264.363c.055.011.275.011.66.011.715 0 1.133-.022 1.606-.308"/></symbol><symbol id="h" overflow="visible"><path d="M2.333 5.113c-.331-.324-.824-.485-1.494-.485v-.34c.455 0 .816.07 1.094.201V.655q.002-.148-.031-.193-.058-.129-.693-.13H.893V0l1.37.03L3.644 0v.331h-.317q-.633.002-.7.131a.5.5 0 0 0-.023.192v4.212c0 .208-.031.247-.27.247"/></symbol><symbol id="i" overflow="visible"><path d="M3.124 6.831c0 .297-.143.44-.44.44-.308 0-.616-.308-.616-.616 0-.297.154-.44.451-.44.308 0 .605.308.605.616m-.275-5.313C2.607.649 2.255.209 1.804.209c-.143 0-.22.099-.22.308 0 .187.319 1.133.968 2.849q.132.38.132.594c0 .539-.374.935-.913.935-.473 0-.847-.275-1.122-.836q-.33-.677-.33-.891c0-.099.055-.143.176-.143.143 0 .165.066.209.22.253.88.594 1.32 1.034 1.32.143 0 .22-.099.22-.308 0-.154-.033-.33-.11-.539-.253-.693-.517-1.43-.737-2.013C.946 1.265.858.968.858.814c0-.539.396-.935.924-.935q.71 0 1.122.825c.209.429.319.726.319.891 0 .099-.055.154-.176.154-.033 0-.198-.099-.198-.231"/></symbol><symbol id="j" overflow="visible"><path d="M.916 3.265a.42.42 0 0 1 .431.431c0 .277-.146.424-.43.431.169.362.554.655 1.054.655.678 0 1.124-.508 1.124-1.186 0-.37-.13-.724-.4-1.07q-.196-.265-.3-.37L.57.346C.47.255.485.232.485 0h3.173l.238 1.448h-.323C3.519 1.04 3.457.8 3.388.747 3.35.724 3.111.708 2.657.708h-1.31c.516.455.994.863 1.448 1.225.347.27.593.508.747.716q.347.45.347.947.002.716-.563 1.132c-.33.254-.747.385-1.24.385-.423 0-.785-.123-1.1-.37-.331-.27-.5-.608-.5-1.024 0-.262.192-.454.43-.454"/></symbol><symbol id="k" overflow="visible"><path d="M1.628 2.398c0 1.408.616 2.838 1.309 3.63.561.649 1.529 1.298 2.618 1.298 1.144 0 1.705-.869 1.705-2.057 0-.099-.033-.451-.033-.55s.066-.154.209-.154a.4.4 0 0 1 .132.022.7.7 0 0 1 .11.231l.682 2.783c0 .099-.055.154-.165.154-.044 0-.11-.044-.198-.143l-.715-.803c-.429.627-1.034.946-1.815.946-.605 0-1.199-.143-1.804-.418C2.442 6.765 1.551 5.863.979 4.631A4.3 4.3 0 0 1 .55 2.783c0-.88.275-1.595.836-2.167s1.276-.858 2.156-.858c.869 0 1.661.319 2.376.946.297.253.55.561.759.902.297.495.451.836.451 1.045 0 .099-.055.154-.176.154-.099 0-.154-.044-.176-.143-.231-.715-.594-1.287-1.089-1.694C5.06.451 4.4.187 3.718.187c-1.32 0-2.09.891-2.09 2.211"/></symbol><symbol id="l" overflow="visible"><path d="m1.705.869.605 1.595c.055.143.121.187.385.187h2.321L5.654.792C5.786.418 5.368.374 4.84.341c-.066-.066-.066-.297 0-.363C5.247-.011 5.852 0 6.281 0c.451 0 .869-.011 1.254-.022.066.066.066.297 0 .363-.429.044-.803.077-.99.605L4.279 7.238c-.165-.099-.462-.22-.605-.22L1.177 1.122C.891.44.561.374.077.341.011.275.011.044.077-.022.363-.011.726 0 1.056 0c.451 0 1.001-.011 1.408-.022.066.066.066.297 0 .363-.418.033-.935.077-.759.528m1.188 2.244c-.242 0-.319.033-.275.143L3.74 6.105h.066L4.84 3.113Z"/></symbol><symbol id="m" overflow="visible"><path d="M7.92 7.183c.022.099.033.165.033.187 0 .099-.055.143-.176.143h-4.73c-.275 0-.308-.033-.374-.253l-.594-1.947c-.022-.055-.033-.121-.044-.176.033-.088.055-.154.176-.154.055 0 .121.044.187.132.231.715.539 1.232.924 1.529s.957.44 1.705.44h1.672L.682.363.638.143C.638.044.704 0 .825 0h4.851c.286 0 .319.022.385.253l.77 2.409c.011.044.044.121.044.165 0 .11-.066.165-.187.165-.077 0-.154-.099-.22-.308-.242-.748-.539-1.298-.902-1.65C5.181.649 4.543.462 3.663.462h-1.76Z"/></symbol><symbol id="n" overflow="visible"><path d="M4.928 6.754c.814-.055.814-.352.583-.946L3.773 1.397h-.044l-1.76 4.477c-.253.66-.187.803.561.88.066.066.066.297 0 .363-.44-.011-.935-.022-1.331-.022s-.781.011-1.144.022C-.011 7.051 0 6.82.066 6.754c.605-.055.693-.242.99-1.001L3.223.121c.066-.176.143-.253.253-.253.121 0 .198.099.264.253l2.277 5.61c.209.517.385.946 1.078 1.023.066.066.066.297 0 .363-.33-.011-.715-.022-.968-.022s-.748.011-1.199.022c-.066-.066-.066-.297 0-.363"/></symbol><symbol id="o" overflow="visible"><path d="M3.927-.11c1.067 0 2.046.506 2.794 1.485-.055.099-.132.165-.253.165C5.687.682 4.939.341 3.916.341c-1.485 0-2.508 1.672-2.508 3.278 0 .946.253 1.738.649 2.233.55.671 1.188.979 1.76.979 1.518 0 2.123-.902 2.409-1.848.132-.044.242-.011.363.055-.055.572-.132 1.1-.242 1.705-.561.055-1.056.495-2.409.495-.935 0-1.716-.341-2.365-.935C.847 5.632.407 4.554.407 3.41c0-1.914 1.155-3.52 3.52-3.52"/></symbol><symbol id="p" overflow="visible"><path d="M1.892 5.753c0 .913.165.968 1.012 1.001.066.066.066.297 0 .363a76 76 0 0 0-1.485-.022c-.429 0-.88.011-1.309.022-.066-.066-.066-.297 0-.363.66-.033.847-.088.847-1.001v-3.19C.957.319 2.409-.11 3.531-.11c2.255 0 2.794 1.397 2.794 3.355v2.508c0 .88.187.924.847 1.001.066.066.066.297 0 .363a53 53 0 0 0-1.122-.022c-.231 0-.77.011-1.276.022-.066-.066-.066-.297 0-.363.825-.077 1.012-.11 1.012-1.001V3.047c0-1.232-.165-2.706-2.024-2.706-.528 0-.979.198-1.309.517-.539.517-.561 1.353-.561 2.068Z"/></symbol><symbol id="q" overflow="visible"><path d="M1.628 7.095c-.396 0-.979.011-1.419.022-.066-.066-.066-.297 0-.363.77-.033.957-.088.957-1.001V1.342C1.166.429.979.374.209.341.143.275.143.044.209-.022.638-.011 1.221 0 1.639 0c.407 0 .869-.022 2.002-.022 1.551 0 3.597.704 3.597 3.41 0 2.046-1.683 3.729-3.795 3.729-.781 0-1.386-.022-1.815-.022M2.101.924v5.28c0 .385.385.539.924.539 2.376 0 3.157-1.925 3.157-3.619C6.182.902 4.851.352 3.3.352c-1.078 0-1.199.22-1.199.572"/></symbol><symbol id="r" overflow="visible"><path d="M2.508-.11c.847 0 2.134.858 2.134 3.443 0 1.089-.264 2.024-.748 2.662-.286.385-.748.715-1.342.715C1.463 6.71.429 5.412.429 3.234c0-1.177.363-2.277.968-2.882A1.52 1.52 0 0 1 2.508-.11m.044 6.435a.73.73 0 0 0 .495-.187c.341-.286.638-1.122.638-2.596 0-1.012-.033-1.705-.187-2.266C3.256.374 2.717.275 2.519.275c-1.023 0-1.133 1.881-1.133 2.838 0 2.706.671 3.212 1.166 3.212"/></symbol><symbol id="s" overflow="visible"><path d="M3.168 1.342v3.817c0 .66.011 1.331.033 1.474 0 .055-.022.055-.066.055-.605-.374-1.188-.649-2.156-1.1.022-.121.066-.231.165-.297.506.209.748.275.957.275.187 0 .22-.264.22-.638V1.342c0-.913-.297-.968-1.067-1.001-.066-.066-.066-.297 0-.363.539.011.935.022 1.529.022.528 0 .792-.011 1.342-.022.066.066.066.297 0 .363-.77.033-.957.088-.957 1.001"/></symbol><symbol id="t" overflow="visible"><path d="M.671 5.148c0-.231.209-.429.44-.429.187 0 .517.198.517.44 0 .088-.022.154-.044.231s-.088.176-.088.264c0 .275.286.671 1.089.671.396 0 .957-.275.957-1.331 0-.704-.253-1.276-.902-1.936l-.814-.803C.748 1.155.572.627.572-.022c0 0 .561.022.913.022H3.41c.352 0 .858-.022.858-.022.143.583.253 1.408.264 1.738-.066.055-.209.077-.319.055C4.026.99 3.839.715 3.443.715H1.485c0 .528.759 1.276.814 1.331L3.41 3.113c.627.605 1.1 1.089 1.1 1.925 0 1.188-.968 1.672-1.859 1.672-1.221 0-1.98-.902-1.98-1.562"/></symbol><symbol id="u" overflow="visible"><path d="M4.147 7.238c-1.837 0-3.74-1.441-3.74-3.861 0-1.98 1.364-3.487 3.465-3.487 1.298 0 2.321.275 3.069.913-.121.099-.176.187-.176.308v1.276c0 .385.187.495.506.528.066.066.066.33 0 .396a21 21 0 0 0-.979-.022c-.363 0-.88.011-1.364.022-.066-.066-.066-.33 0-.396.605-.044.902-.088.902-.528V.704C5.456.352 4.719.286 4.125.286c-1.738 0-2.662 1.859-2.662 3.311 0 1.925 1.254 3.245 2.53 3.245 1.595 0 2.046-.913 2.332-1.859a.7.7 0 0 1 .363.066c-.022.462-.077.902-.253 1.694-.66.11-1.067.495-2.288.495"/></symbol><symbol id="v" overflow="visible"><path d="M6.116 5.632V2.035c0-.209 0-.33-.077-.33-.044 0-.209.198-.528.605L1.738 7.095l-1.485.022c-.066-.066-.066-.297 0-.363.473-.033.803-.418.869-.704V1.463C1.122.484.935.418.165.341.099.275.099.044.165-.022.638-.011 1.133 0 1.397 0c.253 0 .759-.011 1.221-.022.066.066.066.297 0 .363-.77.077-.957.121-.957 1.122v3.366c0 .374 0 .539.088.539.066 0 .187-.121.374-.363L5.962.154c.121-.165.264-.264.44-.264.154 0 .253.132.253.341v5.401c0 .979.187 1.045.957 1.122.066.066.066.297 0 .363a65 65 0 0 0-1.232-.022c-.231 0-.737.011-1.221.022-.066-.066-.066-.297 0-.363.77-.077.957-.121.957-1.122"/></symbol><symbol id="w" overflow="visible"><path d="M1.628 7.095c-.396 0-.99.011-1.419.022-.066-.066-.066-.297 0-.363.77-.033.957-.088.957-1.001V1.342C1.166.429.979.374.209.341.143.275.143.044.209-.022A64 64 0 0 0 1.639 0c.396 0 .682-.022 1.606-.022 2.189 0 2.772 1.1 2.772 2.046 0 1.056-.737 1.661-1.694 1.936v.022c.55.275 1.045.847 1.045 1.441 0 .737-.319 1.694-2.365 1.694-.385 0-.979-.022-1.375-.022m.473-3.443h.759c1.507 0 2.134-.847 2.134-1.837 0-.803-.308-1.474-1.98-1.474-.77 0-.913.286-.913.957Zm0 2.398c0 .583 0 .693.957.693.616 0 1.419-.33 1.419-1.452 0-.935-.649-1.265-1.562-1.265h-.814Z"/></symbol><symbol id="x" overflow="visible"><path d="M2.101 1.342v4.411c0 .913.187.968.957 1.001.066.066.066.297 0 .363a67 67 0 0 0-1.43-.022c-.363 0-.902.011-1.419.022-.066-.066-.066-.297 0-.363.77-.033.957-.088.957-1.001V1.342C1.166.429.979.374.209.341.143.275.143.044.209-.022.704-.011 1.243 0 1.639 0s.924-.011 1.419-.022c.066.066.066.297 0 .363-.77.033-.957.088-.957 1.001"/></symbol><symbol id="y" overflow="visible"><path d="M7.326 3.619c0 2.277-1.573 3.619-3.542 3.619C1.65 7.238.407 5.544.407 3.41.407 1.243 1.98-.11 3.85-.11c1.221 0 2.189.528 2.794 1.386.44.627.682 1.419.682 2.343M3.641 6.842c1.452 0 2.629-1.21 2.629-3.432 0-1.969-.946-3.124-2.2-3.124-1.342 0-2.607 1.199-2.607 3.311 0 2.31 1.089 3.245 2.178 3.245"/></symbol><symbol id="z" overflow="visible"><path d="M3.85 1.342v4.202c0 .704.11 1.122.506 1.122h.242c.825 0 1.342-.286 1.529-1.133.121 0 .275.011.374.055a13 13 0 0 0-.143 1.562c0 .011-.022.033-.033.033a39 39 0 0 0-2.464-.088h-.946c-.847 0-2.145.055-2.563.088-.022 0-.044-.022-.044-.033a12 12 0 0 0-.275-1.595c.11-.044.242-.055.374-.055.22.88.726 1.166 1.452 1.166h.539c.407 0 .517-.418.517-1.089V1.342c0-.913-.187-.968-1.067-1.001-.066-.066-.066-.297 0-.363.539.011 1.1.022 1.54.022.418 0 .979-.011 1.529-.022.066.066.066.297 0 .363-.88.033-1.067.088-1.067 1.001"/></symbol></defs></svg>