<svg width="400" height="400" viewBox="0 0 400 400" fill="none" xmlns="http://www.w3.org/2000/svg">
<g clip-path="url(#clip0_4_2)">
<path d="M0 400H400V0H0V400Z" fill="#0060AA"/>
<path d="M76.201 86.521H43.317V248.551H76.201V86.521Z" fill="white"/>
<path d="M218.56 82.719H138.474C130.76 82.719 119.354 91.3766 119.354 103.586V222.376C119.354 232.06 128.151 248.293 143.219 248.293H220.114V234.613H165.558C155.901 234.613 151.295 229.951 151.295 224.068V179.753C151.295 175.119 149.325 167.516 155.125 167.516H203.104V155.279H156.29C150.102 155.279 151.295 150.839 151.295 147.065V109.715C151.295 105.498 151.156 98.2274 159.287 98.2274H218.561L218.56 82.719Z" fill="white"/>
<path d="M359.78 109.72C359.78 109.72 341.965 79.335 301.728 79.335C268.873 79.335 225.915 110.136 225.915 167.105C225.915 229.124 274.644 251.906 304.059 251.906C348.931 251.906 365.192 210.144 365.192 210.144L357.45 202.957C357.45 202.957 336.832 239.891 306.085 239.891C287.132 239.891 256.857 221.105 256.857 167.106C256.857 107.168 282.498 91.99 306.085 91.99C335.111 91.99 351.65 118.157 351.65 118.157L359.78 109.72Z" fill="white"/>
<path d="M338.83 334.48C351.345 334.48 361.502 323.88 361.502 310.783C361.502 297.685 351.345 287.058 338.83 287.058C326.287 287.058 316.158 297.686 316.158 310.783C316.158 323.88 326.286 334.48 338.83 334.48Z" fill="white"/>
<path d="M43.317 326.63V333.484L314.847 333.595C312.904 331.541 311.295 329.21 309.88 326.741L43.317 326.63ZM306.057 306.373H43.317V314.17H305.937C305.825 313.033 305.607 311.951 305.607 310.785C305.607 309.259 305.857 307.816 306.049 306.373M43.3088 287.975V294.94H309.679C309.679 294.94 309.844 294.718 310.121 294.385C311.453 292.082 312.98 289.89 314.811 287.975H43.3088Z" fill="white"/>
</g>
<defs>
<clipPath id="clip0_4_2">
<rect width="400" height="400" fill="white"/>
</clipPath>
</defs>
</svg>
