<svg width="1058" height="367" viewBox="0 0 1058 367" fill="none" xmlns="http://www.w3.org/2000/svg">
<path d="M756.012 1.29507C729.952 5.40526 713.249 15.9868 704.854 33.7393C699.956 43.8836 698.47 57.4385 700.918 68.02C705.553 87.7839 719.895 100.202 751.203 111.92C764.757 116.992 778.312 123.376 783.647 127.312C786.008 129.061 788.981 132.209 790.206 134.308C792.217 137.631 792.479 139.03 792.13 143.752C791.692 150.311 789.156 154.334 782.86 158.357C775.251 163.167 771.404 163.954 755.138 163.954C743.419 163.954 738.959 163.604 734.15 162.292C726.104 160.106 717.272 156.258 709.663 151.71C701.268 146.551 700.481 146.988 700.481 157.657C700.481 162.117 700.044 170.6 699.607 176.634C698.907 185.029 698.994 187.74 699.869 188.615C701.53 190.189 718.146 194.911 729.34 196.835C742.37 199.109 766.856 199.983 779.099 198.584C814.604 194.386 837.604 177.946 844.338 151.71C846.087 144.977 846.087 130.46 844.338 123.726C840.14 107.723 830.608 96.2667 814.517 87.7839C810.669 85.7726 799.738 81.3126 790.118 77.8145C768.605 70.0314 763.008 67.5828 758.811 63.8224C754.526 60.062 752.952 56.9138 752.952 52.0165C752.952 30.5911 794.491 26.8307 824.836 45.4577C829.384 48.2562 831.482 48.6934 832.095 46.9444C832.794 44.8456 835.243 11.3519 834.718 10.5649C834.106 9.428 819.414 4.70565 811.544 3.13154C795.802 -0.191593 770.267 -0.97865 756.012 1.29507Z" fill="black"/>
<path d="M26.6725 3.48132L7.43335 3.91857V11.7891C7.43335 16.0742 8.04551 35.4009 8.65766 54.64C9.53217 80.5255 9.61962 101.251 9.09491 134.22C8.65766 158.707 8.30786 182.93 8.30786 188.003V197.185L36.2921 196.923C51.6835 196.748 64.5387 196.31 64.976 195.961C65.3258 195.611 65.1509 184.155 64.6262 170.425C63.9266 153.634 63.7517 122.414 64.1889 74.0541L64.7136 2.60681L55.2689 2.78171C50.1093 2.86916 37.2541 3.21896 26.6725 3.48132Z" fill="black"/>
<path d="M130.739 3.48133L98.3822 3.91858L98.5571 10.4774C99.3442 38.2867 99.694 155.733 98.9944 173.573C98.2948 189.926 98.3822 195.786 99.0818 196.66C99.9563 197.71 110.188 197.797 167.818 197.36C212.156 197.01 235.855 196.485 236.554 195.873C237.516 195.086 239.003 177.334 239.091 164.391L239.178 160.456H232.619C229.034 160.456 209.882 160.805 190.118 161.243L154.176 162.03L153.564 138.68C153.214 125.825 153.214 114.981 153.476 114.456C153.913 113.932 166.157 113.844 189.593 114.194C219.676 114.719 225.361 114.631 226.148 113.582C227.11 112.27 229.384 82.9741 228.596 81.0502C228.247 80.0882 220.901 79.9133 190.555 80.2631L153.039 80.7004L153.214 59.0126L153.476 37.3248L193.266 37.2373L233.056 37.1499L233.669 32.7773C234.98 23.3327 235.855 4.79309 234.98 3.65623C234.106 2.51937 201.312 2.51937 130.739 3.48133Z" fill="black"/>
<path d="M303.017 3.48134L270.66 3.91859L270.923 8.29113C271.098 10.6523 271.36 54.2028 271.447 104.924L271.71 197.185L309.663 197.36C330.564 197.535 361.609 197.272 378.662 196.923L409.707 196.31L410.319 190.451C410.582 187.216 411.019 179.17 411.194 172.524L411.456 160.456H404.897C401.312 160.543 382.073 160.893 362.309 161.243L326.192 162.03V137.806V113.582L361.871 114.194C391.867 114.719 397.639 114.631 398.513 113.582C399.563 112.27 401.924 83.149 401.137 81.0502C400.787 80.0883 394.84 79.9134 363.62 80.2632L326.454 80.7004L325.929 77.2898C325.142 72.9173 325.142 54.9899 325.842 44.933L326.454 37.1499H366.331H406.209L407.258 20.9715C407.871 12.0515 408.22 4.2684 407.958 3.65624C407.521 2.51938 373.852 2.43193 303.017 3.48134Z" fill="black"/>
<path d="M476.52 3.21898C452.296 3.48133 444.25 3.74368 443.638 4.61819C443.113 5.23035 443.113 8.99073 443.638 14.8499C444.513 24.6444 444.95 136.756 444.25 174.448L443.813 197.185L512.374 197.01C556.012 196.835 581.286 196.485 581.81 195.961C582.772 194.999 585.046 162.992 584.346 160.98C583.997 160.018 582.073 159.843 574.639 160.281C569.567 160.63 550.59 161.155 532.488 161.417L499.519 162.03L498.907 147.688C498.645 139.817 498.47 128.973 498.645 123.726L498.907 114.107L534.325 114.369C556.624 114.544 570.179 114.369 570.966 113.757C571.928 113.145 572.453 109.822 572.89 101.689C573.24 95.567 573.765 88.4835 574.027 85.9474C574.377 82.7992 574.202 81.2251 573.502 80.7004C572.89 80.3506 555.75 80.1757 535.374 80.3506L498.47 80.6129L498.645 59.0126L498.907 37.3248L538.697 37.2373L578.487 37.1499L579.537 24.4695C580.149 17.4735 580.586 9.77779 580.411 7.41662L580.236 3.04408H544.381C524.705 3.04408 494.097 3.13153 476.52 3.21898Z" fill="black"/>
<path d="M921.819 4.53074C921.382 5.6676 919.633 9.69034 917.971 13.5382C916.31 17.386 909.926 32.3401 903.804 46.7695C897.683 61.1989 887.626 84.8106 881.504 99.24C849.847 173.486 840.402 195.873 840.402 196.66C840.402 197.36 849.235 197.622 867.862 197.622H895.234L903.804 175.497C908.527 163.429 915.085 146.376 918.408 137.718C929.865 108.16 934.674 95.7419 940.883 79.7384C944.294 70.9934 947.092 63.3851 947.092 62.9479C947.092 62.4232 947.442 62.0734 947.879 62.0734C948.317 62.0734 950.241 66.0961 952.164 70.9934C954.088 75.9781 958.461 87.2592 961.959 96.1792C965.37 105.099 970.442 118.217 973.24 125.475C976.039 132.646 981.198 146.026 984.696 155.208C988.194 164.303 993.354 177.508 996.065 184.505L1001.05 197.185L1029.12 197.447C1044.6 197.535 1057.28 197.272 1057.28 196.923C1057.28 196.485 1052.38 184.767 1046.44 170.862C1034.11 142.091 1005.16 74.1416 987.582 32.7774C981.023 17.386 975.252 4.26839 974.814 3.65624C974.202 2.86918 967.818 2.60683 948.317 2.60683H922.606L921.819 4.53074Z" fill="black"/>
<rect y="284.81" width="1054.36" height="81.5919" fill="#00AEEF"/>
</svg>
