<svg width="500" height="501" viewBox="0 0 500 501" fill="none" xmlns="http://www.w3.org/2000/svg">
<g clip-path="url(#clip0_5_14)">
<path d="M97.972 402.528C134.067 438.623 181.827 460.698 232.708 464.804C283.589 468.909 334.271 454.777 375.686 424.936C417.102 395.095 446.549 351.492 458.759 301.928C470.969 252.363 465.146 200.071 442.331 154.407C419.516 108.743 381.198 72.6864 334.233 52.6875C287.267 32.6885 234.718 30.0524 185.987 45.2506C137.256 60.4488 95.5219 92.4898 68.2516 135.641C40.9814 178.793 29.954 230.239 37.1425 280.777C38.8945 293.094 45.2498 304.289 54.928 312.106C64.6061 319.923 76.8875 323.781 89.2973 322.903C101.707 322.025 113.323 316.476 121.804 307.374C130.284 298.271 135 286.293 135 273.852V138H180V273.852C180 296.372 171.477 318.058 156.143 334.552C140.809 351.046 119.801 361.125 97.3404 362.764C74.8798 364.403 52.6311 357.48 35.0652 343.388C17.4993 329.295 5.91803 309.076 2.64859 286.794C-5.97543 228.02 6.61076 168.096 38.1521 117.758C69.6934 67.4201 118.129 29.9583 174.779 12.0848C231.43 -5.78867 292.594 -2.90578 347.312 20.2169C402.031 43.3397 446.727 85.1911 473.394 138.273C500.061 191.354 506.955 252.197 492.841 309.899C478.727 367.601 444.527 418.392 396.37 453.172C348.212 487.951 289.244 504.446 230.03 499.701C170.817 494.956 115.228 469.281 73.2233 427.277M275 138V363H225V138M396.762 250.398C406.324 259.29 412.986 270.854 415.882 283.586C418.777 296.318 417.771 309.627 412.994 321.779C408.218 333.931 399.892 344.363 389.102 351.715C378.311 359.068 365.557 363 352.5 363H312.5V323H345C350.524 323 355.92 321.336 360.485 318.226C365.05 315.115 368.573 310.702 370.594 305.56C372.615 300.419 373.04 294.789 371.815 289.402C370.59 284.015 367.772 279.123 363.726 275.361L332.441 246.271C323.246 237.722 316.84 226.602 314.056 214.359C311.272 202.117 312.239 189.32 316.832 177.635C321.425 165.951 329.431 155.921 339.806 148.851C350.181 141.781 362.445 138 375 138H405V178H382.5C377.478 178 372.573 179.513 368.422 182.34C364.272 185.168 361.07 189.18 359.233 193.854C357.396 198.528 357.009 203.647 358.122 208.544C359.236 213.441 361.799 217.889 365.476 221.308" fill="#1069B2"/>
</g>
<defs>
<clipPath id="clip0_5_14">
<rect width="500" height="500" fill="white" transform="translate(0 0.5)"/>
</clipPath>
</defs>
</svg>
