<svg xmlns="http://www.w3.org/2000/svg" xmlns:xlink="http://www.w3.org/1999/xlink" width="304.771" height="183.334" class="typst-doc" viewBox="0 0 228.579 137.5"><path fill="#fff" d="M0 0v137.5h228.579V0Z" class="typst-shape"/><g class="typst-group"><path fill="none" stroke="#000" stroke-width=".5" d="M110.346 19.115H44.52" class="typst-shape"/><path fill="none" d="M59.543 65.122h31.402v21.37H59.543z" class="typst-shape"/><g class="typst-group"><g class="typst-group"><g class="typst-text" transform="matrix(1 0 0 -1 66.543 79.36)"><use xlink:href="#a"/><use xlink:href="#b" x="5.115"/><use xlink:href="#c" x="10.23"/></g></g></g><path fill="none" stroke="#000" stroke-width=".5" d="M44.52 132.5V90.831m0-30.047v-41.67" class="typst-shape"/><path fill="none" d="M5 70.692h11.29v10.23H5z" class="typst-shape"/><g class="typst-group"><g class="typst-group"><use xlink:href="#d" class="typst-text" transform="matrix(1 0 0 -1 5 78.205)"/><use xlink:href="#e" class="typst-text" transform="matrix(1 0 0 -1 11.292 80.922)"/></g></g><path fill="none" stroke="#000" stroke-width=".55" d="M26.662 102.17c-2.826-8.592-5.67-17.304-5.67-26.363 0-6.908 1.654-13.614 3.692-20.22" class="typst-shape"/><path stroke="#000" stroke-width=".55" d="m26.42 50.19.272 6.049-4.044-1.313z" class="typst-shape"/><path fill="none" d="M95.553 71.987h22.668v21.755H95.553z" class="typst-shape"/><g class="typst-group"><g class="typst-group"><use xlink:href="#f" class="typst-text" transform="matrix(1 0 0 -1 102.553 86.5)"/></g></g><path fill="none" stroke="#000" stroke-width=".5" d="M129.56 132.5V86.408m0-7.087V33.23m0-28.23h56.692" class="typst-shape"/><path fill="none" d="M192.914 56.593h30.665v24.315h-30.665z" class="typst-shape"/><g class="typst-group"><g class="typst-group"><use xlink:href="#g" class="typst-text" transform="matrix(1 0 0 -1 199.914 71.106)"/><g class="typst-text" transform="matrix(1 0 0 -1 208.263 73.823)"><use xlink:href="#h"/><use xlink:href="#i" x="3.419"/></g></g></g><path fill="none" stroke="#000" stroke-width=".5" d="M186.252 5v43.766m0 39.968V132.5m0 0H44.52" class="typst-shape"/><path fill="none" stroke="#000" stroke-width=".8" d="M110.346 27.618V10.611" class="typst-shape"/><path fill="none" stroke="#000" stroke-width=".5" d="m110.346 22.516 19.213 10.713" class="typst-shape"/><path stroke="#000" stroke-width=".5" d="m122.428 29.253-5.987-.904 2.071-3.714z" class="typst-shape"/><path fill="none" stroke="#000" stroke-width=".5" d="M129.56 33.229Zm-19.214-17.516L129.559 5" class="typst-shape"/><path fill="#fff" stroke="#000" stroke-width=".8" d="M29.496 75.807c0 8.29 6.734 15.024 15.024 15.024s15.023-6.734 15.023-15.024S52.81 60.784 44.52 60.784s-15.024 6.734-15.024 15.023Z" class="typst-shape"/><path fill="none" d="M34.52 71.807h20v8h-20z" class="typst-shape"/><g class="typst-group"><g class="typst-group"><g class="typst-group"><path fill="none" stroke="#000" stroke-width=".55" d="M34.52 75.807c1.227-1.962 2.73-4 5-4 4.794 0 5.206 8 10 8 2.269 0 3.773-2.037 5-4" class="typst-shape"/></g></g></g><path fill="none" stroke="#000" stroke-width=".8" d="M140.898 86.408H118.22m22.678-7.087H118.22" class="typst-shape"/><path fill="#fff" stroke="#000" stroke-width=".8" d="M192.914 48.766H179.59v39.968h13.323z" class="typst-shape"/><path fill="none" stroke="#000" d="m169.87 57.279 26.955 18.874" class="typst-shape"/><path stroke="#000" d="m201.469 79.405-5.864-1.51 2.44-3.483z" class="typst-shape"/></g><defs><symbol id="a" overflow="visible"><path d="M3.168 1.342v3.817c0 .66.011 1.331.033 1.474 0 .055-.022.055-.066.055-.605-.374-1.188-.649-2.156-1.1.022-.121.066-.231.165-.297.506.209.748.275.957.275.187 0 .22-.264.22-.638V1.342c0-.913-.297-.968-1.067-1.001-.066-.066-.066-.297 0-.363.539.011.935.022 1.529.022.528 0 .792-.011 1.342-.022.066.066.066.297 0 .363-.77.033-.957.088-.957 1.001"/></symbol><symbol id="b" overflow="visible"><path d="M2.508-.11c.847 0 2.134.858 2.134 3.443 0 1.089-.264 2.024-.748 2.662-.286.385-.748.715-1.342.715C1.463 6.71.429 5.412.429 3.234c0-1.177.363-2.277.968-2.882A1.52 1.52 0 0 1 2.508-.11m.044 6.435a.73.73 0 0 0 .495-.187c.341-.286.638-1.122.638-2.596 0-1.012-.033-1.705-.187-2.266C3.256.374 2.717.275 2.519.275c-1.023 0-1.133 1.881-1.133 2.838 0 2.706.671 3.212 1.166 3.212"/></symbol><symbol id="c" overflow="visible"><path d="M4.928 6.754c.814-.055.814-.352.583-.946L3.773 1.397h-.044l-1.76 4.477c-.253.66-.187.803.561.88.066.066.066.297 0 .363-.44-.011-.935-.022-1.331-.022s-.781.011-1.144.022C-.011 7.051 0 6.82.066 6.754c.605-.055.693-.242.99-1.001L3.223.121c.066-.176.143-.253.253-.253.121 0 .198.099.264.253l2.277 5.61c.209.517.385.946 1.078 1.023.066.066.066.297 0 .363-.33-.011-.715-.022-.968-.022s-.748.011-1.199.022c-.066-.066-.066-.297 0-.363"/></symbol><symbol id="d" overflow="visible"><path d="M5.973 1.584c0 .099-.055.154-.176.154-.099 0-.154-.077-.187-.231-.055-.209-.11-.418-.187-.627C5.28.429 5.082.198 4.84.198q-.297 0-.297.462c0 .187.077.561.22 1.111l.297 1.166c.099.396.187.671.253 1.012l.066.297a.7.7 0 0 1 .033.165q0 .33-.363.33c-.242 0-.396-.132-.462-.407l-.814-3.256A1.5 1.5 0 0 0 3.63.836C3.454.55 3.025.198 2.585.198c-.418 0-.627.286-.627.847 0 .451.198 1.177.583 2.189.121.33.187.561.187.693 0 .55-.385.935-.935.935q-.742 0-1.155-.825c-.209-.429-.319-.726-.319-.88 0-.099.055-.154.176-.154.143 0 .165.066.209.22q.38 1.32 1.056 1.32c.154 0 .231-.11.231-.319 0-.165-.066-.396-.187-.715-.418-1.111-.627-1.881-.627-2.288 0-.847.528-1.342 1.375-1.342.473 0 .902.22 1.265.671.154-.451.484-.671.99-.671.759 0 .99.891 1.166 1.705"/></symbol><symbol id="e" overflow="visible"><path d="M2.333 5.113c-.331-.324-.824-.485-1.494-.485v-.34c.455 0 .816.07 1.094.201V.655q.002-.148-.031-.193-.058-.129-.693-.13H.893V0l1.37.03L3.644 0v.331h-.317q-.633.002-.7.131a.5.5 0 0 0-.023.192v4.212c0 .208-.031.247-.27.247"/></symbol><symbol id="f" overflow="visible"><path d="M1.628 2.398c0 1.408.616 2.838 1.309 3.63.561.649 1.529 1.298 2.618 1.298 1.144 0 1.705-.869 1.705-2.057 0-.099-.033-.451-.033-.55s.066-.154.209-.154a.4.4 0 0 1 .132.022.7.7 0 0 1 .11.231l.682 2.783c0 .099-.055.154-.165.154-.044 0-.11-.044-.198-.143l-.715-.803c-.429.627-1.034.946-1.815.946-.605 0-1.199-.143-1.804-.418C2.442 6.765 1.551 5.863.979 4.631A4.3 4.3 0 0 1 .55 2.783c0-.88.275-1.595.836-2.167s1.276-.858 2.156-.858c.869 0 1.661.319 2.376.946.297.253.55.561.759.902.297.495.451.836.451 1.045 0 .099-.055.154-.176.154-.099 0-.154-.044-.176-.143-.231-.715-.594-1.287-1.089-1.694C5.06.451 4.4.187 3.718.187c-1.32 0-2.09.891-2.09 2.211"/></symbol><symbol id="g" overflow="visible"><path d="M8.129 5.841c0 .561-.286.99-.847 1.298-.451.253-.99.374-1.595.374H2.585c-.253 0-.363-.011-.363-.264 0-.077.033-.132.099-.143.11-.011.198-.022.253-.022.33-.011.517-.033.572-.044s.088-.044.088-.099a1 1 0 0 0-.044-.198L1.738.902C1.683.66 1.573.506 1.408.451 1.331.429 1.133.418.792.418.55.418.451.407.451.165q0-.181.198-.165l1.364.033L3.399 0c.176-.011.264.088.264.253 0 .11-.121.165-.352.165-.44 0-.66.055-.66.154 0 0 .011.022.033.176l.704 2.849h1.265c.759 0 1.144-.319 1.144-.946 0-.099-.055-.341-.154-.737-.121-.462-.176-.77-.176-.935 0-.836.649-1.221 1.485-1.221.308 0 .605.143.902.418s.451.572.451.88c0 .11-.055.165-.176.165-.077 0-.143-.055-.176-.176-.121-.341-.275-.594-.451-.737s-.341-.22-.506-.22c-.253 0-.385.209-.385.616 0 .264.033.671.11 1.232.033.231.044.396.044.517 0 .583-.308 1.012-.924 1.276 1.034.253 2.288.99 2.288 2.112m-1.43.935q.33-.214.33-.726c0-.22-.044-.473-.143-.77q-.445-1.353-2.244-1.353H3.476l.693 2.783q.082.346.264.363c.055.011.275.011.66.011.715 0 1.133-.022 1.606-.308"/></symbol><symbol id="h" overflow="visible"><path d="M1.933 3.203q.485 0 .739-.23a.37.37 0 0 1-.316-.37c0-.255.123-.378.377-.378.255 0 .378.131.378.385 0 .547-.593.84-1.186.84-.477 0-.87-.17-1.186-.524a1.84 1.84 0 0 1-.477-1.263c0-.47.161-.885.477-1.232a1.51 1.51 0 0 1 1.17-.516q.579-.002.902.331c.177.178.292.355.354.54.023.069.03.115.03.146 0 .069-.046.1-.13.1-.062 0-.1-.031-.124-.093C2.78.424 2.464.162 1.98.162c-.223 0-.439.1-.655.308Q.946.825.948 1.679c0 .77.293 1.524.986 1.524"/></symbol><symbol id="i" overflow="visible"><path d="M2.418 3.196q.521.002.523-.817V.61c0-.147-.023-.24-.077-.27C2.811.308 2.641.3 2.356.3V0l.886.023L4.12 0v.3q-.37-.002-.486.031c-.077.023-.107.077-.107.162v1.455c0 .37-.008.624-.031.77-.077.47-.424.708-1.032.708q-.705 0-1.063-.646v2.564L.246 5.259v-.293q.417 0 .509-.069c.061-.046.084-.154.084-.33V.607Q.837.388.755.338C.7.309.53.3.246.3V0l.886.023L2.01 0v.3c-.285 0-.447.008-.5.039-.055.03-.085.123-.085.27v1.4c0 .624.392 1.187.993 1.187"/></symbol></defs></svg>