<svg xmlns="http://www.w3.org/2000/svg" xmlns:xlink="http://www.w3.org/1999/xlink" width="305.608" height="280.839" class="typst-doc" viewBox="0 0 229.206 210.629"><path fill="#fff" d="M0 0v210.63h229.206V0Z" class="typst-shape"/><g class="typst-group"><path fill="none" d="M48.822 7.134h27.442v21.755H48.822z" class="typst-shape"/><g class="typst-group"><g class="typst-group"><use xlink:href="#a" class="typst-text" transform="matrix(1 0 0 -1 55.822 21.647)"/><use xlink:href="#b" class="typst-text" transform="matrix(1 0 0 -1 61.322 21.647)"/></g></g><path fill="none" stroke="#000" stroke-width=".5" d="M20.024 35.55h22.535m39.969 0h22.535" class="typst-shape"/><path fill="none" d="M35.047 67.385h26.287v21.37H35.047z" class="typst-shape"/><g class="typst-group"><g class="typst-group"><g class="typst-text" transform="matrix(1 0 0 -1 42.047 81.623)"><use xlink:href="#c"/><use xlink:href="#d" x="7.172"/></g></g></g><path fill="none" stroke="#000" stroke-width=".5" d="M20.024 120.59V93.094m0-30.048V35.55" class="typst-shape"/><path fill="none" d="M26.685 152.353h27.442v21.513H26.685z" class="typst-shape"/><g class="typst-group"><g class="typst-group"><use xlink:href="#e" class="typst-text" transform="matrix(1 0 0 -1 33.685 166.866)"/><use xlink:href="#b" class="typst-text" transform="matrix(1 0 0 -1 39.185 166.866)"/></g></g><path fill="none" stroke="#000" stroke-width=".5" d="M20.024 120.59v22.535m0 39.969v22.535" class="typst-shape"/><path fill="none" d="M62.913 109.96H96.56v21.26H62.913z" class="typst-shape"/><g class="typst-group"><g class="typst-group"><g class="typst-text" transform="matrix(1 0 0 -1 69.913 124.198)"><use xlink:href="#f"/><use xlink:href="#g" x="5.808"/><use xlink:href="#h" x="11.935"/></g></g></g><path fill="none" stroke="#000" stroke-width=".5" d="M105.063 35.55v78.662m0 12.756v78.661" class="typst-shape"/><path fill="none" d="M130.391 5h34.383v23.889h-34.383z" class="typst-shape"/><g class="typst-group"><g class="typst-group"><use xlink:href="#i" class="typst-text" transform="matrix(1 0 0 -1 137.391 19.513)"/><use xlink:href="#j" class="typst-text" transform="matrix(1 0 0 -1 142.891 19.513)"/><use xlink:href="#k" class="typst-text" transform="matrix(1 0 0 -1 149.524 19.513)"/></g></g><path fill="none" stroke="#000" stroke-width=".5" d="M105.063 35.55h22.535m39.969 0h22.535" class="typst-shape"/><path fill="none" d="M196.764 109.833h27.442v21.513h-27.442z" class="typst-shape"/><g class="typst-group"><g class="typst-group"><use xlink:href="#l" class="typst-text" transform="matrix(1 0 0 -1 203.764 124.346)"/><use xlink:href="#b" class="typst-text" transform="matrix(1 0 0 -1 209.264 124.346)"/></g></g><path fill="none" stroke="#000" stroke-width=".5" d="M190.102 35.55v65.056m0 39.968v65.055m-170.078.001h170.078" class="typst-shape"/><path fill="#fff" stroke="#000" stroke-width=".8" d="M42.56 28.889v13.323h39.968V28.889zM5 78.07c0 8.29 6.734 15.024 15.024 15.024S35.047 86.36 35.047 78.07s-6.734-15.024-15.023-15.024S5 69.78 5 78.07Z" class="typst-shape"/><path fill="none" stroke="#000" stroke-width=".8" d="M20.024 93.094V63.046" class="typst-shape"/><path fill="#fff" stroke="#000" stroke-width=".8" d="M26.685 143.125H13.362v39.969h13.323zm78.378-16.157 7.365-12.756h-14.73z" class="typst-shape"/><path fill="none" stroke="#000" stroke-width=".5" d="M105.063 126.968v-12.756" class="typst-shape"/><path fill="none" stroke="#000" stroke-width=".8" d="M97.976 126.968h14.174" class="typst-shape"/><path fill="none" stroke="#000" stroke-width=".55" d="m114.596 116.952 5.786 3.341" class="typst-shape"/><path stroke="#000" stroke-width=".55" d="m124.31 122.56-4.778-.794 1.7-2.946z" class="typst-shape"/><path fill="none" stroke="#000" stroke-width=".55" d="m111.596 122.148 5.786 3.341" class="typst-shape"/><path stroke="#000" stroke-width=".55" d="m121.31 127.757-4.778-.795 1.7-2.946z" class="typst-shape"/><path stroke="#000" stroke-width=".8" d="M127.598 28.889v13.323h39.969V28.889z" class="typst-shape"/><path fill="#fff" stroke="#000" stroke-width=".8" d="M196.764 100.606H183.44v39.968h13.323z" class="typst-shape"/></g><defs><symbol id="a" overflow="visible"><path d="M3.333 3.883c.726.275 1.408.968 1.408 1.903 0 .473-.231.858-.682 1.155a2.46 2.46 0 0 1-1.353.385c-.495 0-.924-.132-1.309-.385-.429-.286-.649-.66-.649-1.133 0-.363.242-.616.594-.616s.594.253.594.605c0 .363-.209.561-.627.583.286.385.737.583 1.353.583.66 0 .99-.385.99-1.166 0-.462-.088-.847-.253-1.166-.297-.528-.704-.627-1.386-.627-.132-.022-.198-.077-.198-.176 0-.165.077-.165.297-.165h.473c.825 0 1.243-.583 1.243-1.76 0-.935-.341-1.749-1.177-1.749-.715 0-1.243.242-1.562.726a.636.636 0 0 1 .671.649.63.63 0 0 1-.649.649c-.429 0-.649-.22-.649-.671 0-.539.242-.968.726-1.309.429-.297.935-.44 1.496-.44a2.43 2.43 0 0 1 1.639.616c.473.407.704.913.704 1.529 0 1.034-.814 1.749-1.694 1.98"/></symbol><symbol id="b" overflow="visible"><path d="M2.937.275c0 .528-.198 1.342-.583 2.431-.363.979-.539 1.738-.539 2.288 0 1.342.836 2.431 2.145 2.431s2.156-1.089 2.156-2.431c0-.539-.209-1.386-.616-2.519-.341-.968-.506-1.705-.506-2.2 0-.264.044-.275.319-.275h1.771l.374 1.848h-.363a7 7 0 0 0-.198-.825c-.044-.121-.143-.187-.286-.22-.033-.011-.165-.011-.396-.011h-.814q.165.627.957 1.782.957 1.435.957 2.409c0 .825-.363 1.507-1.078 2.046-.649.484-1.408.726-2.266.726q-1.303 0-2.277-.726C.979 6.501.616 5.819.616 4.983q0-.957.957-2.409c.418-.616.781-1.155.957-1.782h-.814c-.374 0-.594.055-.649.154-.11.352-.187.649-.231.902H.473L.847 0h1.782c.253 0 .308.022.308.275"/></symbol><symbol id="c" overflow="visible"><path d="M4.928 6.754c.814-.055.814-.352.583-.946L3.773 1.397h-.044l-1.76 4.477c-.253.66-.187.803.561.88.066.066.066.297 0 .363-.44-.011-.935-.022-1.331-.022s-.781.011-1.144.022C-.011 7.051 0 6.82.066 6.754c.605-.055.693-.242.99-1.001L3.223.121c.066-.176.143-.253.253-.253.121 0 .198.099.264.253l2.277 5.61c.209.517.385.946 1.078 1.023.066.066.066.297 0 .363-.33-.011-.715-.022-.968-.022s-.748.011-1.199.022c-.066-.066-.066-.297 0-.363"/></symbol><symbol id="d" overflow="visible"><path d="M3.168 1.342v3.817c0 .66.011 1.331.033 1.474 0 .055-.022.055-.066.055-.605-.374-1.188-.649-2.156-1.1.022-.121.066-.231.165-.297.506.209.748.275.957.275.187 0 .22-.264.22-.638V1.342c0-.913-.297-.968-1.067-1.001-.066-.066-.066-.297 0-.363.539.011.935.022 1.529.022.528 0 .792-.011 1.342-.022.066.066.066.297 0 .363-.77.033-.957.088-.957 1.001"/></symbol><symbol id="e" overflow="visible"><path d="M3.883 7.447c-.099 0-.187-.055-.253-.154L.308 2.189v-.396h2.871V.891c0-.198-.044-.33-.121-.385S2.772.429 2.409.429h-.275V0c.319.022.825.033 1.507.033S4.829.022 5.148 0v.429h-.275c-.363 0-.572.022-.649.077s-.121.187-.121.385v.902h1.078v.429H4.103V7.26c0 .11-.077.187-.22.187m-.638-1.364V2.222H.737Z"/></symbol><symbol id="f" overflow="visible"><path d="M1.639 0h2.343c.297 0 1.309-.022 1.309-.022.11.55.22 1.265.286 1.837-.11.055-.231.077-.363.055-.22-.792-.627-1.441-1.793-1.441h-.693c-.429 0-.627.209-.627.77v4.554c0 .913.187.968.957 1.001.066.066.066.297 0 .363a69 69 0 0 0-1.43-.022c-.396 0-.913.011-1.419.022-.066-.066-.066-.297 0-.363.77-.033.957-.088.957-1.001V1.342C1.166.429.979.374.209.341.143.275.143.044.209-.022A67 67 0 0 0 1.639 0"/></symbol><symbol id="g" overflow="visible"><path d="M3.091 3.971H2.09v1.98c0 .484.132.704.726.704h.825c.825 0 1.001-.44 1.243-1.199a.58.58 0 0 1 .363.055c-.055.451-.22 1.507-.242 1.595 0 .022-.011.033-.044.033a2.5 2.5 0 0 0-.539-.044H1.617c-.33 0-.979.011-1.419.022-.066-.066-.066-.297 0-.363.77-.033.957-.088.957-1.001V1.342C1.155.429.968.374.198.341.132.275.132.044.198-.022A66 66 0 0 0 1.628 0h2.365c.528 0 1.408-.022 1.408-.022.154.55.319 1.276.407 1.837a.5.5 0 0 1-.385.055C5.203 1.078 4.818.429 3.982.429H2.706c-.462 0-.616.176-.616.693v2.431h1.001c.935 0 .968-.253 1.001-.748.066-.066.297-.066.363 0-.011.286-.022.594-.022.968 0 .308.011.682.022.946-.066.066-.297.066-.363 0-.033-.605-.066-.748-1.001-.748"/></symbol><symbol id="h" overflow="visible"><path d="M1.628 7.095c-.396 0-.979.011-1.419.022-.066-.066-.066-.297 0-.363.77-.033.957-.088.957-1.001V1.342C1.166.429.979.374.209.341.143.275.143.044.209-.022.638-.011 1.221 0 1.639 0c.407 0 .869-.022 2.002-.022 1.551 0 3.597.704 3.597 3.41 0 2.046-1.683 3.729-3.795 3.729-.781 0-1.386-.022-1.815-.022M2.101.924v5.28c0 .385.385.539.924.539 2.376 0 3.157-1.925 3.157-3.619C6.182.902 4.851.352 3.3.352c-1.078 0-1.199.22-1.199.572"/></symbol><symbol id="i" overflow="visible"><path d="M4.213 5.544c.363 0 .539.187.539.561 0 .792-.594 1.221-1.408 1.221-.913 0-1.639-.429-2.178-1.298C.693 5.28.462 4.433.462 3.476c0-1.397.253-2.376.77-2.959.44-.506.946-.759 1.529-.759q1.007 0 1.65.759c.407.484.616 1.067.616 1.738q0 1.006-.594 1.716c-.418.506-.957.77-1.606.77-.572 0-1.012-.319-1.309-.935v.066c0 1.243.308 2.299.968 2.783.286.209.583.308.88.308.396 0 .682-.11.869-.341-.374 0-.561-.209-.561-.539 0-.308.231-.539.539-.539M3.784 3.74c.121-.253.187-.748.187-1.474 0-.715-.055-1.188-.176-1.43-.22-.451-.561-.682-1.034-.682-.319 0-.561.11-.737.33-.143.176-.242.33-.286.451-.132.341-.198.858-.198 1.562 0 .308.044.605.121.891.143.517.55 1.001 1.155 1.001.429 0 .759-.22.968-.649"/></symbol><symbol id="j" overflow="visible"><path d="M6.292 1.562c0 .099-.055.154-.176.154-.088 0-.154-.077-.187-.22-.22-.88-.484-1.32-.781-1.32-.187 0-.286.154-.286.462 0 .187.066.561.209 1.111l.308 1.177c.099.396.187.671.253 1.012l.066.308a1 1 0 0 1 .033.154c0 .231-.121.341-.363.341s-.396-.132-.462-.407l-.792-3.146c0-.121-.176-.341-.528-.671A1.16 1.16 0 0 0 2.75.176c-.506 0-.759.297-.759.902 0 .209.044.506.143.913l.462 1.826c.088.341.143.583.165.704 0 .231-.121.341-.363.341s-.396-.143-.473-.429L.363-1.859a1 1 0 0 1-.033-.176c0-.231.121-.341.352-.341.165 0 .297.088.418.253.033.077.22.836.583 2.277q.396-.297 1.023-.297c.649 0 1.078.341 1.419.737a1.02 1.02 0 0 1 1.001-.737c.759 0 .99.891 1.166 1.705"/></symbol><symbol id="k" overflow="visible"><path d="M6.226.033q1.221 0 1.65-.033v.429h-.308c-.385 0-.616.022-.693.077s-.121.187-.121.385v5.731c0 .198.044.319.121.374s.308.088.693.088h.308v.429a26 26 0 0 0-1.639-.033q-1.237 0-1.65.033v-.429h.297c.385 0 .616-.033.693-.088s.121-.176.121-.374V4.125H2.541v2.497c0 .198.044.319.121.374s.308.088.693.088h.297v.429c-.275-.022-.825-.033-1.639-.033q-1.221 0-1.65.033v-.429h.308c.385 0 .616-.033.693-.088s.121-.176.121-.374V.891c0-.198-.044-.33-.121-.385S1.056.429.671.429H.363V0c.286.022.836.033 1.639.033Q3.24.033 3.652 0v.429h-.297c-.385 0-.616.022-.693.077s-.121.187-.121.385v2.805h3.157V.891c0-.198-.044-.33-.121-.385S5.269.429 4.884.429h-.297V0c.275.022.825.033 1.639.033"/></symbol><symbol id="l" overflow="visible"><path d="M2.607 7.326a2 2 0 0 1-1.441-.594C.759 6.336.55 5.874.55 5.313c0-.374.275-.649.616-.649a.62.62 0 0 1 .605.616.595.595 0 0 1-.616.616c-.033 0-.055 0-.077-.011.209.539.693 1.012 1.386 1.012.902 0 1.408-.781 1.408-1.727 0-.737-.374-1.529-1.122-2.365L.682.473C.539.308.55.319.55 0h4.081l.319 1.98h-.363c-.088-.561-.165-.88-.231-.979-.055-.055-.385-.077-.99-.077H1.529l1.067 1.045c.748.704 1.694 1.463 2.013 2.046q.33.577.33 1.155c0 1.298-1.012 2.156-2.332 2.156"/></symbol></defs></svg>