<svg xmlns="http://www.w3.org/2000/svg" xmlns:xlink="http://www.w3.org/1999/xlink" width="354.247" height="208.097" class="typst-doc" viewBox="0 0 265.685 156.072"><path fill="#fff" d="M0 0v156.072h265.685V0Z" class="typst-shape"/><g class="typst-group"><path fill="none" d="M131.474 96.668h25.572v21.348h-25.572z" class="typst-shape"/><g class="typst-group"><g class="typst-group"><g class="typst-text" transform="matrix(1 0 0 -1 138.474 110.906)"><use xlink:href="#a"/><use xlink:href="#b" x="6.457"/></g></g></g><path fill="none" stroke="#000" stroke-width=".5" d="m133.41 151.072 14.215-14.215m28.262-28.262 14.215-14.216" class="typst-shape"/><path fill="none" d="M131.474 70.743h25.572v21.348h-25.572z" class="typst-shape"/><g class="typst-group"><g class="typst-group"><g class="typst-text" transform="matrix(1 0 0 -1 138.474 84.981)"><use xlink:href="#a"/><use xlink:href="#c" x="6.457"/></g></g></g><path fill="none" stroke="#000" stroke-width=".5" d="m190.102 94.38-14.215-14.216m-28.262-28.262-14.216-14.215" class="typst-shape"/><path fill="none" d="M109.773 96.668h25.572v21.348h-25.572z" class="typst-shape"/><g class="typst-group"><g class="typst-group"><g class="typst-text" transform="matrix(1 0 0 -1 116.773 110.906)"><use xlink:href="#a"/><use xlink:href="#d" x="6.457"/></g></g></g><path fill="none" stroke="#000" stroke-width=".5" d="m133.41 151.072-14.216-14.215m-28.262-28.262L76.717 94.379" class="typst-shape"/><path fill="none" d="M109.773 70.743h25.572v21.348h-25.572z" class="typst-shape"/><g class="typst-group"><g class="typst-group"><g class="typst-text" transform="matrix(1 0 0 -1 116.773 84.981)"><use xlink:href="#a"/><use xlink:href="#e" x="6.457"/></g></g></g><path fill="none" stroke="#000" stroke-width=".5" d="m76.717 94.38 14.215-14.216m28.262-28.262 14.215-14.215" class="typst-shape"/><path fill="none" d="M35.047 83.705H60.62v21.348H35.047z" class="typst-shape"/><g class="typst-group"><g class="typst-group"><g class="typst-text" transform="matrix(1 0 0 -1 42.047 97.943)"><use xlink:href="#a"/><use xlink:href="#b" x="6.457"/></g></g></g><path fill="none" stroke="#000" stroke-width=".5" d="M20.024 151.072v-41.669m0-30.047v-41.67" class="typst-shape"/><path fill="none" d="M176.992 5h26.22v21.348h-26.22z" class="typst-shape"/><g class="typst-group"><g class="typst-group"><g class="typst-text" transform="matrix(1 0 0 -1 183.992 19.238)"><use xlink:href="#f"/><use xlink:href="#b" x="7.106"/></g></g></g><path fill="none" stroke="#000" stroke-width=".5" d="M133.41 37.687h53.15m7.086 0h53.15m-.001 0V80.49m0 27.78v42.802m-226.771 0h226.771M20.024 37.687h113.385" class="typst-shape"/><path fill="#fff" stroke="#000" stroke-width=".8" d="m142.915 132.147 9.42 9.42 28.262-28.262-9.42-9.42z" class="typst-shape"/><path fill="none" stroke="#000" d="m165.229 142.422-5.714-32.407" class="typst-shape"/><path stroke="#000" d="m158.53 104.432 3.078 5.214-4.187.739z" class="typst-shape"/><path fill="#fff" stroke="#000" stroke-width=".8" d="m171.177 84.874 9.42-9.42-28.262-28.262-9.42 9.42zm-56.693 56.693 9.42-9.42-28.262-28.262-9.42 9.42zM86.222 75.454l9.42 9.42 28.262-28.262-9.42-9.42zM5 94.38c0 8.29 6.734 15.023 15.024 15.023s15.023-6.734 15.023-15.024-6.734-15.023-15.023-15.023S5 86.09 5 94.379Z" class="typst-shape"/><path fill="none" stroke="#000" stroke-width=".8" d="M20.024 109.403V79.356M186.56 49.025V26.348m7.086 22.677V26.348" class="typst-shape"/><path fill="#fff" stroke="#000" stroke-width=".8" d="M260.685 94.38c0-7.665-6.226-13.89-13.89-13.89s-13.89 6.225-13.89 13.89c0 7.664 6.226 13.89 13.89 13.89s13.89-6.226 13.89-13.89Z" class="typst-shape"/><path fill="none" d="M241.33 85.33h10.93v9.05h-10.93z" class="typst-shape"/><g class="typst-group"><g class="typst-group"><use xlink:href="#g" class="typst-text" transform="matrix(1 0 0 -1 242.18 93.42)"/></g></g><path fill="none" d="M238.11 94.38h17.37v10.37h-17.37z" class="typst-shape"/><g class="typst-group"><g class="typst-group"><g class="typst-group"><path fill="none" stroke="#000" stroke-width=".55" d="M241.795 98.065h10m-10 3h2.334m1.5 0h2.333m3.833 0h-2.333" class="typst-shape"/></g></g></g></g><defs><symbol id="a" overflow="visible"><path d="M2.079 1.342v1.859c.924 0 1.133-.165 1.287-.418L4.543.869c.319-.517.792-.979 1.452-.979.165 0 .352.022.462.077.044.077.033.176-.011.264-.495 0-.77.374-1.056.847l-1.386 2.31c.473.154 1.463.726 1.463 1.881 0 .55-.187 1.001-.583 1.375-.528.495-1.21.528-1.903.528-.517 0-.979-.077-1.375-.077-.385 0-.902.011-1.419.022-.066-.066-.066-.297 0-.363.77-.033.957-.088.957-1.001V1.342C1.144.429.957.374.187.341.121.275.121.044.187-.022.682-.011 1.199 0 1.617 0s.935-.011 1.419-.022c.066.066.066.297 0 .363-.77.033-.957.088-.957 1.001m.913 5.456c.671 0 1.463-.242 1.463-1.54 0-1.375-.781-1.683-1.848-1.683h-.528v2.519c0 .319.132.704.913.704"/></symbol><symbol id="b" overflow="visible"><path d="M3.168 1.342v3.817c0 .66.011 1.331.033 1.474 0 .055-.022.055-.066.055-.605-.374-1.188-.649-2.156-1.1.022-.121.066-.231.165-.297.506.209.748.275.957.275.187 0 .22-.264.22-.638V1.342c0-.913-.297-.968-1.067-1.001-.066-.066-.066-.297 0-.363.539.011.935.022 1.529.022.528 0 .792-.011 1.342-.022.066.066.066.297 0 .363-.77.033-.957.088-.957 1.001"/></symbol><symbol id="c" overflow="visible"><path d="M.671 5.148c0-.231.209-.429.44-.429.187 0 .517.198.517.44 0 .088-.022.154-.044.231s-.088.176-.088.264c0 .275.286.671 1.089.671.396 0 .957-.275.957-1.331 0-.704-.253-1.276-.902-1.936l-.814-.803C.748 1.155.572.627.572-.022c0 0 .561.022.913.022H3.41c.352 0 .858-.022.858-.022.143.583.253 1.408.264 1.738-.066.055-.209.077-.319.055C4.026.99 3.839.715 3.443.715H1.485c0 .528.759 1.276.814 1.331L3.41 3.113c.627.605 1.1 1.089 1.1 1.925 0 1.188-.968 1.672-1.859 1.672-1.221 0-1.98-.902-1.98-1.562"/></symbol><symbol id="d" overflow="visible"><path d="M2.365 6.325c.473 0 .913-.286.913-.99 0-.55-.638-1.397-1.727-1.551l.055-.352c.187.022.385.022.528.022.627 0 1.441-.176 1.441-1.419 0-1.463-.979-1.76-1.364-1.76-.561 0-.66.253-.792.451-.11.154-.253.286-.473.286-.231 0-.462-.209-.462-.385 0-.44.924-.737 1.584-.737 1.309 0 2.475.847 2.475 2.299 0 1.199-.902 1.628-1.551 1.738l-.011.022c.902.429 1.155.88 1.155 1.463 0 .33-.077.594-.341.869-.242.242-.627.429-1.199.429C.979 6.71.517 5.654.517 5.291c0-.154.11-.374.374-.374.385 0 .429.363.429.572 0 .704.759.836 1.045.836"/></symbol><symbol id="e" overflow="visible"><path d="M4.73 2.409h-.913v3.212c0 .55 0 .979.022 1.067l-.022.022h-.352c-.077 0-.132-.066-.176-.121C2.596 5.742 1.32 3.927.308 2.354c.033-.165.099-.462.429-.462h2.244V.88c0-.506-.418-.506-.891-.539-.066-.066-.066-.297 0-.363.352.011.792.022 1.298.022.429 0 .847-.011 1.199-.022.066.066.066.297 0 .363-.539.044-.77.022-.77.539v1.012h.759c.154 0 .319.209.319.341 0 .11-.044.176-.165.176M2.981 5.577V2.409H.88c.561.902 1.342 2.134 2.101 3.168"/></symbol><symbol id="f" overflow="visible"><path d="M3.927-.11c1.067 0 2.046.506 2.794 1.485-.055.099-.132.165-.253.165C5.687.682 4.939.341 3.916.341c-1.485 0-2.508 1.672-2.508 3.278 0 .946.253 1.738.649 2.233.55.671 1.188.979 1.76.979 1.518 0 2.123-.902 2.409-1.848.132-.044.242-.011.363.055-.055.572-.132 1.1-.242 1.705-.561.055-1.056.495-2.409.495-.935 0-1.716-.341-2.365-.935C.847 5.632.407 4.554.407 3.41c0-1.914 1.155-3.52 3.52-3.52"/></symbol><symbol id="g" overflow="visible"><path d="M7.293 1.276c.055-.891.011-.902-.704-.935-.066-.066-.066-.297 0-.363.407.011.847.022 1.177.022s.836-.011 1.199-.022c.066.066.066.297 0 .363-.748.033-.781.077-.847.99l-.33 4.631c-.044.594.011.748.759.792.066.066.066.297 0 .363l-1.441-.022-2.332-5.577c-.044-.11-.077-.154-.099-.154s-.055.055-.088.143L2.332 7.095l-1.595.022c-.066-.066-.066-.297 0-.363.759-.044.825-.066.748-.891l-.44-4.532C.979.671.847.396.22.341.154.275.154.044.22-.022.55-.011.902 0 1.166 0S1.87-.011 2.2-.022c.066.066.066.297 0 .363-.726.055-.781.396-.726 1.012l.418 4.411h.022L4.191.055c.033-.077.099-.165.165-.165s.11.077.154.165l2.475 5.819h.022Z"/></symbol></defs></svg>