<svg xmlns="http://www.w3.org/2000/svg" width="91" height="35" fill="none" viewBox="0 0 91 35"><path fill="#fff" d="M7.888 18.148q0 1.699.487 2.28.488.58 1.773.58 1.33 0 3.412-1.34l.886 1.475q-3.9 3.263-6.425 3.263-2.527 0-3.988-1.207-1.463-1.251-1.463-4.38V7.107H.355L0 5.453l2.57-.804v-2.19L7.888 0v4.917l5.229-.402-.488 2.905-4.741-.179zm9.696 16.45h-.754q-1.063-1.833-1.64-5.23l1.02-.626q1.285.805 2.26.805 2.082 0 3.19-1.922l1.507-3.532-6.78-15.958q-.532-1.206-.93-1.52-.4-.312-1.507-.446l-.31-1.654q3.545.357 5.096.357 1.55 0 5.539-.357l-.177 1.564q-.09.045-.488.134a9 9 0 0 0-.62.18q-.222.044-.532.133-.62.268-.62.67 0 .314.177.94l3.9 10.057 3.81-10.236q.134-.403.133-.76 0-.805-2.348-1.073l-.089-1.565q2.172.313 3.634.313t4.83-.313l-.31 1.654q-1.064.045-1.507.403-.398.312-.842 1.34L23.92 29.905q-1.993 4.695-6.336 4.694m31.593-12.473q1.728 0 2.925-1.922 1.24-1.966 1.24-5.721 0-6.973-4.032-6.973-1.64 0-3.59 1.832v10.281a4.5 4.5 0 0 0 1.463 1.788q.974.715 1.994.715M49.266 35q-4.123-.402-5.584-.402-1.462 0-5.85.402l-.443-1.61q1.596-.357 2.305-.804t.709-1.385V8.895q0-1.52-1.152-1.52l-2.039.269-.221-1.699q3.81-1.699 7.223-2.011l.93 1.028q0 .982.443 2.235l1.95-1.475q2.04-1.565 3.678-1.565 4.033 0 5.938 2.459t1.906 7.062q0 4.56-2.88 7.644t-7.401 3.084q-1.462 0-3.058-.983v7.867q0 .85.71 1.34 1.019.448 2.658.716l.488.09zm18.068-12.74q1.064 0 1.772-.67.71-.67.71-1.654 0-1.028-.267-1.52-.265-.536-.886-.983-.886-.715-2.526-1.52-1.594-.804-2.526-1.386-.885-.58-1.772-1.877-.842-1.341-.842-3.084 0-2.503 1.95-3.934 1.995-1.475 4.918-1.475 2.925 0 6.648 1.028-.134 2.905-.754 4.917l-1.772.402q-1.064-4.29-4.033-4.29-1.995 0-1.994 2.368 0 .94.753 1.61.798.67 2.305 1.43 1.506.716 2.171 1.117.665.358 1.773 1.207Q75 15.556 75 18.461q0 2.906-2.216 4.425-2.216 1.52-5.85 1.52-3.588 0-6.292-1.207-.088-.76-.088-2.637 0-1.922.088-2.682l2.172-.492q.354 2.19 1.55 3.531t2.97 1.342m17.108-4.113q0 1.699.487 2.28t1.773.58q1.329 0 3.412-1.34L91 21.143q-3.9 3.263-6.425 3.263T80.586 23.2q-1.462-1.251-1.462-4.38V7.107h-2.216l-.354-1.654 2.57-.804v-2.19L84.442 0v4.917l5.229-.402-.488 2.905-4.741-.179z"/></svg>